<svg xmlns="http://www.w3.org/2000/svg" width="1334" height="1334" viewBox="0 0 1000 1000"><path d="M445.2 188.2c14.16-6.48 29.55-9.7 44.94-11.58 9.2-.7 18.47-.55 27.7-.05 5.08.52 10.07 1.6 15.1 2.38 27.56 5.4 53.4 19.02 73.7 38.4 3.48 3.32 7.1 6.63 9.66 10.75-2.14 1.57-4.56 3.05-5.87 5.46-.9 2.15-.26 4.53.3 6.7 1.9 6.42 5.38 12.24 7.3 18.67 2.28 7.14 2.72 14.94 6.55 21.54 1.47 2.43 3.52 5.12 6.63 5.25 5.17.4 10.36.08 15.54.2 1.87 2.46 2.27 5.64 2.97 8.57 1 5.87 1.96 11.75 2.64 17.67 1.57 24.37-1.73 49.36-11.78 71.75-3-1.35-6.34-3.4-9.7-2.17-4 1.55-5.98 5.7-7.92 9.22-3.63 7.26-7.9 14.16-11.68 21.33-1.45 3.03-3.14 6.2-3.07 9.63.4 2.2 1.58 4.17 2.6 6.15-.67 1.26-1.62 2.35-2.65 3.32-9.85 9.3-20.6 17.72-32.55 24.16-11.92 6.87-25.06 11.32-38.35 14.67-12.23 2.6-24.76 4.12-37.27 3.77-16.22-.76-32.43-3.54-47.7-9.18-19.3-7.26-37.13-18.42-52-32.73-22.1-21.6-37.8-50.04-42.92-80.62-3.27-17.44-3.24-35.5 0-52.94.46-2.33.66-4.8 1.86-6.9 3.47-1.8 7.06-3.72 9.5-6.87 3.77-4.97 6.95-10.36 10.7-15.34 5.54-7.73 9.8-16.26 14.54-24.46 1.94-3.56 4.14-7.14 4.8-11.2.4-3.76-1.55-7.2-2.94-10.57 2-3.37 5.17-5.77 8-8.4 7.4-6.8 15.63-12.63 24.2-17.86 5.35-3.62 11.4-5.95 17.23-8.7m33.24 62.37c-27.16 2.64-54.08 13.88-73.1 33.8-9.3 10.03-16.77 22.2-19.5 35.73-3.24 13.24-2.04 27.42 2.85 40.1 1.97 5.02 5.18 9.43 8.45 13.67 5.77 7.42 14.25 11.88 21.83 17.14 8.75 6.14 19.42 8.56 29.82 10.15 12.35 2.3 24.9 3.1 37.44 3.42 9.3.47 18.57-.14 27.84-.7 5.95-.36 11.76-1.76 17.5-3.24 13.56-3.02 27.08-7 39.33-13.67 3.72-1.87 7.53-3.65 10.92-6.1 4.65-3.3 8.3-7.76 11.98-12.06 2.85-3.35 5.42-7.1 6.5-11.4 2.14-8.32 1.22-17 .5-25.43-.36-4.92-2.02-9.6-3.44-14.28-3.6-13.08-10.84-25.1-20.44-34.65-13.18-13.46-30.23-22.76-48.27-27.9-16.18-5.16-33.42-5.93-50.24-4.58M432.2 428.42c-2.94.56-4.73 3.62-4.8 6.45.47 1.26 1.53 2.22 2.74 2.8 2.65-.25 4.7-2.58 5.45-5 .57-1.96-1.42-4.47-3.4-4.24m142.22 1.78c-2.26.8-3.12 3.98-1.3 5.67 1.8 1.9 4.84 1.16 6.7-.26.16-1.8.75-4.35-1.28-5.33-1.28-.64-2.83-.65-4.12-.08m-81.07 9c-1.33.7-2.54 2.07-2.2 3.68.18 2.12 2.54 3.44 4.52 2.98.9-.77 2.4-1.58 2.28-2.96.25-2.43-2.28-4.45-4.6-3.7zm-103.72 12.34c2.37-1.34 5.87-.2 6.28 2.7.33 2.23.76 5-.68 6.9-3 1.83-6.43 2.77-9.35 4.72-5.32 3.54-10.25 7.7-14.6 12.38-2.14 2.12-4.22 4.57-7.17 5.56-2.96-1.85-5.56-4.3-7.73-7.02.4-2.6 2.2-4.7 4.17-6.28 3.18-2.55 6.76-4.54 10-7 3.43-2.52 6.45-5.62 10.2-7.7 2.86-1.63 5.82-3.08 8.9-4.27zm275.65 16.8c2.94-.38 6.08.1 8.58 1.77 3.18 2.07 5.72 4.93 8.68 7.3 3.64 3.02 7.95 5.3 10.97 9.03 2.63 3.26 4.4 7.3 4.74 11.5-.62 3.78-1.27 7.7-3.24 11.05-2.6 4.54-8.76 6.86-13.62 4.67-4-1.74-7.28-4.7-10.62-7.43-5.48-4.5-10.47-9.54-15.7-14.3-2.24-2.16-4.66-4.4-5.65-7.43-1.37-4.56.53-9.98 4.6-12.5 3.4-2.1 7.4-2.9 11.26-3.65zM324.2 490.22c3.56-2.54 7.28-5.37 11.8-5.74 2.8 1.14 5.94 2.16 7.8 4.72 2.34 3.3 2.83 7.64 2.03 11.53-.8 3.66-3.57 6.4-6 9.08-5.7 6-10.33 12.96-16.48 18.54-4.58 4.44-11.45 4.37-17.4 4.7-3.6.45-6.46-1.9-8.94-4.13-.9-7.02 3.7-12.96 7.83-18.1 6.2-7.08 11.58-15.12 19.37-20.62zm156.2 12.18c7.2-.9 14.52-.6 21.7.48 7.26 1.12 14.8.73 21.82 3.16 6.43 2.23 13.5 3.68 18.75 8.3 5.72 4.93 11.26 10.17 15.77 16.26 3.7 4.97 4 11.45 4.43 17.4.22 6.34.24 12.7.2 19.04 0 7-2.1 13.75-3.5 20.56-2 9.56-7.04 18.25-13.4 25.57-2.04 2.3-4.18 5-7.42 5.52l-15.98 2.97c-8.23.86-16.52.13-24.77.38-7.23.28-14.18-1.92-21.3-2.7-6.18-.65-12.1-2.73-17.7-5.35-6.44-3.1-10.72-9.38-13.06-15.94-4.73-12.93-6.53-26.7-7.6-40.36-.57-5.96 1.18-11.8 1.5-17.7.36-3.98.22-8.25 2.34-11.8 2.26-3.63 5.58-6.42 8.53-9.46 4.64-4.78 9.74-9.2 15.6-12.4 4.3-2.38 9.24-3.3 14.08-3.92zm-90.05 10c6.84-.46 13.57 3.44 17.57 8.83-.4 3.12-1.83 5.97-2.7 8.97-1.14 3.5-1.14 7.2-1.38 10.83-.33 6.27-1.44 12.57-.55 18.85.36 3.3 1.3 6.52 1.33 9.86-1.04 1.42-2.9 1.62-4.46 1.97-3.4.46-6.82.84-10.24.74-1.32-.07-3-.45-3.42-1.9-1.78-4.97-1.44-10.35-1.53-15.53.13-11.63-.86-23.36 1.1-34.9.52-2.9 1.37-6.3 4.26-7.72zm-100.9 40.86c1.9-.68 4.07-.48 5.88.42 1.36 1.5.97 3.7 1 5.58-.46 7.56.76 15.17 3.18 22.34.5 1.82 1.56 4.15-.2 5.67-2.4 1.3-5.36.98-7.93.42-2-3.3-2.48-7.23-3.1-10.96-.78-5.9-1.58-11.83-1.42-17.8.1-2.1.23-4.85 2.57-5.68zm104 24.2c3.6-.52 7.32-.48 10.88.3 1.78.48 3.84 2.02 3.4 4.1-.3 2.5-.8 5.37-2.7 7.2-3.14 1.36-6.7 1.17-10.04 1-1.74-.18-4.1-.4-4.6-2.46-.8-2.87-.96-6.13.3-8.88a5.34 5.34 0 0 1 2.78-1.24zm262 17.9c1.96-.94 5.2.05 4.8 2.67-.75 2.75-2.36 5.16-3.25 7.86-.96 2.6-1.25 5.38-2.3 7.94-1.54 2.08-5 1.92-6.44-.2-.13-4.02 1.37-7.85 2.8-11.53 1.08-2.44 2.12-5.15 4.4-6.74zm-252.02 12c1.26-.3 2.7-.48 3.86.27 2.57 3.35 1.36 7.8 1.14 11.67-.8 5.85-.06 11.76-.54 17.63-.08 2.88-2.83 5.38-5.73 4.96-3.34-.24-6.84-.66-9.8-2.34-1.16-.96-.77-2.52-.5-3.78.7-3.2 1.42-6.44 1.3-9.74.14-4.73-.65-9.87 1.65-14.2 2.2-2.48 5.5-3.66 8.63-4.47zm-108.15 3.67c2.77-.74 5.73-.5 8.5.13.77 5.18-.1 10.45.66 15.63.57 3.46 3.06 6.3 3.4 9.8-1.18 1.23-2.9 2.1-4.62 1.44-4.46-1.1-6.23-5.85-7.34-9.8-1.28-5.2-2.7-10.62-1.9-16l1.3-1.2zm354.05 10c2.1-.78 4.8-.3 6.05 1.7 1.3 1.9-.06 5.05-2.5 5-3.3.33-6.53-4.27-3.55-6.72zM305.4 643.35c2.36-.58 4.9-.63 7.24.02 2.26.56 2.86 3.9 1.16 5.38-1.34 1.44-3.4 2.63-5.4 1.95-2.6-.7-5.77-3.2-4.1-6.15l1.1-1.2zm75.6 7.67c1.94-1.52 4.56-1.6 6.9-1.22 4 .73 8.05 1.24 11.94 2.48 5.53 1.7 9.62 7.02 10.18 12.74.75 7.17-.6 14.32-1.45 21.42-.73 4.92-1.13 10.08-3.58 14.52-1.67 3.05-4.8 5.17-8.22 5.74-5.88 1-11.84-.28-17.56-1.6-2.46-1.5-4.75-3.67-5.6-6.5-.95-3.37-.04-6.86.6-10.18 1.87-8.7 2-17.63 2.17-26.48.06-4.03 1.4-8.3 4.6-10.9zm149.62 16.5c1.32-.7 3.25-.87 4.08.68 1.7 2.94 2.6 6.3 3.6 9.53.32 1.55 1 3.22.46 4.82-1.26 1.87-3.4 2.87-5.34 3.88-2.93 1.34-6.04 2.6-9.3 2.58-1.93.08-3.15-1.62-4.22-2.94-1.65-2.32-3.13-5.05-2.94-7.96.27-2.6 2.48-4.33 4.5-5.65 2.94-1.86 5.96-3.6 9.17-4.94zm65.68 6.85c6-2.3 12.5-3.2 18.92-2.94 4.83 2.28 7.95 7.2 8.92 12.35.83 4.7.4 9.48.75 14.22.33 8.2 1.98 16.47.5 24.64-.5 3-2.6 5.7-5.5 6.7-4.22.8-8.5 1.2-12.7 2.2-2.25.4-4.5 1.1-6.8 1-2.8-.73-5.27-3.1-5.83-6-.7-3.44-.57-6.96-.96-10.42-.57-5.8-2.9-11.22-3.8-16.96-.84-5.3-1.34-10.75-.62-16.1.48-3.97 3.37-7.38 7.1-8.72zm-62.94 18c2.93-.44 6.1-.93 8.9.32.8 1.68 1.28 3.5 1.8 5.28 1.8 6.62 4.53 13.04 5.15 19.94.73 7.25 1.26 14.62.52 21.9-.36 3.93-4.53 6.8-8.34 5.87-3.73-.72-8.6-2.5-9.1-6.87-.68-5.56.1-11.18-.46-16.75-.75-7.42-2-14.93-5.26-21.7-.43-1.48-1.78-3.12-.8-4.63 1.87-2.18 4.9-2.76 7.58-3.34zM385.4 711.4a22.03 22.03 0 0 1 10.82.4c1.53.5 3.36 1.44 3.56 3.25-.84 3.5-2.77 6.62-3.56 10.13-.9 3.3-.9 6.82-2.03 10.08-2.9 3.86-8.56 2.27-12.4.95-3.48-4.16-.6-9.8-.52-14.57.52-3.56-.65-9.3 4.13-10.24zm148.9 37.96c3.78-.7 7.7-.8 11.5-.15 1.46.23 3.1.86 3.55 2.44 1.14 3.32 1.17 7.18-.27 10.43-.85 2.3-3.64 1.68-5.52 1.55-2.87-.5-6.1-.83-8.34-2.84-2-3.32-2.52-7.47-1.77-11.23l.85-.2z" fill="#8f9199"/><path d="M384.26 221.34c3.67-2.34 8.52-.97 11.53 1.83 1.4 3.36 3.33 6.8 2.94 10.57-.65 4.06-2.85 7.64-4.8 11.2-4.75 8.2-9 16.73-14.54 24.46-3.75 4.98-6.93 10.37-10.7 15.34-2.45 3.15-6.04 5.06-9.5 6.87-4.64.2-8.86-2.7-11.35-6.43-1.53-2.42-1.36-5.45-.9-8.15.8-4.8 3.4-9.02 6.04-13 3.32-4.78 4.13-10.8 7.46-15.56 3.62-5.3 7.05-10.84 11.66-15.37 4-3.97 7.37-8.66 12.15-11.75zm232.04 6.76c3.1-1.53 6.34-2.95 9.78-3.5 3.55-.36 6.22 2.48 8.64 4.64 3.78 3.2 4.66 8.3 6.53 12.63 2.85 6.57 5.23 13.33 7.7 20.05 1.57 4.35 1.96 9 2.57 13.56.17 1.96.55 4.04-.13 5.96-.96 1.96-2.67 3.57-4.66 4.46-5.18-.12-10.37.2-15.54-.2-3.1-.13-5.16-2.82-6.63-5.25-3.83-6.6-4.27-14.4-6.55-21.54-1.9-6.43-5.38-12.25-7.3-18.67-.55-2.16-1.18-4.54-.3-6.7 1.3-2.4 3.73-3.9 5.87-5.46zm14.54 153.63c3.37-1.22 6.7.82 9.7 2.17 1.06 3.7 1.96 7.48 2.62 11.28.8 3.83-2.18 6.9-4.34 9.66-6.28 7.2-9.75 16.6-17.03 22.96-2.98 2.82-7.85 2.58-11.04.26-1-1.98-2.2-3.94-2.6-6.15-.07-3.44 1.62-6.6 3.07-9.63 3.78-7.17 8.05-14.07 11.68-21.33 1.94-3.53 3.9-7.67 7.92-9.22zm-55.28 73.8c11.96-6.44 22.7-14.85 32.55-24.16 5.9.94 10.98 4.4 15.9 7.6 5.77 3.95 11.8 7.5 17.6 11.4 8.3 5.42 16 11.7 23.66 18-3.87.76-7.87 1.55-11.26 3.65-4.08 2.53-5.98 7.95-4.6 12.5 1 3.03 3.4 5.27 5.65 7.43 5.24 4.76 10.23 9.8 15.7 14.3 3.34 2.73 6.62 5.7 10.62 7.43 4.86 2.2 11-.13 13.62-4.67 1.97-3.35 2.62-7.27 3.24-11.05 5.13 4.56 9.03 10.3 12.74 16.04 4.52 6.9 6.43 15.1 7.7 23.15.93 4.82-1.53 9.3-2.94 13.74-2.6 7.33-2.22 15.4-5.3 22.6-2.57 6.34-3.98 13.08-6.55 19.4-2.94-2.25-6.15-4.47-9.92-4.88-5-.62-10.03-.5-15.03-.86-9.7-.67-19.58.53-28.75 3.84.8-10.93 4.66-21.32 6.65-32.05.57-3.57 1.72-7.45.1-10.92-2.4-5.86-7.83-9.5-12.27-13.7-5.54-4.77-10.8-9.87-16.6-14.3.38 12.28.63 24.6-.55 36.85-.88 7.95-3.1 15.66-5.22 23.35-3.25 10.33-8.04 20.16-13.84 29.3-1.6 2.23-1.3 5-.54 7.48 4.15 13.64 5.77 27.87 7.06 42.02.26 4.13.65 8.3.23 12.43-6.42-.27-12.92.63-18.92 2.94-3.73 1.34-6.62 4.75-7.1 8.72-.72 5.34-.22 10.78.62 16.1.9 5.74 3.24 11.16 3.8 16.96.4 3.46.27 6.98.96 10.42.56 2.88 3.02 5.26 5.83 6 2.3.1 4.54-.6 6.8-1 4.2-1 8.48-1.4 12.7-2.2-.23 8.25.08 16.5.4 24.75.27 7.26 2.52 14.38 1.9 21.7-8.73-4.25-18.6-5.2-28.18-4.95-10.04.37-20-1.17-30.03-1.17-5.95.01-11.95-.42-17.86.37-4.58.56-8.43 3.32-11.92 6.14-1.5-3.18-1.77-6.7-2.2-10.13-.46-4.4-2.3-8.56-2.3-13.02-.1-5.42-.27-10.9-1.83-16.13-1.8-5.97-3.8-11.88-5.1-17.98-1.3-5.3-1.46-10.93-4.02-15.84-4.73-9.52-9.22-19.16-14.5-28.4-1.48-2.52-2.8-5.2-4.7-7.4-3-1.06-6.33-.94-9.45-.53-1.3 1.72-2 3.77-2.74 5.77-4.32 12.23-8.7 24.46-12 37-1.86 6.66-5.46 12.7-7.15 19.42-.93 3.5-1.4 7.15-2.7 10.56-4.67 11.23-5.68 23.5-6.66 35.5-1.57-2.9-3.48-5.74-6.24-7.63-5.23-3.72-11.63-5.13-17.83-6.3-10.08-1.8-19.8-5.23-29.9-6.9-6.68-1.13-13.55-.5-20.18-2.02-4.37-1-8.85-1.6-13.35-1.37-.6-8.16 3.43-15.57 4.86-23.4 1.37-7.4 1.32-14.98 3-22.3 5.72 1.33 11.68 2.6 17.56 1.6 3.42-.57 6.55-2.7 8.22-5.74 2.45-4.44 2.85-9.6 3.58-14.52.85-7.1 2.2-14.25 1.45-21.42-.56-5.72-4.65-11.04-10.18-12.74-3.9-1.24-7.94-1.75-11.94-2.48.3-13.6 1.3-27.2 1-40.8-.3-7.04 1.13-14.45-1.7-21.14a113.81 113.81 0 0 1-8.64-41.83c-.48-8.97-.15-17.95.28-26.9-13.15 14.13-25.92 28.63-37.88 43.78-1.88 2.67-4.25 5.6-3.67 9.08.8 8.65 2.65 17.3 1.7 26.03-3.42-1.7-7.06-3.18-10.93-3.24-7.95-.2-15.6 2.44-22.84 5.46-5.48 2.36-11.56 3.73-16.16 7.75-4.35-12.2-5.75-25.2-7.3-37.98-.6-5.65-1.33-11.34-1.08-17.03.05-3.77 3.17-6.32 5.1-9.25 3.5-5.1 6.52-10.67 11.24-14.8 2.48 2.23 5.35 4.58 8.94 4.13 5.95-.34 12.82-.27 17.4-4.7 6.15-5.58 10.78-12.55 16.48-18.54 2.42-2.7 5.18-5.42 6-9.08.8-3.9.3-8.24-2.03-11.53-1.85-2.56-5-3.58-7.8-4.72 3.1-3.72 6.92-6.76 10.37-10.14 6.9-6.86 15.05-12.26 22.5-18.47 10.5-7.87 20.25-16.8 31.4-23.8 14.87 14.3 32.7 25.47 52 32.73 15.26 5.64 31.47 8.42 47.7 9.18 12.5.35 25.04-1.18 37.27-3.77 13.3-3.35 26.43-7.8 38.35-14.67m-185.94-4c-3.07 1.2-6.03 2.64-8.9 4.27-3.74 2.1-6.76 5.2-10.2 7.7-3.25 2.45-6.83 4.44-10 7-1.98 1.6-3.78 3.68-4.17 6.28 2.17 2.73 4.77 5.17 7.73 7.02 2.95-1 5.03-3.44 7.17-5.56 4.36-4.68 9.3-8.84 14.6-12.38 2.92-1.95 6.36-2.9 9.35-4.72 1.44-1.9 1-4.68.68-6.9-.4-2.9-3.9-4.04-6.28-2.7m190.75 40c-3.7.56-7.2 2-10.86 2.75-2.57.6-5.24.66-7.77 1.44-1.63 1.17-1.8 3.4-2.06 5.22-.2 2.78-.3 5.78 1 8.35 1.27 2.08 3.94 2.56 6.2 2.44 6.64-.2 12.54-3.93 19.15-4.3 2.6-.24 5.22-.27 7.8-.7 1-5.2 1.17-11.8-3.1-15.64-3.44-.62-6.95-.08-10.35.45m-100 10.8c-4.84.6-9.77 1.54-14.08 3.92-5.86 3.2-10.96 7.62-15.6 12.4-2.95 3.04-6.27 5.83-8.53 9.46-2.12 3.55-1.98 7.82-2.34 11.8-.32 5.92-2.07 11.75-1.5 17.7 1.07 13.66 2.87 27.43 7.6 40.36 2.34 6.56 6.62 12.85 13.06 15.94 5.6 2.62 11.5 4.7 17.7 5.35 7.12.78 14.07 2.98 21.3 2.7 8.25-.25 16.54.48 24.77-.38l15.98-2.97c3.24-.53 5.38-3.22 7.42-5.52 6.37-7.32 11.4-16 13.4-25.57 1.4-6.8 3.5-13.55 3.5-20.56l-.2-19.04c-.43-5.95-.72-12.43-4.43-17.4-4.5-6.1-10.05-11.33-15.77-16.26-5.26-4.62-12.32-6.07-18.75-8.3-7.03-2.43-14.56-2.04-21.82-3.16-7.18-1.08-14.5-1.37-21.7-.48m-90.04 10c-2.9 1.4-3.74 4.82-4.26 7.72-1.97 11.53-.98 23.26-1.1 34.9.1 5.18-.25 10.56 1.53 15.53.4 1.46 2.1 1.84 3.42 1.9 3.42.1 6.84-.28 10.24-.74 1.57-.35 3.42-.55 4.46-1.97-.03-3.34-.97-6.57-1.33-9.86-.9-6.28.22-12.58.55-18.85.24-3.63.24-7.34 1.38-10.83.86-3 2.3-5.85 2.7-8.97-4-5.4-10.73-9.3-17.57-8.83m-100.9 40.87c-2.34.83-2.48 3.6-2.57 5.68-.16 5.96.64 11.9 1.42 17.8.62 3.73 1.1 7.65 3.1 10.96 2.57.56 5.53.9 7.93-.42 1.75-1.52.7-3.85.2-5.67-2.42-7.17-3.64-14.78-3.18-22.34-.04-1.88.35-4.07-1-5.58-1.8-.9-3.98-1.1-5.88-.42m104 24.2c-1.04.15-1.97.56-2.78 1.24-1.25 2.75-1.1 6-.3 8.88.5 2.05 2.86 2.28 4.6 2.46 3.34.18 6.9.37 10.04-1 1.9-1.82 2.4-4.68 2.7-7.2.45-2.08-1.6-3.62-3.4-4.1-3.56-.78-7.28-.82-10.88-.3m9.97 29.9c-3.13.8-6.43 2-8.63 4.47-2.3 4.33-1.5 9.47-1.65 14.2.13 3.3-.6 6.53-1.3 9.74-.26 1.26-.65 2.82.5 3.78 2.95 1.68 6.45 2.1 9.8 2.34 2.9.42 5.65-2.08 5.73-4.96.48-5.87-.25-11.78.54-17.63.22-3.86 1.43-8.32-1.14-11.67-1.17-.75-2.6-.57-3.86-.27m127.18 60.18c-3.2 1.35-6.23 3.08-9.17 4.94-2.02 1.32-4.23 3.05-4.5 5.65-.2 2.9 1.3 5.64 2.94 7.96 1.07 1.32 2.3 3.02 4.22 2.94 3.27.02 6.38-1.24 9.3-2.58 1.94-1 4.08-2 5.34-3.88.53-1.6-.14-3.27-.46-4.82-1-3.24-1.9-6.6-3.6-9.53-.83-1.55-2.76-1.38-4.08-.68m2.75 24.84c-2.68.58-5.7 1.16-7.58 3.34-.97 1.5.38 3.15.8 4.63 3.25 6.78 4.5 14.3 5.26 21.7.55 5.57-.22 11.2.46 16.75.48 4.36 5.36 6.15 9.1 6.87 3.8.94 7.98-1.94 8.34-5.87.74-7.27.2-14.64-.52-21.9-.62-6.9-3.36-13.32-5.15-19.94-.52-1.8-1-3.6-1.8-5.28-2.8-1.25-5.98-.76-8.9-.32m-148 19.05c-4.78.93-3.6 6.68-4.13 10.24-.08 4.78-2.96 10.4.52 14.57 3.84 1.32 9.5 2.9 12.4-.95 1.13-3.26 1.14-6.77 2.03-10.08.8-3.5 2.72-6.64 3.56-10.13-.2-1.8-2.03-2.75-3.56-3.25a22.04 22.04 0 0 0-10.82-.4m148.92 37.97l-.85.2c-.75 3.76-.22 7.9 1.77 11.23 2.25 2 5.47 2.33 8.34 2.84 1.88.13 4.67.76 5.52-1.55 1.44-3.25 1.4-7.1.27-10.43-.46-1.58-2.1-2.2-3.55-2.44-3.8-.64-7.72-.56-11.5.15zm-160.84 15c1.95-.85 4.18-.9 6.22-.4 2.84 2.87.64 6.97-.7 10.02-1.74 3.24-2.1 6.94-2.76 10.5-.2 2.73-4.4 3.02-5.5.78-2.34-3.95-2.34-8.8-1.7-13.2.5-2.93 1.38-6.45 4.42-7.7zm171.93 15.94c1.92-.93 4.46.68 4.3 2.85-.18 3.9-1.5 7.65-2.03 11.52-.6 3.08-.67 6.3-1.84 9.25-.95 1.52-2.96 1.35-4.46.97-2.9-3.57-2.52-8.54-2.13-12.83.62-4.38 2-9.5 6.17-11.76zm-173 14.08c1.52-.47 3.5-.48 4.45 1.03.9 1.74.6 4.23-1.2 5.3-1.6.17-3.18-.28-4.54-1.06-.5-1.78-1.07-4.65 1.28-5.28zm167.97 17.7c1.68-.7 3.6-.52 5.3.07.8 1.36 1.8 3.46.24 4.7-1.03 1.55-3.07 1.3-4.65 1.05-2.75-.36-2.8-4.4-.88-5.8z" fill="#86878e"/><path d="M478.44 250.57c16.82-1.35 34.06-.58 50.24 4.58 18.04 5.13 35.1 14.43 48.27 27.9 9.6 9.56 16.83 21.57 20.44 34.65 1.42 4.68 3.08 9.36 3.44 14.28.72 8.44 1.64 17.1-.5 25.43-1.1 4.32-3.66 8.06-6.5 11.4-3.7 4.3-7.33 8.76-11.98 12.06-3.4 2.46-7.2 4.24-10.92 6.1-12.25 6.68-25.77 10.65-39.33 13.67-5.75 1.48-11.56 2.88-17.5 3.24-9.27.55-18.55 1.16-27.84.7-12.53-.3-25.1-1.13-37.44-3.42-10.4-1.6-21.07-4-29.82-10.15-7.58-5.26-16.06-9.72-21.83-17.14-3.27-4.24-6.48-8.65-8.45-13.67-4.9-12.7-6.1-26.87-2.85-40.1 2.72-13.53 10.2-25.7 19.5-35.73 19.02-19.9 45.94-31.15 73.1-33.8m-53.02 30.93c-2.98 1-5.38 3.18-7.46 5.48-4.36 4.87-7.52 10.64-10.77 16.28-2.07 3.66-4.13 7.5-4.5 11.77-.33 3.54.88 7.3 3.53 9.73 2.72 2.57 7.32 2.93 10.4.8 2.3-2.17 3.55-5.15 5.27-7.75l7.44-11.54c2.2-3.4 5.65-5.63 8.36-8.55 2.16-2.2 1.83-5.6.98-8.3-.94-2.75-2.23-5.6-4.64-7.37-2.55-1.6-5.83-1.47-8.6-.55m-26.93 53.02c-4.34 1.43-6.36 6.23-6.52 10.5-.18 4.17-.15 8.94 2.7 12.3 3.76 4.32 11.96 2.74 13.58-2.83 1.13-4.34 2.13-8.85 1.9-13.36-1.12-4.92-6.84-8.17-11.66-6.6zM650.18 591c9.17-3.3 19.04-4.5 28.75-3.84 5 .35 10.04.24 15.03.86 3.77.4 6.98 2.63 9.92 4.88 3.05 4.45 5.07 10.07 3.64 15.48-.92 5.82-4.35 10.72-7.67 15.43-2.5 3.48-4.02 7.83-7.62 10.4-3.57 2.5-8.13 2.14-12.26 2.2-4.7-.08-9.36.53-14.04.37-5.43-.18-10.55-2.17-15.56-4.04-2.9-1.24-6.07-2.56-7.8-5.3-.92-2.36-.73-4.96-.96-7.43-.16-3.9-.96-7.86-.26-11.75 1.1-3.54 3.93-6.2 5.2-9.68 1.13-2.54 1.63-5.52 3.64-7.57m5.26 4.37c-2.27 1.6-3.3 4.3-4.4 6.74-1.43 3.68-2.93 7.5-2.8 11.53 1.43 2.12 4.9 2.28 6.44.2 1.04-2.56 1.33-5.35 2.3-7.94.9-2.7 2.5-5.1 3.25-7.86.4-2.62-2.83-3.6-4.8-2.67m-6.12 25.67c-2.98 2.45.25 7.05 3.55 6.72 2.44.04 3.8-3.1 2.5-5-1.26-2-3.95-2.5-6.05-1.7zM305.2 600.23c7.24-3.02 14.9-5.67 22.84-5.46 3.87.06 7.5 1.55 10.93 3.24 2.85 4.32 3.93 9.5 5.73 14.28 2.83 7.56 3.56 15.73 3.1 23.74-.25 3.27-1.86 6.33-4.13 8.65-2.18 2.15-5.22 2.98-7.94 4.22-4.64 1.8-8.68 5.3-13.8 5.72-7.24.7-14.65-.54-21.4-3.17-4.12-1.75-5.3-6.47-6.7-10.28-1.44-4.56-4.28-8.47-6.2-12.82-1.2-2.5-.65-5.32-.44-7.95.5-4.15.6-8.4 1.86-12.42 4.6-4.02 10.68-5.4 16.16-7.75m-9.92 10.8l-1.3 1.2c-.8 5.38.63 10.8 1.9 16 1.1 3.95 2.88 8.7 7.34 9.8 1.7.66 3.44-.2 4.62-1.44-.33-3.52-2.82-6.35-3.4-9.8-.77-5.18.1-10.45-.66-15.63-2.78-.64-5.74-.87-8.5-.13m10.1 32.32l-1.1 1.2c-1.68 2.96 1.5 5.46 4.1 6.15 2 .68 4.07-.5 5.4-1.95 1.7-1.5 1.1-4.82-1.16-5.38-2.35-.65-4.88-.6-7.24-.02zm65.94 107.45c4.5-.23 8.98.36 13.35 1.37 6.63 1.5 13.5.9 20.18 2.02 10.1 1.68 19.82 5.1 29.9 6.9 6.2 1.16 12.6 2.57 17.83 6.3 2.76 1.9 4.67 4.72 6.24 7.63 2.08 4.34 2.44 9.26 2.62 14 .05 4.4-.02 8.93-1.4 13.16-1.26 3.47-3.26 6.6-5.1 9.77-1.62 2.6-3.2 5.47-5.93 7.1-3 1.78-6.57 2.1-9.97 2.25-11.1.28-22.24-1.1-32.84-4.4-5.42-1.72-11.16-2-16.62-3.53-6.1-1.7-12.32-3.64-17.34-7.62-4.06-3.23-6.18-8.14-8.3-12.7-3.4-8.04-5.47-17.1-3.44-25.76 1.7-6.43 4.94-12.95 10.83-16.48m2.14 13.57c-3.04 1.24-3.93 4.76-4.42 7.7-.64 4.4-.64 9.26 1.7 13.2 1.1 2.24 5.28 1.95 5.5-.78.66-3.56 1.02-7.26 2.76-10.5 1.33-3.05 3.53-7.15.7-10.02-2.04-.5-4.27-.45-6.22.4m-1.06 30c-2.35.63-1.78 3.5-1.28 5.28 1.36.78 2.95 1.23 4.54 1.06 1.8-1.08 2.08-3.57 1.2-5.3-.96-1.5-2.93-1.5-4.45-1.03zm161.76-18.2c3.5-2.82 7.34-5.58 11.92-6.14 5.9-.8 11.9-.36 17.86-.37 10.03 0 20 1.54 30.03 1.17 9.6-.26 19.45.7 28.18 4.95 5.06 3.48 8.73 9.12 9.35 15.3.7 6 1.6 12.27-.2 18.2-1.33 4.35-3.08 8.63-5.63 12.4-3.62 5.27-9.8 8.34-16.05 9.03-6.52.77-13.07 1.6-19.65 1.55-12.44-.33-25.1-1.12-36.95-5.18-6.3-2.22-12.56-5.05-17.42-9.73-3.4-3.14-4.37-7.86-5.76-12.08-1.7-5.28-.55-10.85-.1-16.23.42-4.56 1.84-9.06 4.42-12.86m11.2 4.14c-4.17 2.27-5.55 7.38-6.17 11.76-.4 4.3-.77 9.26 2.13 12.83 1.5.38 3.5.55 4.46-.97 1.17-2.95 1.23-6.17 1.84-9.25.54-3.87 1.85-7.6 2.03-11.52.17-2.17-2.37-3.78-4.3-2.85m-5.03 31.8c-1.9 1.4-1.87 5.45.88 5.8 1.58.25 3.62.5 4.65-1.05 1.56-1.23.56-3.33-.24-4.7-1.7-.6-3.6-.77-5.3-.07z" fill="#525660"/><path d="M425.42 281.5c2.77-.92 6.05-1.05 8.6.55 2.4 1.76 3.7 4.62 4.64 7.37.85 2.7 1.18 6.1-.98 8.3-2.7 2.92-6.17 5.15-8.36 8.55l-7.44 11.54c-1.72 2.6-2.98 5.58-5.27 7.75-3.07 2.13-7.67 1.77-10.4-.8-2.65-2.43-3.86-6.2-3.53-9.73.37-4.27 2.43-8.1 4.5-11.77 3.25-5.64 6.4-11.4 10.77-16.28 2.08-2.3 4.48-4.47 7.46-5.48zm-26.92 53.02c4.82-1.56 10.54 1.7 11.66 6.6.23 4.5-.77 9.02-1.9 13.36-1.62 5.57-9.82 7.15-13.58 2.83-2.85-3.37-2.88-8.14-2.7-12.3.16-4.26 2.18-9.06 6.52-10.5zm33.7 93.9c1.97-.23 3.96 2.28 3.4 4.24-.76 2.42-2.8 4.75-5.45 5-1.2-.57-2.27-1.53-2.74-2.8.07-2.83 1.86-5.9 4.8-6.45zm142.2 1.78c1.3-.57 2.84-.56 4.12.08 2.03.98 1.44 3.52 1.28 5.33-1.87 1.42-4.92 2.17-6.7.26-1.8-1.7-.95-4.87 1.3-5.67zm-81.06 9c2.3-.75 4.84 1.27 4.6 3.7.12 1.38-1.37 2.2-2.28 2.96-1.98.46-4.34-.86-4.52-2.98-.33-1.6.88-3 2.2-3.68zm87.03 52.35c3.4-.53 6.9-1.07 10.35-.45 4.28 3.83 4.12 10.44 3.1 15.64-2.6.44-5.2.47-7.8.7-6.6.37-12.5 4.1-19.15 4.3-2.26.12-4.93-.36-6.2-2.44-1.28-2.57-1.2-5.57-1-8.35.27-1.82.43-4.05 2.06-5.22 2.53-.78 5.2-.83 7.77-1.44 3.67-.74 7.15-2.2 10.86-2.75z" fill="#b3b3b3"/></svg>