<svg xmlns="http://www.w3.org/2000/svg" viewBox="0 0 559 559" fill-rule="evenodd" stroke-linejoin="round" stroke-miterlimit="1.41421"><g fill-rule="nonzero"><path d="M105.912 156.407L400.54 451.035c13.476 13.454 35.63 13.453 49.105-.003 13.453-13.476 13.453-35.627 0-49.103L155.017 107.3c-13.475-13.455-35.63-13.457-49.105-.003-13.457 13.477-13.457 35.633 0 49.11z"/><path d="M449.642 156.407L155.015 451.035c-13.477 13.454-35.63 13.453-49.106-.003-13.453-13.476-13.453-35.627 0-49.103L400.537 107.3c13.475-13.455 35.63-13.457 49.105-.003 13.457 13.477 13.457 35.633 0 49.11z"/></g></svg>