<svg xmlns="http://www.w3.org/2000/svg" width="1334" height="1334" viewBox="0 0 1000 1000"><path d="M496.62 0h7.4c43.3.63 86.58 6.24 128.33 17.84C705.8 37.82 774.4 75.14 831.3 125.66c51.2 45.26 93 101.12 121.86 163.05 25.7 54.97 41.23 114.7 45.38 175.24 1.1 10.9.92 21.85 1.44 32.78v6.47c-.6 51.56-8.57 103.12-24.73 152.13C951.7 727.76 911.12 794.53 857.9 849c-53.66 55.13-120.2 97.72-192.88 123-51.86 18.3-106.8 27.4-161.74 28h-7.96c-62.5-.84-124.95-12.85-182.87-36.5-67.45-27.2-128.7-69.53-178.25-122.77-52.64-56.4-92.05-125.1-113.75-199.15C7.1 596.76.58 550.04 0 503.32v-6.56c.63-62.98 12.66-125.93 36.5-184.3 24.12-59.8 60.1-114.75 105.08-160.92 42.52-43.8 93.14-79.8 148.58-105.38C354.6 16.1 425.57.67 496.62 0m-2.4 185.3c-37.38.62-74.68 7.9-109.45 21.67-70.6 27.6-130.42 81.7-164.85 149.25-41.43 79.54-46 177.12-12.44 260.25 27.4 69.33 80.45 128.1 146.6 162.48 36.15 19.05 76.14 30.66 116.8 34.5 39.28 3.62 79.24-.18 117.1-11.24 63.15-18.12 120.07-56.93 160.33-108.82 44.2-56.2 67.97-127.97 66.36-199.43-.86-48.05-12.87-95.9-35.03-138.57-34.05-66.26-92.54-119.44-161.6-147.27-39.16-15.9-81.58-23.65-123.82-22.83zm-57.52 53.4c46.45-11.04 95.84-9.94 141.53 4.1 36.6 11.04 70.64 30.2 99.34 55.42-10.57 14.67-23.74 27.24-37.44 38.94-30.52 25.38-65.98 44.24-102.96 58.35-29.94-54.44-63.7-106.74-100.47-156.8zM275 353.02c26.93-41.45 65.66-75 110.3-96.2 36.12 49.73 69.5 101.46 99.84 154.93-20.55 5.28-41.2 10.17-62.05 14.13-22.46 4.6-45.2 7.6-67.87 10.83-39.26 4.77-78.75 7.88-118.32 7.86 7-32.5 19.78-63.8 38.1-91.56zm432.64-23.8c6.6 8.83 13.65 17.37 19.24 26.92 6.45 9.48 11.43 19.8 16.66 29.98 3.7 9.08 8.04 17.93 10.83 27.35a267.45 267.45 0 0 1 14.4 83.73c-41.06-8.15-82.92-12.02-124.76-12.35-20.87-.07-41.74 1.17-62.47 3.64-7.3-17.9-15.33-35.5-23.66-52.95 38.07-15.74 74.4-36.14 106.32-62.3 15.8-13.28 30.94-27.55 43.44-44.03zm-330.8 152.06c44.1-6.25 87.78-15.53 130.52-28.12a1143.01 1143.01 0 0 1 21.8 45.68c-21.57 6.22-42.53 14.57-62.52 24.78l-18.7 10.32c-33.25 19.52-63.55 43.9-90.32 71.63-21.7 22.6-41.5 47.16-57.63 74.04-25.95-28.94-45.7-63.47-57.03-100.7a266.59 266.59 0 0 1-11.62-87.48c48.68.45 97.3-3.6 145.5-10.16zm221.07 49.66c40.78-6.36 82.55-5.45 123.2 1.5 15 2.34 29.8 5.92 44.35 10.2-5.7 34.94-18.18 68.8-36.93 98.85-19.92 32.3-46.9 60.16-78.3 81.48-11.72-65.4-30-129.5-52.32-192.05zM397.17 632.2c42.86-40.15 95.05-69.58 150.37-88.82 25.06 66.2 45 134.46 57.43 204.2-41.7 17.54-87.85 24.73-132.86 19.73-40.1-4.18-79.23-17.52-113.4-38.9-8.43-4.8-16-10.9-23.93-16.43 15.62-30.16 37.8-56.5 62.4-79.76z" fill="#f0f0f0"/></svg>
