<svg xmlns="http://www.w3.org/2000/svg" width="1334" height="1334" viewBox="0 0 1000 1000"><path d="M492.34 57.43c56.28-1.07 112.78 8.73 165.36 28.87 66.5 25.3 126.58 67.05 173.7 120.33 47.57 53.54 81.9 118.8 98.73 188.44 14.97 61.36 16.55 125.94 4.74 187.98-16.97 90.52-63.5 175.1-130.5 238.22C732.3 890.06 636.3 933.3 536.95 941.1c-69.16 5.85-139.7-4.76-203.95-31.08-65.84-26.78-124.95-69.82-170.83-124.1-46.48-54.68-79.37-120.86-94.6-191-12.04-54.87-13.44-112.04-4.3-167.46 10.53-64.24 35.65-126 72.83-179.44 34.22-49.38 78.57-91.7 129.52-123.52 67.56-42.5 146.9-65.96 226.72-67.07M467 78.2c-3 1.16-4.26 4.97-7.02 6.76-5.93 4.8-8.18 12.62-8.6 19.96-.46 10.7-.2 21.6 2.5 32.04 2.48 9.82 7.92 18.96 15.85 25.33 11.34 9.25 25.2 14.95 39.3 18.45 17.9 4.38 36.34 5.55 54.6 7.74 24.57 2.52 49.7 6.93 71.36 19.45 14.28 8.2 27.2 18.64 39.03 30.04 12.96 12.9 24.86 27.56 31.03 45 7.6 19.93 10.2 41.5 19.08 60.97 4.1 9.2 10.5 17.23 17.97 23.96 15.15 13.6 33.96 22.34 53.04 28.93 21.05 7.66 42.68 13.55 63.7 21.26 14.44 5.4 28.6 11.88 41.27 20.73 7.77 5.92 14.46 13.1 21.03 20.3-6.08-64.77-27.62-128-62.2-183.1-39.82-63.78-96.9-116.68-163.62-151.35-69.7-36.6-149.9-52.8-228.35-46.45m-129.74 31.1c-1.9 5.3-6.27 8.97-10.37 12.54-4.75 4.08-8.2 9.4-11.32 14.76-4.38 7.2-8.6 14.56-11.44 22.5-4.25 11.45-5.8 23.7-5.92 35.87-1.67 35.35 6.8 70.08 15.72 104 3.06 10.18 6.45 20.26 9.82 30.34 4.05 12.74 6.67 26.34 4.35 39.68-1.5 8.16-7.46 14.37-13.03 20.1-8.7 7.9-17 16.3-26.18 23.72-8.82 7.25-18 14.04-26.83 21.3-13.14 10.54-25.32 22.7-33.5 37.56-10.2 17.42-14.78 37.46-16.74 57.37-2.1 19.2-2.23 38.54-4.08 57.76-.58 11.04-3.57 21.8-7.94 31.92-8.42 19-20.03 36.7-34.82 51.33-6.44 5.86-13.58 11.44-22.1 13.8-7.45 2.33-15.36 1.87-23.07 2 14.22 28.98 31.76 56.3 52.14 81.32 5.44-30.86 22.28-59.86 47.16-79.07 9.58-7.5 20.93-12.15 32.03-16.88 23.34-9.3 45.64-21.2 69.77-28.5 36.36-12.13 76.25-17.16 113.74-7.13 16.32 3.6 29.73 14.1 44.4 21.44l32.9 16c29.94 14.57 60.35 29.16 93.13 36.1 22.67 4.78 46.18 5.03 69.06 1.6 19.02-2.87 37.6-8.22 55.65-14.83 16.42-5.75 32.12-13.26 48.1-20.1 15.1-6.77 31.4-11.6 48.07-11.34 6.7.15 12.83 3.1 18.73 6.02 11.84 6.6 21.85 16.22 29.33 27.5 31.35-58.88 48.33-125.33 49.06-192.04-.12-2.53-2.68-4.3-2.66-6.9 0-2.86.6-5.86-1-8.44-5.88-11.46-14.76-21.03-23.88-30-6.48-6.58-14.6-11.15-22.77-15.3-16.46-8.37-34.26-13.5-51.72-19.3-21-6.68-42.22-13.14-61.92-23.15-14.22-7.35-27.6-16.67-38.27-28.7-13.6-14.62-19.98-34.1-24.92-53.05-4.73-17.16-8.24-35.36-19.04-49.98-12.36-17.13-28.52-31.3-46.1-42.92-16.26-10.73-35.47-15.83-54.57-18.5-20.68-2.84-41.57-4.17-62.14-7.8l.72 1.03c-15.68-22.93-42.4-37.72-70.12-39.1-12.02-18.1-14-40.7-12.66-61.85.53-7.22 2.6-14.28 5.94-20.7-34.53 5.27-68.43 14.58-100.7 28M146.5 267.46c-35.86 54.28-58.96 116.97-66.57 181.6-8.9 72.7 1.5 147.66 29.97 215.16 8.36 2.38 17.16 2.7 25.75 1.32 5.84-1.2 10.63-5.04 14.97-8.9 8-7.5 14.6-16.32 20.52-25.5 8.58-14.04 16.35-29.4 17.14-46.16 2.4-25.3 1.9-50.9 6.68-75.94 3.15-19.45 10.44-38.25 21.3-54.7 9.04-13.98 21.24-25.57 34.15-35.95 13.34-10.94 27.56-20.88 39.92-32.98 6.18-6.16 13.57-11.4 18.16-18.95 2.97-13.8-2.2-27.6-6.5-40.56-8.14-23.4-13.78-47.6-18.64-71.88-4.75-26.02-6.53-52.75-3.23-79.06 2.1-16.52 8.76-32 17.17-46.23-60.7 32.82-112.8 81.2-150.8 138.76m166.6 398.6c-18.85 6.97-36.7 16.3-55.44 23.58-8.64 3.77-17.52 7.3-25.2 12.85-26.32 19.62-42.3 51.96-42.9 84.7 9.4 10.67 19.77 20.45 30.37 29.9 53.47 47.42 119.16 81 189 96.2 69.7 15.34 143.3 12.76 211.72-7.63 46-13.65 89.58-35.3 128.33-63.6 39.67-28.87 74.17-64.75 101.75-105.32 3.23-5.17 7.1-10.04 9.16-15.84 1.8-4.17-.4-8.66-2.44-12.3-6.82-10.43-16.6-19.3-28.36-23.72-2.26-.95-4.75-.93-7.14-.8-10.83.4-21.34 3.5-31.34 7.5l-34.02 14.88c-17.8 7.27-35.9 13.87-54.58 18.5-39.2 10.24-81.35 10.6-120.14-1.67-24.2-6.96-47.12-17.56-69.74-28.47l-42.44-20.64c-11.07-5.46-21.15-12.84-32.63-17.46-10.34-3.56-21.2-5.48-32.08-6.44-31.4-2.66-62.63 4.93-91.9 15.77zm206.07-311.36c11.83 4.62 20.73 13.93 30.86 21.2 7.46 5.42 16.33 8.4 25.18 10.68 18.2 5.1 36.84 8.77 54.47 15.7 13.33 5.4 26.5 13.6 33.48 26.6 6.5 11.87 6.46 26.23 3.04 39.03-1.54 5.44-4.94 10.7-10.4 12.84l-35.96 15c-15.54 6.3-30.3 15-42.22 26.9-5.02 4.74-7.56 11.28-10.47 17.38-4.1 8.3-7.47 17.24-14.18 23.86-2.25 2.6-5.5 4.5-9.04 4.14-19-.88-35.45-11.53-51.74-20.24-8.35-4.25-16.48-10-26.1-10.63-13.53-1.4-27.12-1.92-40.67-2.9-11.88-1.37-24.1-2.45-35.08-7.6-6.74-3.13-13-8.42-15.3-15.7-3.13-9.08-.67-19.38 5.12-26.85 8.04-10.5 19.77-17.1 30.3-24.73 7.92-5.88 16.8-11.66 20.98-21 6.95-16.75 8.97-36.02 21-50.3 5.17 4.15 10.5 8.12 15.8 12.1-1.45 1.56-3 3.07-4.03 4.98-8.44 15.2-9.4 33.5-18.8 48.23-11.38 16.55-30.42 24.9-45.27 37.73-3.1 2.93-6.5 6.35-6.9 10.83-.2 2.9 1.86 5.35 4.4 6.5 8.5 4.3 18.18 4.9 27.46 6.1 13 1.17 26.08 1.5 39.08 2.78 6.54.55 13.2 1.37 19.24 4.1 15.04 6.6 28.67 15.95 43.74 22.48 4.4 1.9 8.94 3.5 13.7 4.24 7.97-11.85 11.16-26.57 20.96-37.27 10.3-10.78 22.55-19.6 35.8-26.4 16.1-8.06 33.12-14.16 49.6-21.4 2.8-9.86 2.72-21.75-4.63-29.7-9.13-9.86-22.4-14.24-34.95-17.9-18.97-6.04-39-8.82-57.32-16.83-13.2-5.76-22.7-17.1-35.03-24.2 1.4-6.56 2.58-13.17 3.87-19.76z" fill="#486285"/><path d="M467 78.2c78.46-6.34 158.64 9.84 228.35 46.45 66.72 34.67 123.8 87.57 163.62 151.35 34.57 55.1 56.1 118.34 62.2 183.1-6.57-7.2-13.26-14.38-21.03-20.3-12.68-8.85-26.83-15.34-41.27-20.73-21.03-7.7-42.66-13.6-63.7-21.26-19.08-6.6-37.9-15.33-53.04-28.93-7.47-6.73-13.86-14.75-17.97-23.96-8.87-19.48-11.5-41.04-19.08-60.97-6.17-17.43-18.07-32.1-31.03-45-11.84-11.4-24.75-21.83-39.03-30.04-21.66-12.52-46.8-16.93-71.36-19.45-18.25-2.2-36.7-3.36-54.6-7.74-14.1-3.5-27.96-9.2-39.3-18.45-7.93-6.37-13.37-15.5-15.85-25.33-2.7-10.43-2.97-21.33-2.5-32.04.4-7.34 2.66-15.16 8.6-19.96 2.76-1.8 4-5.6 7.02-6.76zM146.5 267.46c38-57.56 90.1-105.94 150.8-138.76-8.4 14.23-15.08 29.7-17.17 46.23-3.3 26.3-1.52 53.04 3.23 79.06 4.86 24.28 10.5 48.47 18.64 71.88 4.3 12.96 9.48 26.75 6.5 40.56-4.6 7.55-11.98 12.8-18.16 18.95-12.36 12.1-26.58 22.04-39.92 32.98-12.9 10.38-25.1 21.97-34.15 35.95-10.87 16.45-18.16 35.25-21.3 54.7-4.77 25.04-4.28 50.65-6.68 75.94-.8 16.75-8.56 32.12-17.14 46.16-5.9 9.2-12.52 18.02-20.52 25.5-4.34 3.87-9.13 7.7-14.97 8.9-8.6 1.38-17.4 1.06-25.75-1.32-28.47-67.5-38.87-142.45-29.97-215.16 7.6-64.62 30.7-127.3 66.57-181.6zM515.3 374.5c12.33 7.1 21.84 18.44 35.03 24.2 18.33 8 38.35 10.8 57.32 16.83 12.55 3.67 25.82 8.05 34.95 17.9 7.35 7.94 7.44 19.83 4.63 29.7-16.48 7.25-33.5 13.35-49.6 21.4-13.25 6.8-25.5 15.6-35.8 26.4-9.8 10.7-13 25.42-20.96 37.27-4.76-.73-9.3-2.35-13.7-4.24-15.07-6.53-28.7-15.9-43.74-22.48-6.05-2.72-12.7-3.54-19.24-4.1-13-1.27-26.08-1.6-39.08-2.78-9.28-1.2-18.97-1.82-27.46-6.1-2.53-1.16-4.6-3.6-4.4-6.5.4-4.48 3.8-7.9 6.9-10.83 14.85-12.82 33.9-21.18 45.27-37.73 9.4-14.74 10.35-33.04 18.8-48.23 1.02-1.9 2.58-3.42 4.03-4.98 7.27 5.63 14.8 10.93 22.18 16.42 2.4 1.8 5.27 3.47 8.4 2.98 4.07-.4 7.35-3.77 8.08-7.72l8.37-37.4zM313.1 666.05c29.26-10.84 60.5-18.43 91.9-15.77 10.88.96 21.74 2.88 32.08 6.44 11.48 4.62 21.56 12 32.63 17.46l42.44 20.64c22.62 10.9 45.54 21.5 69.74 28.47 38.8 12.27 80.94 11.9 120.14 1.67 18.67-4.64 36.8-11.24 54.58-18.5l34.02-14.88c10-4 20.5-7.12 31.34-7.5 2.4-.12 4.88-.14 7.14.8 11.76 4.42 21.54 13.3 28.36 23.72 2.03 3.65 4.23 8.14 2.44 12.3-2.05 5.8-5.93 10.67-9.16 15.84-27.6 40.56-62.1 76.46-101.75 105.32-38.75 28.3-82.34 49.94-128.33 63.6-68.4 20.4-142.02 22.97-211.72 7.63-69.85-15.22-135.54-48.8-189-96.2-10.6-9.45-20.98-19.23-30.37-29.9.6-32.73 16.58-65.07 42.9-84.7 7.68-5.56 16.56-9.08 25.2-12.85 18.73-7.3 36.6-16.6 55.44-23.58z" fill="#44af79"/><path d="M337.25 109.3c32.26-13.42 66.16-22.73 100.7-28-3.34 6.42-5.4 13.48-5.94 20.7-1.35 21.16.64 43.74 12.66 61.85-20.24-1.1-40.77 4.8-57.3 16.5-17.25 12.05-29.98 30.32-35.5 50.6-5.77 21.1-3.93 44.5 6.24 63.98 9.47 16.83 23.18 30.72 36.9 44.12 18.5 17.1 37.54 33.62 57.46 49.05-12.04 14.3-14.06 33.56-21 50.3-4.18 9.34-13.06 15.12-20.98 21-10.54 7.63-22.27 14.24-30.3 24.73-5.8 7.47-8.25 17.77-5.12 26.85 2.3 7.3 8.56 12.58 15.3 15.7 10.97 5.14 23.2 6.22 35.08 7.6 13.55 1 27.14 1.5 40.67 2.9 9.63.64 17.76 6.38 26.1 10.63 16.3 8.7 32.75 19.36 51.74 20.24 3.54.36 6.8-1.54 9.04-4.14 6.7-6.62 10.08-15.57 14.18-23.86 2.9-6.1 5.45-12.64 10.47-17.38 11.92-11.9 26.68-20.6 42.22-26.9l35.96-15c5.45-2.14 8.85-7.4 10.4-12.84 3.42-12.8 3.45-27.16-3.04-39.03-6.98-13-20.15-21.2-33.48-26.6-17.63-6.92-36.28-10.6-54.47-15.7-8.85-2.3-17.72-5.26-25.18-10.68-10.13-7.28-19.03-16.6-30.86-21.2 4.1-21.4 7-43.02 9.54-64.67 1.52-16.78 2.52-33.74.48-50.52-1.5-13.2-6.83-25.75-14.4-36.6l-.72-1.03c20.57 3.62 41.46 4.95 62.14 7.8 19.1 2.66 38.3 7.76 54.57 18.5 17.57 11.6 33.73 25.8 46.1 42.92 10.8 14.62 14.3 32.82 19.04 49.98 4.94 18.95 11.32 38.43 24.92 53.05 10.67 12.02 24.05 21.34 38.27 28.7 19.7 10 40.93 16.47 61.92 23.15 17.46 5.8 35.26 10.94 51.72 19.3 8.16 4.15 16.3 8.72 22.77 15.3 9.12 8.96 18 18.53 23.88 30 1.6 2.58 1 5.58 1 8.44-.02 2.62 2.54 4.38 2.66 6.9-.73 66.7-17.7 133.16-49.06 192.04-7.48-11.28-17.5-20.9-29.33-27.5-5.9-2.9-12.02-5.87-18.73-6.02-16.67-.25-32.98 4.57-48.07 11.34-15.97 6.85-31.67 14.36-48.1 20.1-18.05 6.6-36.63 11.96-55.65 14.83-22.88 3.43-46.4 3.18-69.06-1.6-32.78-6.95-63.2-21.54-93.13-36.1l-32.9-16c-14.68-7.35-28.1-17.83-44.4-21.44-37.5-10.03-77.38-5-113.74 7.13-24.13 7.28-46.43 19.2-69.77 28.5-11.1 4.73-22.45 9.4-32.03 16.88-24.88 19.2-41.72 48.2-47.16 79.07-20.38-25.02-37.92-52.34-52.14-81.32 7.7-.13 15.62.33 23.07-2 8.53-2.36 15.67-7.94 22.1-13.8 14.8-14.63 26.4-32.34 34.82-51.33 4.37-10.1 7.36-20.88 7.94-31.92 1.85-19.22 2-38.56 4.08-57.76 1.96-19.9 6.54-39.95 16.74-57.37 8.18-14.87 20.36-27.02 33.5-37.56 8.82-7.25 18-14.04 26.83-21.3 9.17-7.4 17.47-15.8 26.18-23.72 5.57-5.72 11.54-11.93 13.03-20.1 2.32-13.34-.3-26.94-4.35-39.68l-9.82-30.34c-8.92-33.92-17.4-68.65-15.72-104 .1-12.16 1.67-24.42 5.92-35.87 2.85-7.95 7.06-15.32 11.44-22.5 3.12-5.36 6.57-10.68 11.32-14.76 4.1-3.57 8.48-7.25 10.37-12.54z" fill="#64cbe4"/><path d="M387.35 180.34c16.54-11.7 37.07-17.6 57.3-16.5 27.72 1.38 54.44 16.17 70.12 39.1 7.57 10.85 12.9 23.4 14.4 36.6 2.04 16.78 1.04 33.74-.48 50.52-2.53 21.65-5.43 43.26-9.54 64.67l-3.87 19.76-8.37 37.4c-.73 3.95-4 7.32-8.08 7.72-3.14.5-6-1.17-8.4-2.98l-22.18-16.42-15.8-12.1c-19.92-15.43-38.96-31.96-57.46-49.05-13.7-13.4-27.42-27.3-36.9-44.12-10.17-19.47-12-42.9-6.24-63.98 5.5-20.3 18.24-38.56 35.5-50.6m-.3 24.72c-12.4 13.1-19.64 30.93-19.85 48.97-.14 13.56 3.28 27.43 11.23 38.57 11.74 16.63 26.56 30.8 41.77 44.22 22.72 20.67 46.9 39.68 71.68 57.8 7.02-30.56 12.95-61.4 16.64-92.56 1.9-13.27 3.03-26.65 3.25-40.05-.01-10.2-.24-20.6-3.18-30.47-5.08-15.45-15.75-28.94-29.44-37.68-13.3-8.58-29.46-12.67-45.24-11.34-17.68 1.4-34.75 9.57-46.86 22.53zm43.38-1.52c12.34-2.2 25.5.15 36.14 6.8 17.36 10.24 27.4 31.48 24.2 51.4-2.5 19.7-17.6 37.06-36.76 42.25-17 5.2-36.53.5-49.43-11.7-12.58-11.4-18.82-29.42-15.88-46.17 3.03-21.2 20.7-38.97 41.74-42.6m1.82 18.65c-12.8 2.74-23.2 13.78-25.22 26.7-1.93 10.83 2.08 22.48 10.22 29.87 6.08 5.65 14.4 8.86 22.7 8.75 9.2-.1 18.36-4.17 24.43-11.12 5.92-6.6 9-15.65 8.26-24.48-.74-10.46-6.78-20.4-15.82-25.77-7.25-4.45-16.3-5.95-24.57-3.95z" fill="#333"/><path d="M387.04 205.06c12.1-12.96 29.18-21.12 46.86-22.53 15.78-1.33 31.94 2.76 45.24 11.34 13.7 8.74 24.36 22.23 29.44 37.68 2.94 9.86 3.17 20.26 3.18 30.47-.22 13.4-1.36 26.78-3.25 40.05-3.7 31.15-9.62 62-16.64 92.56-24.78-18.13-48.96-37.14-71.68-57.8-15.2-13.42-30.03-27.6-41.77-44.22-7.95-11.14-11.37-25-11.23-38.57.2-18.04 7.44-35.87 19.85-48.97m43.4-1.5c-21.04 3.63-38.7 21.4-41.74 42.6-2.94 16.75 3.3 34.76 15.88 46.17 12.9 12.2 32.43 16.9 49.43 11.7 19.15-5.2 34.26-22.56 36.76-42.25 3.2-19.92-6.83-41.16-24.2-51.4-10.65-6.66-23.8-9-36.14-6.8z" fill="#cd4a4b"/><path d="M432.25 222.2c8.28-2 17.32-.5 24.57 3.95 9.04 5.36 15.08 15.3 15.82 25.77.73 8.83-2.34 17.9-8.26 24.48-6.07 6.95-15.22 11.03-24.43 11.12-8.3.1-16.62-3.1-22.7-8.75-8.14-7.4-12.15-19.04-10.22-29.87 2-12.92 12.43-23.96 25.22-26.7z" fill="#ddd"/></svg>