<svg xmlns="http://www.w3.org/2000/svg" width="1334" height="1334" viewBox="0 0 1000 1000"><path d="M496.5 0h6.96c38.55.54 77.1 4.93 114.57 14.14 78.83 18.94 152.73 57.74 213.33 111.56 54.2 47.92 97.84 107.72 126.8 174.02 24.94 56.8 38.95 118.33 41.35 180.3l.5 16.5v7.73c-.7 51.2-8.68 102.37-24.72 151.04-23.54 72.43-64.13 139.2-117.34 193.66-53.5 55-119.84 97.48-192.28 122.82-46.5 16.4-95.46 25.64-144.7 27.7l-17.5.53h-6.9c-68.02-.68-136-14.8-198.2-42.46-65.6-28.82-124.72-72.12-172.25-125.7C75.38 774.8 37.87 706 17.83 632.32 6.27 590.7.67 547.53 0 504.36v-7.8C.62 441.67 9.73 386.8 28 335c22.6-64.92 58.97-124.96 105.78-175.27 46.18-49.72 102.53-90 164.67-117.3C360.6 14.8 428.53.68 496.5 0M220.2 294.1l191.7 164c13.76 11.95 28.13 23.17 42.2 34.74l47.27 38.44 104.13-85.83 176.72-151.38c-6.87-2.14-14.1-1.6-21.2-1.65-176.02-.01-352.03 0-528.05-.01-4.32-.05-8.63.5-12.78 1.7m386.1 195.73L806.77 682.5c3.26-9.84 1.8-20.3 2.12-30.46v-311c-.07-7.7.6-15.62-1.96-23.04L606.3 489.83M195.68 318c-2.6 7.74-1.84 15.98-1.95 24v316.02c.1 8.1-.65 16.4 2.04 24.2 9.83-8.63 18.95-18.07 28.5-27L396.4 489.9 195.68 318m25.03 388.06c3.68.93 7.45 1.53 11.26 1.52h538.06c4.04.05 8.07-.5 11.98-1.5L579.6 511.62l-78.27 63.64-78.13-63.55-202.5 194.36z" fill="#f0f0f0"/></svg>
