<svg xmlns="http://www.w3.org/2000/svg" width="1334" height="1334" viewBox="0 0 1000 1000"><path d="M496.46 0h7.02c35.14.53 70.3 4.13 104.62 11.85 74.66 16.32 145.32 50.36 204.82 98.3 56.47 45.3 102.94 103 135.1 167.85 29.08 58.47 46.44 122.74 50.7 187.9 1 10.18.76 20.4 1.3 30.6v7.87c-.83 67.94-15.02 135.82-42.76 197.9-30.42 69-76.88 130.78-134.45 179.44-59.2 50.2-130.23 86.4-205.75 104.37-37.14 9.06-75.34 13.35-113.54 13.9h-6.96c-63.67-.65-127.27-13.04-186.18-37.32-66.6-27.3-127.1-69.23-176.12-121.92-49.6-53.1-87.44-117.16-109.82-186.3C11.7 615.22 3.86 574.4 1.2 533.22.28 523.34.52 513.4 0 503.5v-7c.6-46.62 7.1-93.24 20.42-137.95C41 288.28 77.5 222.8 126.16 168.1c47.55-53.57 106.68-96.86 172.28-125.68C360.6 14.8 428.5.7 496.46 0m-148.5 273.97c.62 12.73 4.2 25.1 9.05 36.82-6.18 6.3-12.42 12.66-17.04 20.22-6.78 9.85-10.72 21.33-13.6 32.84-6.47 26.9-6.95 54.72-7.15 82.23.38 28.23 7.47 56.9 23.52 80.4 13.06 19.7 31.78 35.28 52.65 46.17 23.27 12.27 49.12 18.88 75.13 22.05-5.96 5.93-9.5 13.75-12.28 21.55-3.95 11.3-6.3 23.2-6.6 35.2-20.9 8.24-44.74 9.5-66.1 2.2-14.98-5.05-28.3-14.64-38.17-26.96-7.13-8.2-11.42-18.4-18.56-26.57-10.5-12.57-25.17-22.58-41.84-24.03-6.7-.33-13.72-1.44-20.2.88-2.03.6-2.9 3.14-1.56 4.86 4.73 7.42 14.27 9.54 19.48 16.5 15.1 17.7 27.2 37.78 37.2 58.73 13.77 27.32 40.83 47.4 70.95 52.67 19.45 4.04 39.52 2.14 58.85-1.56l.02 75.7H603L602.96 655c.17-12.27-2.48-24.4-6.12-36.05-2.9-8.7-6.3-17.6-12.78-24.3 16.76-2.1 33.45-5.4 49.42-11.02 24.05-8.2 46.77-21.3 64.38-39.78 13.04-13.6 23.05-30.07 29.1-47.9 7.2-20.45 9.1-42.42 8.2-63.97-.5-27.6-2-55.74-11.1-82.02-5.13-15.17-15.02-28.18-26.46-39.17 1.64-4.58 3.62-9.04 4.96-13.72 7.9-26.55 4.7-55.44-5.53-80.9-13.2 1.14-25.18 7.55-36 14.8-15.74 11.16-28.36 26.1-39.14 41.96-5.2-4.8-11.68-8-18.34-10.25-18.3-5.8-37.54-7.54-56.6-8.32-27.07-.55-54.4-.72-81.08 4.4-11.73 2.7-24.13 5.7-33.2 14.16-10.72-15.75-23.22-30.58-38.8-41.73-10.88-7.35-22.93-13.84-36.24-15.03-7.28 18.3-11.15 38.1-9.64 57.8z" fill="#f0f0f0"/></svg>
