<svg xmlns="http://www.w3.org/2000/svg" width="100%" height="100%" viewBox="0 0 267 267" fill-rule="evenodd" stroke-linejoin="round" stroke-miterlimit="1.41421"><g fill-rule="nonzero"><path d="M133.733 157.008c-6.483 6.484-25.362 52.25-25.362 52.25-2.77 5.034 1.375 8.688 10.804 3.9l33.88-18.48c18.254-10.146 21.784-12.796 21.542-33.45L171.2 136.84c-1.163-8.355-7.417-9.888-13.9-3.405l-23.567 23.57zM112.8 136.075c-6.483 6.483-52.25 25.363-52.25 25.363-5.033 2.77-8.688-1.375-3.9-10.805l18.48-33.88C85.275 98.5 87.925 94.97 108.58 95.213l24.388 3.395c8.354 1.163 9.887 7.417 3.404 13.9l-23.57 23.567z" fill="#c75c5c"/><path d="M88.53 156.438c21.142-21.142 38.904-14.692 38.904-14.692s6.455 17.762-14.69 38.904-55.38 36.5-58.046 33.833c-2.583-2.587 12.687-36.904 33.833-58.045z" fill="#e0995e"/><path d="M106.204 138.758c21.142-21.14 38.904-14.69 38.904-14.69s6.454 17.762-14.69 38.904-55.38 36.5-58.046 33.833c-2.584-2.583 12.69-36.904 33.833-58.046z" fill="#f5cf87"/><path d="M181.808 146.158c-32.54 32.542-82.43 23.638-82.43 23.638s-8.904-49.884 23.638-82.43 81.846-36.005 88.32-29.53c6.28 6.28 3.016 55.78-29.53 88.32z" fill="#e0e0d1"/><path d="M87.596 187.475c-3.254 3.254-5.584 6.2-8.838 2.946s-.308-5.583 2.946-8.838l41.246-53.033c3.254-3.254 17.37-6.2 20.625-2.946s.308 17.37-2.946 20.625l-53.033 41.246z" fill="#c75c5c"/></g><path d="M153.23 93.008c6.504-6.504 17.065-6.504 23.57 0s6.504 17.066 0 23.57-17.066 6.505-23.57 0-6.505-17.065 0-23.57zm29.464-17.678a8.34 8.34 0 0 1 11.785 0 8.34 8.34 0 0 1 0 11.785 8.34 8.34 0 0 1-11.785 0 8.34 8.34 0 0 1 0-11.785z" fill="#4f5d73"/></svg>