<svg xmlns="http://www.w3.org/2000/svg" width="1334" height="1334" viewBox="0 0 1000 1000"><path d="M496.56 0h6.83c43.5.57 87 6.2 128.95 17.83 73.47 20 142.1 57.32 199 107.86 51.17 45.25 92.95 101.08 121.82 163 26.14 55.88 41.7 116.68 45.62 178.24.9 9.28.63 18.62 1.2 27.92v9.36c-.7 51.5-8.75 102.98-25 151.9-23.56 72.13-64.07 138.6-117.08 192.87-53.5 54.97-119.8 97.46-192.23 122.8-42.63 15-87.34 24.1-132.45 27-9.63.92-19.32.67-28.97 1.22h-7.63c-59.84-.64-119.66-11.5-175.52-33.08-63.36-24.2-121.6-61.62-170.1-109-55-53.52-97.48-119.84-122.82-192.28A495.47 495.47 0 0 1 1.22 533.28C.3 523.35.5 513.37 0 503.42v-6.82C.62 441.7 9.72 386.8 28 335c21.35-61.35 55-118.34 98.16-166.88 41.9-47.17 92.74-86.45 149.15-114.75C343.6 18.66 420.03.7 496.56 0m63.88 281.47C539.53 291 521.3 306.5 509.1 326c-9.5 15-15.34 32.27-16.86 49.95-1.1 12.4.4 24.8.98 37.16-17.5-2.05-35.05-4.12-52.2-8.2-44.1-9.96-85.84-29.75-121.77-57.13-22.43-16.58-41.65-36.87-61.4-56.44-3.3 9.86-7.2 19.55-9.67 29.68-8.34 33.1-2.4 70.08 18.26 97.57 4.46 6.17 10 11.42 14.82 17.3 1.9 2.45 4.1 5.1 3.88 8.42-3.44.76-6.96.17-10.27-.9l-19.83-6.27c-4.3-1.27-8.6-3.04-13.18-2.85-.88 7.4 1.9 14.55 3.23 21.75 3.8 13.1 7.28 26.62 14.7 38.27 10.28 16.3 24.83 29.62 41.07 39.84 9.3 5.87 19.5 10.02 29.3 14.88l-36.15.6c-2.53.25-5.36.2-7.5 1.76-1.5 1.63-.5 3.85-.2 5.74 2.13 7.33 5.8 14.07 10.07 20.37 12.7 17.52 30.37 30.98 49.68 40.5 12.7 6.02 26.22 10 39.44 14.65l-24.43 14.5c-18.3 10.28-38.15 17.78-58.6 22.47-21.1 5.2-42.9 5.45-64.5 6.72-4.5.34-9.1.54-13.37 2.2 6 5.72 14.04 8.5 21.23 12.4 18.17 8.94 37.03 16.44 56.18 23 33.24 10.1 68.1 14.47 102.8 13.6 47.96-1.26 95.9-12.18 138.97-33.48 29.68-14.3 55.93-34.94 78.75-58.55 8.6-9.48 17.53-18.68 25.15-28.98 8.3-9.86 15.2-20.76 22.47-31.37 12.04-18.95 22.2-39.12 29.62-60.32 7.82-23.07 13.77-46.76 18-70.74 2.86-14.88 4-30 4.44-45.13-.04-7.83 4.34-14.74 9.45-20.32 11.64-12.38 23.8-24.27 35.07-37 3.44-4.13 7.47-8.26 8.48-13.76-7 .2-13.4 3.4-20 5.3-7.05 2.14-13.96 4.78-21.1 6.54-3 .54-6.52 1.56-9.13-.57 1.27-4.58 4.5-8.17 7.57-11.65 8.02-9.06 15.67-18.5 21.8-28.97 2.9-5.36 6.52-10.54 7.36-16.72-7.56 1.28-14.03 5.85-21.06 8.7-15.7 6.5-32.04 11.35-48.2 16.57-15.3-10.47-30.44-21.48-47.58-28.8-9.73-4.2-20.47-5.15-30.93-5.78-18.14-.58-36.92 1-53.48 9z" fill="#f0f0f0"/></svg>
