<svg xmlns="http://www.w3.org/2000/svg" width="100%" height="100%" viewBox="0 0 512 512" fill-rule="evenodd" stroke-linejoin="round" stroke-miterlimit="1.41421"><g fill-rule="nonzero"><path d="M230.876 285.856l-111.89 64.733v-25.92l89.513-51.73-22.382-12.92-67.13 38.76V182.424l-81.173-19.09v192.323l.063.015c-.354 4.502 1.186 9.04 4.647 13.188 2.268 2.708 5.334 5.252 9.224 7.5 3.99 2.305 8.537 4.08 13.367 5.396 17.657 4.808 39.274 2.973 53.872-5.456l134.27-77.526-22.38-12.92z" fill="#a0938a"/><path d="M118.985 376.302l134.27-77.515v-193.88l-134.27 77.518v193.878z" fill="#6c7f80"/><path d="M118.985 182.426l-60.01-5.32-7.068-33.47 134.2-77.492 22.382 12.92v7.46l22.337 12.938.04-7.478 22.38 12.92-134.27 77.522z" fill="#faf9e1"/><path d="M76.87 162.6L208.5 86.524v-7.46L76.87 155.14c-1.026.37-4.41 2.868-5.058 3.476-2.9 2.707-3.267 5.818-.973 8.522a10.2 10.2 0 0 1 .973-1.063c.65-.608 4.032-3.107 5.058-3.476" fill="#3f5052"/><path d="M230.876 91.984l-132.628 76.73c-.433.325-2.19 1.306-2.58 1.492-6.355 3.036-15.747 2.88-21.692-.555-5.408-3.122-6.005-7.437-2.16-11.037.646-.608 4.03-3.107 5.054-3.476l131.63-76.075-22.382-12.92L49.38 145.09c-12.636 8.433-14.922 20.242-6.86 29.898 2.268 2.708 5.334 5.247 9.224 7.496 3.99 2.305 8.537 4.085 13.367 5.4 17.657 4.808 39.274 2.97 53.872-5.46l134.27-77.522-22.38-12.92z" fill="#6c7f80"/><path d="M95.667 170.206c-6.355 3.036-15.747 2.88-21.692-.552-5.41-3.122-6.005-7.44-2.163-11.04.474-.44 2.368-1.86 3.767-2.76l-21.767-13.322-4.43 2.562c-12.637 8.43-14.923 20.237-6.86 29.894 2.264 2.707 5.333 5.247 9.223 7.496 3.99 2.305 8.538 4.088 13.368 5.4 17.656 4.808 39.273 2.973 53.87-5.46L97.428 169.23c-.672.395-1.507.854-1.76.977" fill="#c0b7a6"/><path d="M353.327 356.7L253.03 414.603v-69.787l39.864-23.016-20.145-11.633-19.72 11.387V127.698l-118.7-30.01V407c-.015 1.996.2 3.988.67 5.964 2.074 8.54 8.798 16.78 20.178 23.352 11.308 6.53 25.48 10.357 40.18 11.585 20.252 1.685 41.46-1.656 57.672-10.033l6.445-3.72 113.99-65.818-20.14-11.633z" fill="#97b555"/><path d="M253.033 437.867l120.436-69.592V58.164l-120.436 69.533v310.17z" fill="#729551"/><path d="M353.327 46.532L234.334 115.23c-16.768 8.844-42.76 8.612-58.985-.757-16.69-9.634-17.59-24.72-.9-34.358.056-.026 1.037-.664 1.03-.7l117.416-67.79L272.75 0 154.9 68.045c3.144-1.813 6.52-3.424 10.07-4.83-3.442 1.376-6.72 2.95-9.8 4.722-16.463 9.507-23.188 22.5-20.178 34.858 2.074 8.544 8.798 16.783 20.178 23.355 11.308 6.527 25.48 10.357 40.18 11.585 20.252 1.685 41.46-1.66 57.672-10.037l6.445-3.72 113.99-65.814-20.14-11.633z" fill="#bbd18a"/><path d="M292.894 11.633L175.35 79.58l-4.968 3.304c-11.242 8.773-10.43 20.618 1.454 29.282l1.794 1.216c.57.366 1.112.74 1.72 1.09 15.538 8.974 40.016 9.545 56.784 1.81l7.986-4.4 106.498-61.484-53.723-31.315v-7.46z" fill="#faf9e1"/><path d="M170.382 90.343l4.968-3.3L292.895 19.09v-7.46L175.35 79.583l-4.968 3.3c-6.7 5.236-9.093 11.57-7.422 17.664 1-3.6 3.442-7.098 7.422-10.205" fill="#729551"/><path d="M451.807 413.5l-111.89 64.73V452.3l89.513-51.73-22.378-12.923-67.135 38.762V232.614l-81.173-19.093.067 269.78c-.358 4.502 1.186 9.045 4.647 13.19 2.264 2.707 5.33 5.25 9.224 7.5 4 2.305 8.537 4.08 13.367 5.397 17.656 4.808 39.27 2.973 53.868-5.456L474.19 426.41l-22.382-12.92z" fill="#526a70"/><path d="M339.916 503.932l134.273-77.515V155.092l-134.273 77.522v271.318z" fill="#c97724"/><path d="M339.916 232.613l-60.01-5.318-7.064-33.475 134.2-77.488 22.378 12.92v7.46l22.34 12.938.037-7.48 22.382 12.923-134.273 77.522z" fill="#faf9e1"/><path d="M297.8 212.786l131.63-76.078v-7.46l-131.63 76.08c-1.022.37-4.405 2.864-5.05 3.476-2.894 2.704-3.27 5.818-.98 8.522.287-.358.608-.716.98-1.062.645-.612 4.028-3.107 5.05-3.477" fill="#c97724"/><path d="M451.807 142.17L319.18 218.9c-.433.324-2.186 1.305-2.58 1.492-6.352 3.036-15.743 2.88-21.692-.556-5.408-3.122-6.005-7.437-2.156-11.036.645-.608 4.028-3.107 5.05-3.473l131.63-76.078-22.378-12.92-136.74 78.947c-12.632 8.433-14.92 20.24-6.855 29.897 2.264 2.708 5.33 5.252 9.224 7.497 4 2.305 8.537 4.084 13.367 5.4 17.656 4.807 39.27 2.972 53.868-5.457l134.273-77.522-22.382-12.923z" fill="#fdc86d"/><path d="M316.598 220.393c-6.352 3.036-15.743 2.88-21.692-.556-5.408-3.12-6.005-7.437-2.156-11.036.47-.44 2.36-1.86 3.763-2.76l-21.766-13.322-4.435 2.558c-12.632 8.433-14.92 20.24-6.855 29.898 2.264 2.707 5.33 5.25 9.224 7.496 4 2.305 8.537 4.084 13.367 5.4 17.656 4.808 39.27 2.973 53.868-5.46l-21.554-13.196c-.67.395-1.5.854-1.764.977" fill="#6c7f80"/><g fill="#f05555"><path d="M407.058 201.3l-9.1-.75-1.35 7.116 10.44-6.367zm-20.658-1.705l-42.604-3.514v8.553l22.26 12.826v-6.12l20.345-11.745zm13.2-7.6l-13.2 7.62 11.57.955 1.63-8.575zm-26.087 29.785l-7.46-4.297v107.793l7.46 4.225 23.105-121.816-23.105 14.095z"/><path d="M396.62 207.674l1.35-7.116-11.57-.955-20.346 11.75v6.12l7.46 4.297 23.105-14.095z"/></g><path d="M373.513 213.216v116.278l33.54-19.365.004-116.278-33.545 19.365z" fill="#ce3e3d"/><path d="M343.795 196.1l29.718 17.127 33.545-19.37-29.666-17.153-33.597 19.395z" fill="#ff8484"/></g></svg>