<svg xmlns="http://www.w3.org/2000/svg" width="100%" height="100%" viewBox="0 0 512 512" fill-rule="evenodd" stroke-linejoin="round" stroke-miterlimit="1.41421"><g fill-rule="nonzero"><path d="M119.552 0l-68.22 39.478L392.468 236.44l68.2-39.497L119.552 0z" fill="#fdc86d"/><path d="M392.467 236.44V512l68.196-39.345.004-275.713-68.2 39.497z" fill="#c97724"/><path d="M392.467 236.44L51.333 39.477v275.57L153.67 374.13l68.23 118.158 68.234-39.372-11.867-6.85L392.467 512V236.44z" fill="#ed9f32"/><path d="M307.467 306.2c0-30.655-21.528-67.938-48.074-83.262-15.236-8.796-28.813-8.436-37.62-.746-8.808-17.86-22.384-33.895-37.62-42.7-26.55-15.327-48.074-2.9-48.074 27.76 0 .455.023.917.03 1.372-.008.353-.03.68-.03 1.035 0 48.27 85.695 172.564 85.695 172.564s85.695-25.344 85.695-73.61c0-.357-.023-.713-.03-1.07l.03-1.342" fill="#e5e3c3"/></g></svg>