<svg xmlns="http://www.w3.org/2000/svg" width="100%" height="100%" viewBox="0 0 512 512" fill-rule="evenodd" stroke-linejoin="round" stroke-miterlimit="1.41421"><g fill-rule="nonzero"><path d="M285.548 477.853l206.923-119.42-266.043-153.635-206.9 119.454 266.02 153.602z" fill="#e9e8e6"/><path d="M315.11 426.664l88.687-51.195-206.682-119.213-88.915 50.952 206.9 119.456z" fill="#6c7f80"/><path d="M197.114 256.256L108.2 307.208l5.64 3.183 83.275-47.566v-6.57z" fill="#3f5052"/><path d="M398.212 378.69l5.583-3.222-206.682-119.213v6.57l201.1 115.866z" fill="#526a70"/><path d="M196.883 221.855l266.03 153.613V170.67L196.87 17.068l.013 204.787z" fill="#d4d0cd"/><path d="M462.912 170.668L196.872 17.066 226.43 0l266.044 153.6-29.56 17.07z" fill="#e9e8e6"/><path d="M285.55 512v-34.146L19.526 324.252v34.133L285.55 512z" fill="#d4d0cd"/><path d="M226.428 204.644L433.35 324.2V187.732L226.428 68.266v136.378z" fill="#62acd9"/><path d="M270.37 93.635l-43.943 43.944v27.658l61.48-61.476-17.536-10.126zm129.765 74.92l-24.266-14.008-86.546 86.542 24.27 14 86.543-86.543m-97.17-56.092l-76.538 76.535v15.808l42.954 24.788 86.553-86.55-52.97-30.582z" fill="#84cdeb"/><path d="M232.997 72.06l-6.57-3.794v136.533l6.57-3.794V72.06z" fill="#6388a3"/><path d="M226.428 204.798L433.35 324.202v-7.08L232.997 201.004l-6.57 3.794z" fill="#84cdeb"/><path d="M315.224 387.286l-26.61-15.342 26.437-15.076 26.45 15.247-26.276 15.17zM259.11 354.93l26.4-15.098 26.243 15.134-26.433 15.076-26.2-15.112zm-29.48-16.997l26.26-15.177 26.325 15.177-26.4 15.1-26.184-15.1zm-3.284-1.895l-26.154-15.08 26.272-15.168 26.14 15.07-26.26 15.178zm-29.442-16.974l-26.263-15.142 26.256-15.177 26.28 15.148-26.272 15.17zm151.165 53.05l22.193-12.813-3.288-1.895-22.2 12.813-26.427-15.237 22.32-12.727-3.3-1.902-22.315 12.727-26.253-15.138 22.275-12.737-3.297-1.9-22.272 12.738-26.34-15.188 22.148-12.8-3.288-1.89-22.144 12.8-26.14-15.072 22.147-12.8-3.288-1.892-22.147 12.787-26.28-15.155 22.124-12.8-3.288-1.892-22.12 12.8-22.032-12.7-3.3 1.885 22.05 12.715-26.256 15.177-22.207-12.806-3.304 1.89 22.23 12.816-27.918 16.136 3.285 1.895 27.918-16.14 144.58 83.364-28.034 16.183 3.285 1.898 28.033-16.186 27.938 16.1 3.284-1.898-27.937-16.107L344.784 374l27.942 16.1 3.284-1.895-27.94-16.1z" fill="#7d8e8f"/><path d="M315.224 390.57l-26.61-15.342 26.437-15.075L341.5 375.4l-26.276 15.17zm-56.115-32.355l26.4-15.1 26.243 15.135-26.433 15.076-26.2-15.112zm-29.48-16.997l26.26-15.178 26.325 15.178-26.4 15.098-26.184-15.098zm-3.284-1.896l-26.154-15.08 26.272-15.167 26.14 15.07-26.26 15.177zm-29.442-16.974l-26.263-15.14 26.256-15.178 26.28 15.148-26.272 15.17zM348.07 375.4l22.193-12.813-3.288-1.895-22.2 12.813-26.427-15.237 22.32-12.727-3.3-1.902-22.315 12.728-26.253-15.14 22.275-12.737-3.297-1.898-22.272 12.737-26.34-15.187 22.148-12.8-3.288-1.892-22.144 12.8-26.14-15.073 22.147-12.8-3.288-1.89-22.147 12.786-26.28-15.155 22.124-12.79-3.288-1.892-22.12 12.8-22.032-12.702-3.3 1.886 22.05 12.714-26.256 15.178-22.207-12.807-3.304 1.89 22.23 12.816-27.918 16.137 3.285 1.895 27.918-16.14 144.58 83.363-28.034 16.183 3.285 1.9 28.033-16.186 27.938 16.1 3.284-1.898-27.937-16.108 26.275-15.17 27.942 16.11L376 391.5l-27.94-16.11z" fill="#526a70"/><path d="M491.804 153.632l-28.89 17.036v204.824l-177.365 102.36.003 34.146L492.474 392.38l-.67-238.75z" fill="#b1b1b3"/></g></svg>