<svg xmlns="http://www.w3.org/2000/svg" width="534" height="534" viewBox="0 0 400 400"><path d="M0 0h400v400H0V0m252.44 97.54c-3.64 1.2-7.2 2.63-10.5 4.58l-.75.25c-3.48.5-6.9 1.4-10.1 2.83-4.7 2.08-9.7 3.34-14.2 5.85-1.96.56-3.86 1.3-5.7 2.15-6.86 1.1-12.8 4.97-19.5 6.64-9.9 3.2-19.68 6.75-29.33 10.6v2.2c3.83 2.03 7.8 3.8 11.94 5.08 5.26 2.98 11.2 4.84 15.84 8.83 2.28 1.06 4.8.84 6.85-.64 5.96-3.68 12.13-7 18.17-10.55L208.6 133l8.24-1.67-.17-1.95-8.66-5.84 2.34-1.1 2.16 1.27c2.25 2.03 5.18 2.86 8.1 3.3l-.6-5 4.23 2.88c.24-4.47.38-8.94.93-13.4 1.43 3.96 1.86 8.15 2.3 12.3l1.85-.4c1.87-3.9 4.1-7.67 7.17-10.77-1.2 4.28-2.83 8.4-4.34 12.58 4.44-1.53 8.56-3.97 11.73-7.46l1.23-.96 2.25 2.25c-5.2 2.02-8.43 6.74-11.6 11.04l10.6.6c-2.54 1.77-5.3 3.2-8.1 4.47 2.67 1.64 5.5 3.04 8.48 4l4.2 2.24c-1.06.2-2.12.37-3.16.65-3.58-2.02-7.7-2.34-11.73-2.47l3.83 7.37-7.72-3.4c.25 5.17.96 10.3 1.6 15.43-2.5-4.6-4.03-9.8-7.64-13.75-1.6 3.03-2.68 6.3-3.32 9.66l-2.32 6.04 2.4.96c7.56 5.72 16.74 8.6 24.9 13.32 2.55 1.56 5.43 2.46 8.42 2.68 1.1-8.36 3.17-16.54 4.86-24.8l5.93-28.93c2.53-11.26 5.02-22.55 6.73-33.96-7.45 1.36-14.18 4.97-21.3 7.32m-47.7 52.18c-.5.95-1.1 2.62.16 3.27 4.06 2.82 8.78 4.5 13.3 6.44 1.6-4.76 2.32-9.77 2.4-14.8-3.52 2.84-6.75 6.04-10.54 8.53 1.75-4.26 4.3-8.1 6.12-12.34-4.42 2-8.76 4.74-11.43 8.9m-56.12 23.9c-11 8-22.8 14.95-32.95 24.1-11.35 10.07-21.88 21.5-28.66 35.2-4.17 8.4-7.56 17.97-5.48 27.42 1.65 9.02 7.9 16.68 15.5 21.53 4.18 4.66 10.26 6.73 15.9 9.07 18.9 7.7 39.47 9.32 59.56 11.37 23.37 1.35 46.76-1 69.9-4.1 21.93-3.34 44.18-8.62 63.06-20.76 5.75-3.42 10.3-8.67 13.17-14.68 1.77-3.66 1.2-8.1-.95-11.46-4.04-6.56-10.5-11.28-17.4-14.48-12.88-5.9-26.86-8.87-40.76-11.2-1.65-.53-2.8.7-3.82 1.77 8.72 2.8 17.9 4.4 26.1 8.7 6.97 3.6 14.5 7.34 18.82 14.18 3 6.3-.52 13.62-5.57 17.72-11.94 10-27.4 14.12-42.25 17.67-7.02 1.9-14.36 1.84-21.45 3.42-3.14.77-6.4.57-9.5-.3 8.12-2.35 16.55-3.5 24.58-6.22 9.35-3.05 19.25-6.63 25.7-14.46 3.8-4.4 3.27-11.43-.7-15.56-7.74-8.6-19.24-12.24-30.2-14.58-5.17-1.1-10.43-.04-15.53.9 7.88 5.42 17.77 7.8 24.4 15.04 3.35 3.07 3.57 8.6 1 12.22-3.76 5.5-9.76 8.86-15.8 11.3-6.9 2.9-13.95 5.62-21.4 6.8-8.4 1.32-16.83 3.84-25.42 2.83 9.87-4.4 21.2-5.12 30.36-11.23 4.02-2.63 8.52-6.48 8.17-11.77-.3-4.68-4.5-7.67-8.27-9.7-8.58-4.4-18.22-6.44-27.8-6.98.4 4.9 5.5 7.07 7.9 10.87 2.38 3.04 2 7.38-.03 10.5-3.76 5.88-10.3 9.38-16.87 11.22-15.06 4.28-31.28 2.97-46.1-1.7-5.34-1.6-9.85-5-14.97-7.1-4.9-4.18-10-8.95-11.46-15.48-1.32-6.1-1.22-12.52-.18-18.66 2.38-10.7 9-19.7 15.33-28.4 5.07-7.75 11.6-14.37 18.02-21 11.07-9.65 22.03-19.5 34.06-27.96 2.75-1.87 5.26-4.08 7.43-6.6-12.88 4.84-23.66 13.7-35.45 20.6z" fill="#fff"/><g fill="#63a2d9"><path d="M252.44 97.54c7.13-2.35 13.86-5.96 21.3-7.32-1.7 11.4-4.2 22.7-6.73 33.96l-5.93 28.93c-1.7 8.25-3.76 16.43-4.86 24.8-3-.22-5.87-1.12-8.42-2.68-8.16-4.7-17.34-7.6-24.9-13.32 10.9 4.38 21 10.47 31.78 15.15 2.64-10.12 4.3-20.46 6.65-30.65l11.35-54.62c-10.55 2.54-20.2 7.76-30.76 10.34 3.3-1.95 6.87-3.38 10.5-4.58zm-21.37 7.66c3.2-1.43 6.63-2.33 10.1-2.83-4.7 1.8-9.33 3.8-13.98 5.73l1.12 7.05a155.13 155.13 0 0 0 9-4.34l.53 9.36c2.04-.75 4.08-1.5 6.05-2.42-3.17 3.5-7.3 5.93-11.73 7.46 1.5-4.17 3.15-8.3 4.34-12.58-3.07 3.1-5.3 6.86-7.17 10.77l-1.85.4c-.45-4.16-.88-8.35-2.3-12.3-.55 4.45-.7 8.92-.93 13.4l-4.23-2.88.6 5c-2.93-.44-5.86-1.27-8.1-3.3.88-2.7 1.25-5.73 3.12-7.96 1.32-.72 2.75-1.22 4.15-1.77l2.08 5 1.96-9.65-6.96 1.73c4.5-2.5 9.5-3.77 14.2-5.85zm14.07 11.6c2.8-2.53 6-4.55 9.56-5.78-1.75 3.25-4.4 5.8-7.3 8.03l-2.25-2.25zm-53.47 3.04c6.7-1.67 12.64-5.55 19.5-6.64-3.43 1.63-6.87 3.22-10.37 4.68 3.24 1.4 6.5 2.8 9.56 4.56l-2.34 1.1c2.85 2 5.75 3.92 8.66 5.84l.17 1.95-8.24 1.67 6.53 2.38-18.17 10.55c-2.06 1.48-4.57 1.7-6.85.64 7.47-1.3 13.42-6.1 19.66-10.03-3.87-.45-7.7-1.2-11.46-2.16 4.22-1.74 8.8-3.52 11.05-7.8-3.57-2.35-6.92-5.2-10.98-6.67-3.03-.66-6 .8-8.82 1.67-8.6 3.38-17.5 5.9-25.86 9.85l10.57 6.32c-4.15-1.27-8.1-3.05-11.94-5.08v-2.2c9.65-3.85 19.44-7.4 29.33-10.6zm44.1 10.24c3.18-4.3 6.42-9.02 11.6-11.04-2.46 2.23-4.57 4.8-6.66 7.37l7.42 4.16-1.4 8.6c-3-.97-5.8-2.37-8.48-4 2.8-1.27 5.56-2.7 8.1-4.47-3.53-.28-7.07-.43-10.6-.6zm.3 9.5c4.02.13 8.15.45 11.73 2.47-4.57 1.83-6.3 6.88-9.7 10.08-2.68 2.36-3.25 5.95-3.8 9.3l-4.55-5.55-3.46 2-3.48-2.97c.64-3.37 1.72-6.63 3.32-9.66 3.6 3.94 5.13 9.15 7.64 13.75-.63-5.13-1.34-10.26-1.6-15.43l7.72 3.4-3.83-7.37zm19.62 87.82c1.02-1.08 2.17-2.3 3.82-1.77 13.9 2.34 27.88 5.3 40.76 11.2 6.9 3.2 13.36 7.92 17.4 14.48 2.15 3.37 2.72 7.8.95 11.46-2.87 6-7.42 11.26-13.17 14.68-18.88 12.14-41.13 17.42-63.06 20.76-23.15 3.1-46.54 5.45-69.9 4.1-20.1-2.05-40.67-3.66-59.56-11.37-5.63-2.34-11.7-4.4-15.9-9.07 15.13 9.03 32.33 14.02 49.72 16.3 9.17 1.72 18.5 2.18 27.8 2.37 12.02 1 24.1.66 36.1-.27 7.44-.83 14.8-2.28 22.28-2.7-4.95-2.3-9.93-4.66-15.3-5.77-5.87-1.25-11.55-3.67-17.63-3.64-7.36-.1-14.85 2.1-22.08-.25 5.23-3.26 11.44-3.84 17.28-5.3l-6.87-.16-.26-2.25c-11.16 2.75-22.8 4.96-34.3 3.13-11.57-1.72-23.97-4.06-32.9-12.2 5.12 2.1 9.63 5.5 14.97 7.1 14.8 4.66 31.03 5.97 46.1 1.7 6.57-1.84 13.1-5.34 16.87-11.22 2.03-3.12 2.4-7.46.03-10.5-2.4-3.8-7.5-5.98-7.9-10.87 9.6.54 19.23 2.58 27.8 6.98 3.77 2.04 7.97 5.03 8.27 9.7.35 5.3-4.15 9.14-8.17 11.77-9.15 6.1-20.5 6.82-30.36 11.23 8.6 1 17-1.5 25.42-2.83 7.44-1.17 14.48-3.9 21.4-6.8 6.04-2.43 12.04-5.8 15.8-11.3 2.58-3.6 2.36-9.15-1-12.22-6.62-7.25-16.5-9.62-24.4-15.04 5.1-.94 10.36-2 15.53-.9 10.97 2.34 22.47 6 30.2 14.58 3.96 4.13 4.5 11.15.7 15.56-6.46 7.83-16.36 11.4-25.7 14.46-8.03 2.7-16.46 3.87-24.58 6.22 3.1.86 6.35 1.06 9.5.3 7.1-1.58 14.43-1.53 21.45-3.42 14.84-3.55 30.3-7.68 42.25-17.67 5.05-4.1 8.58-11.42 5.57-17.72-4.32-6.84-11.85-10.6-18.82-14.18-8.2-4.28-17.38-5.9-26.1-8.7z"/></g><g fill="#057dc5"><path d="M241.93 102.12c10.55-2.58 20.2-7.8 30.76-10.34l-11.35 54.62c-2.36 10.2-4 20.53-6.65 30.65-10.77-4.68-20.88-10.77-31.78-15.15l-2.4-.96 2.32-6.04 3.48 2.97 3.46-2 4.55 5.55c.55-3.35 1.12-6.94 3.8-9.3 3.4-3.2 5.13-8.25 9.7-10.08 1.04-.28 2.1-.46 3.16-.65l-4.2-2.24 1.4-8.6-7.42-4.16c2.1-2.56 4.2-5.14 6.66-7.37 2.9-2.22 5.56-4.78 7.3-8.03-3.57 1.23-6.77 3.25-9.56 5.78l-1.23.96c-1.97.92-4 1.67-6.05 2.42l-.53-9.36c-2.96 1.53-5.96 3-9 4.34l-1.12-7.05 13.98-5.73.75-.25zm-25.06 8.93l6.96-1.73-1.96 9.65-2.08-5-4.15 1.77c-1.87 2.23-2.24 5.27-3.12 7.96l-2.16-1.27c-3.07-1.75-6.32-3.16-9.56-4.56 3.5-1.46 6.94-3.05 10.37-4.68 1.84-.85 3.74-1.6 5.7-2.15zm-27.3 10.5c2.82-.88 5.8-2.33 8.82-1.67 4.06 1.46 7.4 4.32 10.98 6.67-2.25 4.3-6.83 6.07-11.05 7.8 3.77.97 7.6 1.7 11.46 2.16-6.24 3.93-12.2 8.72-19.66 10.03-4.65-4-10.58-5.85-15.84-8.83-3.57-2.03-7.07-4.16-10.57-6.32 8.35-3.96 17.27-6.47 25.86-9.85zm15.17 28.16c2.67-4.15 7-6.88 11.43-8.9-1.8 4.23-4.37 8.08-6.12 12.34 3.8-2.5 7.02-5.7 10.54-8.53-.07 5.02-.78 10.03-2.4 14.8-4.52-1.95-9.24-3.62-13.3-6.44-1.27-.65-.65-2.32-.16-3.27zm-56.12 23.92c11.8-6.9 22.57-15.76 35.45-20.6-2.17 2.52-4.68 4.73-7.43 6.6-12.03 8.46-23 18.3-34.06 27.96-6.4 6.63-12.95 13.25-18.02 21-6.34 8.7-12.95 17.7-15.33 28.4-1.04 6.14-1.14 12.55.18 18.66 1.47 6.53 6.57 11.3 11.46 15.48 8.94 8.14 21.34 10.48 32.9 12.2 11.5 1.83 23.13-.38 34.3-3.13l.26 2.25 6.87.16c-5.84 1.45-12.05 2.03-17.28 5.3 7.23 2.36 14.72.14 22.08.25 6.08-.03 11.76 2.4 17.63 3.64 5.37 1.1 10.35 3.48 15.3 5.77-7.48.43-14.84 1.88-22.28 2.7-12 .93-24.08 1.26-36.1.27-9.3-.2-18.63-.65-27.8-2.37-17.4-2.3-34.6-7.28-49.72-16.3-7.6-4.85-13.85-12.5-15.5-21.53-2.08-9.45 1.3-19.03 5.48-27.42 6.78-13.7 17.3-25.13 28.66-35.2 10.14-9.14 21.94-16.1 32.95-24.1z"/></g></svg>