<svg xmlns="http://www.w3.org/2000/svg" width="534" height="534" viewBox="0 0 400 400"><g fill="#fff"><path d="M0 0h400v400H0V0m167.57 110.7c-.2 9.74.05 19.48-.1 29.22L108.7 174v79.97l118.67 68.73c1.44.85 2.94 1.57 4.47 2.27l63.83-36.93.08-177.3-63.88-37.27-64.3 37.23zm13 5l45.76-26.4.01 77.9c-3.58-1.45-6.78-3.6-10.12-5.5l-37.75-22 .05-21.46c-.22-1.36 1.13-1.94 2.05-2.55zm56.83-26l47.26 27.26-.1 164.96-47.16 27.16V89.7zm-114.2 88.43l44.3-25.4v122.52l-44.3-25.45c-1.36-.93-3.57-1.75-3.5-3.73V181.9c-.1-2 2.12-2.85 3.5-3.78zm55.34-25.38l44.27 25.42c1.33.96 3.6 1.78 3.52 3.74l-.03 127.22c-16.1-8.87-31.94-18.22-47.8-27.5l.04-128.9z"/></g><path d="M167.57 110.7l64.3-37.23c21.08 12.78 42.76 24.58 63.88 37.27l-.08 177.3-63.83 36.93c-1.53-.7-3.03-1.42-4.47-2.27L108.7 253.97V174l58.77-34.1.1-29.22m13 5c-.92.6-2.27 1.2-2.05 2.55l-.05 21.46c12.4 7.63 25.2 14.62 37.75 22 3.34 1.9 6.54 4.05 10.12 5.5l-.01-77.9-45.76 26.4m56.85-26l-.1 73.3.1 146.1 47.16-27.16c.08-1.3.13-2.58.15-3.86l-.04-161.1L237.4 89.7M123.2 178.13c-1.4.93-3.62 1.77-3.5 3.78v64.16c-.08 1.98 2.13 2.8 3.5 3.73l44.3 25.45.01-122.52c-14.9 8.22-29.48 17.02-44.3 25.4m55.35-25.38l-.04 128.9 47.8 27.5.03-127.22c.1-1.96-2.2-2.78-3.52-3.74l-44.27-25.42z" fill="#021a66"/></svg>