<svg xmlns="http://www.w3.org/2000/svg" width="100%" height="100%" viewBox="0 0 1600 1244" fill-rule="evenodd" stroke-linejoin="round" stroke-miterlimit="1.41421"><g fill-rule="nonzero">
  <path d="M144.913 301.544H61.78c-20.906 0-38.02 17.11-38.02 38.018v771.488c0 20.906 17.1 38.02 38.02 38.02h647.39v43.147c0 20.906 17.11 38.018 38.02 38.018H852.8c20.906 0 38.02-17.11 38.02-38.018v-43.147h647.4c20.906 0 38.018-17.1 38.018-38.02V339.562c0-20.906-17.11-38.018-44.812-38.018h-1386.5z" fill="#bda463"/><path d="M1455.1 160.528v833.3c0 20.906-17.1 38.018-38.018 38.018h-617.07v-871.31H1455.1m-1310.187.003l-.001 833.3c0 20.906 17.1 38.018 38.02 38.018H800v-871.31H144.912" fill="#949396"/><path d="M776.25 943.112h47.525v88.712H776.25z" fill="#fff8e1"/><g fill="#d7ccc8"><path d="M800 943.112H182.93c-20.906 0-38.02-17.11-38.02-38.018V71.8c0-20.906 17.1-38.02 38.02-38.02H800v909.332z"/><path d="M800 943.112h503.763l151.324-142.593V71.8c0-20.906-17.11-38.02-38.018-38.02H800"/></g><path d="M800 33.784h617.07c20.906 0 38.018 17.1 38.018 38.02V800.52l-151.324 142.593H800V33.784z" fill="#d7ccc8"/><path d="M1303.76 943.112V838.534c0-20.906 17.11-38.018 38.018-38.018h113.306L1303.76 943.113z" fill="#e3f2fd"/><path d="M645.294 374.625H311.312c-20.906 0-38.018-17.11-38.018-38.02v-124.47c0-20.906 17.11-38.018 38.02-38.018h333.98c20.906 0 38.02 17.11 38.02 38.018v124.47c.006 20.938-17.104 38.02-38.016 38.02h-.003z" fill="#fff8e1"/><path d="M528.397 246.53l-47.3 48.775c-7.635 7.875-20.016 8.638-28.563 1.76L420.68 271.42c-7.825-6.303-18.978-6.27-26.75.094l-110.32 91.006c6.95 7.418 16.794 12.103 27.7 12.103h333.985c13.515 0 25.406-7.17 32.187-17.875l-119.35-110.99a21.24 21.24 0 0 0-29.706.769l-.03.006z" fill="#a1887f"/></g><g fill="#fff8e1"><circle cx="1134.38" cy="240.081" r="63.431"/><path d="M1191.06 464.912h-115.04c-17.913 0-32.575-14.687-32.575-32.575v-30.375c0-49.553 40.54-90.093 90.094-90.093s90.093 40.54 90.093 90.093v30.375c0 17.92-14.687 32.575-32.572 32.575z" fill-rule="nonzero"/></g><path d="M800 837.037c13.125 0 23.762-10.64 23.762-23.762V112.487c0-13.125-10.637-23.762-23.762-23.762s-23.763 10.64-23.763 23.762v700.788c0 13.125 10.64 23.762 23.763 23.762zM273.3 505.513l410.022-.001c13.125 0 23.762-10.64 23.762-23.762a23.77 23.77 0 0 0-23.763-23.763H273.3c-13.125 0-23.763 10.64-23.763 23.763s10.638 23.762 23.763 23.762zm0 84.73h410.022c13.125 0 23.762-10.64 23.762-23.763s-10.64-23.762-23.763-23.762H273.3c-13.125 0-23.763 10.64-23.763 23.762s10.638 23.763 23.763 23.763zm0 84.736h215.6c13.125 0 23.763-10.64 23.763-23.762a23.77 23.77 0 0 0-23.763-23.763H273.3c-13.125 0-23.763 10.64-23.763 23.763s10.638 23.762 23.763 23.762zm654.934.001h410.6c13.125 0 23.762-10.64 23.762-23.762s-10.637-23.763-23.762-23.763h-410.6c-13.125 0-23.762 10.64-23.762 23.763s10.637 23.762 23.762 23.762zm0-80.486h410.6c13.125 0 23.762-10.64 23.762-23.763s-10.637-23.762-23.762-23.762h-410.6c-13.125 0-23.762 10.64-23.762 23.762s10.637 23.763 23.762 23.763zm603.186-326.738h-52.575V61.78c0-34.062-27.72-61.78-61.78-61.78H182.924c-34.062 0-61.78 27.72-61.78 61.78v205.975h-59.37c-34.062 0-61.78 27.72-61.78 61.782v771.512c0 34.062 27.72 61.78 61.78 61.78H685.4v19.388c0 34.062 27.72 61.78 61.782 61.78H852.8c34.062 0 61.78-27.72 61.78-61.78v-19.388h623.64c34.062 0 61.78-27.72 61.78-61.78V329.544c0-35.225-29.48-61.788-68.575-61.788zM168.67 955.13a61.47 61.47 0 0 0 14.256 1.728h593.307v41.2H182.926c-7.728 0-14.256-6.562-14.256-14.256V955.13zm655.088 1.728h480c.025 0 .054-.003.08-.003a25.05 25.05 0 0 0 2.225-.109c.38-.038.75-.103 1.125-.156s.75-.094 1.115-.172c.444-.085.875-.203 1.313-.313.293-.075.625-.14.884-.228a23.41 23.41 0 0 0 1.316-.447l.834-.303a23.78 23.78 0 0 0 1.231-.55c.313-.134.563-.262.844-.406a26.61 26.61 0 0 0 1.116-.631l.87-.525 1-.7a17.26 17.26 0 0 0 .862-.644 23.21 23.21 0 0 0 .906-.772c.188-.17.394-.32.582-.494l111.268-104.85V983.82c0 7.728-6.562 14.256-14.256 14.256H823.757V956.86zm503.763-78.812v-49.53c0-7.73 6.563-14.257 14.256-14.257h53.438l-67.694 63.788zM168.67 61.78c0-7.728 6.562-14.256 14.256-14.256h1234.14c7.728 0 14.256 6.562 14.256 14.256v704.95h-89.547c-34.062 0-61.78 27.72-61.78 61.78v80.813H182.925c-7.728 0-14.256-6.563-14.256-14.256V61.78zm1383.8 1039.24c0 7.728-6.563 14.256-14.256 14.256H890.82c-13.125 0-23.763 10.64-23.763 23.763v43.15c0 7.728-6.562 14.256-14.256 14.256H747.2c-7.728 0-14.256-6.563-14.256-14.256v-43.15c0-13.125-10.64-23.763-23.763-23.763H61.777c-7.728 0-14.256-6.562-14.256-14.256V329.54c0-7.728 6.562-14.257 14.256-14.257h59.37v668.513c0 34.062 27.72 61.78 61.78 61.78h1234.14c34.062 0 61.78-27.72 61.78-61.78V315.28h52.575c12.788 0 21.05 5.625 21.05 14.257l-.003 771.484zM266.3 368.802c.054.063.12.1.172.172 11.27 11.875 27.172 19.388 44.822 19.388H645.3c21.984 0 41.275-11.582 52.225-28.925l.46-.754c5.93-9.655 9.068-20.768 9.062-32.1V202.115c0-34.063-27.718-61.782-61.78-61.782H311.3c-34.062 0-61.78 27.72-61.78 61.782v124.468c0 16.244 6.35 31 16.64 42.04.053.056.094.125.147.178h-.007zm68.46-27.97l72.594-59.687 45.312 36.516c9.563 7.703 23.416 6.875 31.963-1.97l59.1-60.897 92.494 86-301.452.028zm-23.438-152.978h333.985c7.728 0 14.256 6.563 14.256 14.257v95.518l-100.5-93.46c-9.47-8.806-24.234-8.425-33.24.86l-60.168 62.047-43.482-35.012a23.77 23.77 0 0 0-29.928.093l-61.687 50.547-33.494 27.657V202.1c.003-7.725 6.562-14.25 14.26-14.25v-.007zM1076.02 478.65h115.044c31.062 0 56.33-25.275 56.33-56.334V391.94c0-38.916-19.638-73.325-49.516-93.866 14.675-15.6 23.697-36.6 23.697-59.67 0-48.08-39.12-87.203-87.203-87.203s-87.197 39.12-87.197 87.203c0 22.72 8.74 43.438 23.03 58.97-30.443 20.46-50.522 55.2-50.522 94.563v30.375c0 31.062 25.272 56.334 56.335 56.334v.003zm58.353-279.925c21.875 0 39.678 17.8 39.678 39.678s-17.803 39.675-39.678 39.675-39.675-17.8-39.675-39.678 17.8-39.675 39.675-39.675zm-67.166 193.213c0-36.575 29.757-66.332 66.332-66.332s66.33 29.757 66.33 66.332v30.375a8.98 8.98 0 0 1-8.8 8.812h-115.043c-4.808-.068-8.743-4.005-8.8-8.812v-30.375z" fill-rule="nonzero" fill="#37474f"/></svg>
