<svg xmlns="http://www.w3.org/2000/svg" width="100%" height="100%" viewBox="0 0 5559 5559" fill-rule="evenodd" stroke-linejoin="round" stroke-miterlimit="1.41421"><path d="M2760.9 70.745h40.085c234.55 3.413 469 33.802 695.143 96.637C3894.005 275.6 4265.6 477.767 4573.818 751.426c277.342 245.166 503.766 547.75 660.096 883.216 139.213 297.764 223.337 621.312 245.817 949.247 5.958 59.044 4.983 118.36 7.8 177.565v35.047c-3.25 279.292-46.423 558.584-133.96 824.064-127.566 392.342-347.382 754.024-635.666 1049.08-290.668 298.63-651.105 529.334-1044.8 666.27-280.917 99.13-578.52 148.422-876.12 151.672h-43.118c-338.553-4.55-676.834-69.606-990.578-197.715-365.366-147.338-697.148-376.633-965.552-665.026-285.143-305.51-498.62-677.647-616.166-1078.76-72.315-242.783-107.633-495.858-110.774-748.932v-35.535c3.412-341.153 68.577-682.143 197.714-998.324 130.655-323.927 325.553-621.583 569.202-871.678C1068.038 654.36 1342.24 459.354 1642.55 320.79 1991.6 157.96 2376.043 74.38 2760.91 70.75m-13 1003.74c-202.48 3.36-404.53 42.793-592.873 117.383-382.43 149.505-706.465 442.556-892.966 808.464-224.42 430.856-249.175 959.43-67.386 1409.73 148.422 375.55 435.785 693.898 794.11 880.13 195.82 103.19 412.44 166.08 632.687 186.88 212.774 19.61 429.23-.975 634.313-60.885 342.073-98.154 650.4-308.38 868.482-589.46 239.424-304.427 368.183-693.193 359.462-1080.28-4.66-260.28-69.715-519.475-189.752-750.612-184.444-358.92-501.275-646.988-875.362-797.738-212.124-86.128-441.906-128.11-670.714-123.667v.054zm-311.576 289.26c251.612-59.802 519.15-53.844 766.645 22.21 198.257 59.802 382.646 163.588 538.1 300.2-57.256 79.465-128.596 147.555-202.807 210.932-165.322 137.48-357.403 239.64-557.718 316.073-162.18-294.893-345.053-578.194-544.23-849.36v-.054zm-875.904 619.253c145.876-224.528 355.67-406.263 597.478-521.1 195.656 269.38 376.47 549.593 540.818 839.23-111.317 28.6-223.174 55.1-336.116 76.54-121.662 24.918-244.84 41.168-367.64 58.665-212.665 25.838-426.576 42.684-640.92 42.576 37.917-176.047 107.145-345.594 206.38-495.966v.054zm2343.54-128.92c35.75 47.83 73.94 94.09 104.22 145.822 34.94 51.35 61.915 107.253 90.245 162.397 20.042 49.185 43.55 97.124 58.664 148.15 50 146.06 76.334 299.18 78.003 453.553-222.416-44.148-449.165-65.11-675.806-66.898-113.05-.38-226.1 6.337-338.4 19.717-39.543-96.962-83.04-192.298-128.162-286.822 206.22-85.26 403.013-195.765 575.918-337.47 85.586-71.936 167.597-149.234 235.308-238.504v.054zm-1791.9 823.685c238.882-33.855 475.5-84.123 707.006-152.32 41.184 81.598 80.556 164.1 118.087 247.44-116.84 33.693-230.378 78.924-338.66 134.23l-101.295 55.902c-180.1 105.737-344.24 237.8-489.25 388.01-117.546 122.42-224.8 255.458-312.173 401.063-140.567-156.764-247.55-343.807-308.922-545.476-47.16-153.36-68.434-313.513-62.944-473.866 263.692 2.438 527.06-19.5 788.15-55.035v.054zm1197.5 269c220.9-34.45 447.16-29.522 667.355 8.125 81.253 12.675 161.422 32.068 240.237 55.252-30.876 189.264-98.478 372.68-200.044 535.455-107.904 174.964-254.05 325.877-424.14 441.364-63.485-354.26-162.505-701.48-283.41-1040.3v.11zm-1087.38 548.51c232.166-217.486 514.87-376.904 814.53-481.124 135.746 358.595 243.757 728.35 311.09 1106.12-225.883 95.01-475.87 133.958-719.682 106.874-217.215-22.643-429.176-94.903-614.27-210.715-45.664-26-86.67-59.044-129.625-89 84.61-163.372 204.757-306.052 338.01-432.047l-.054-.11z" fill="#f0f0f0" fill-rule="nonzero"/></svg>