<svg xmlns="http://www.w3.org/2000/svg" width="100%" height="100%" viewBox="0 0 5559 5559" fill-rule="evenodd" stroke-linejoin="round" stroke-miterlimit="1.41421"><path d="M2759.94 70.85h38.026c190.344 2.87 380.797 22.37 566.7 64.188 404.414 88.402 787.16 272.788 1109.46 532.466 305.884 245.38 557.6 557.925 731.802 909.2 157.52 316.717 251.553 664.85 274.63 1017.8 5.417 55.142 4.117 110.5 7.042 165.752v42.63c-4.496 368.013-81.36 735.702-231.62 1071.97-164.778 373.755-416.44 708.402-728.28 971.98-320.67 271.92-705.422 468.007-1114.5 565.346-201.178 49.075-408.097 72.313-615.017 75.292h-37.7c-344.884-3.52-689.39-70.634-1008.5-202.153-360.755-147.877-688.468-375-953.997-660.41-268.67-287.63-473.64-634.625-594.866-1009.14-69.01-212.444-111.477-433.556-125.885-656.617-4.984-53.517-3.684-107.36-6.5-160.986v-37.917c3.25-252.528 38.46-505.057 110.6-747.24C292.828 1632.388 490.54 1277.7 754.118 981.403c257.566-290.174 577.858-524.665 933.196-680.776 336.705-149.6 704.5-225.986 1072.62-229.778m-804.386 1484.03c3.36 68.955 22.75 135.96 49.022 199.444-33.476 34.126-67.276 68.576-92.302 109.527-36.725 53.355-58.067 115.54-73.667 177.885-35.047 145.71-37.647 296.405-38.73 445.42 2.058 152.915 40.463 308.213 127.402 435.506 70.742 106.7 172.144 191.103 285.19 250.09 126.048 66.464 266.07 102.268 406.96 119.44-32.284 32.122-51.46 74.48-66.518 116.73-21.396 61.21-34.125 125.668-35.75 190.67-113.2 44.634-242.345 51.46-358.047 11.917-81.143-27.354-153.294-79.3-206.757-146.035-38.62-44.417-61.86-99.668-100.534-143.923-56.876-68.088-136.34-122.3-226.637-130.164-36.292-1.788-74.318-7.8-109.418 4.766-10.996 3.25-15.71 17.01-8.45 26.326 25.62 40.192 77.297 51.676 105.518 89.376 81.793 95.876 147.335 204.645 201.503 318.125 74.588 147.986 221.165 256.754 384.317 285.3 105.356 21.884 214.07 11.592 318.776-8.45l.108 410.047h819.5l-.217-698.055c.92-66.464-13.433-132.17-33.15-195.274-15.71-47.125-34.126-95.334-69.226-131.627 90.784-11.375 181.2-29.25 267.695-59.692 130.273-44.417 253.34-115.377 348.73-215.478 70.634-73.668 124.856-162.88 157.627-259.462 39-110.772 49.292-229.778 44.417-346.51-2.708-149.502-10.833-301.93-60.125-444.28-27.788-82.172-81.36-152.644-143.327-212.174 8.883-24.808 19.608-48.967 26.867-74.318 42.792-143.814 25.458-300.304-29.955-438.214-71.5 6.175-136.393 40.897-195.003 80.168-85.26 60.45-153.618 141.377-212.01 227.286-28.167-26-63.267-43.334-99.343-55.52-99.126-31.417-203.344-40.842-306.587-45.068-146.632-2.98-294.67-3.9-439.2 23.834-63.538 14.625-130.706 30.876-179.836 76.7-58.067-85.313-125.776-165.644-210.17-226.04-58.934-39.813-124.206-74.968-196.303-81.414-39.434 99.126-60.397 206.378-52.217 313.088l-.163.054z" fill="#f0f0f0" fill-rule="nonzero"/></svg>