<svg xmlns="http://www.w3.org/2000/svg" width="100%" height="100%" viewBox="0 0 5559 5559" fill-rule="evenodd" stroke-linejoin="round" stroke-miterlimit="1.41421"><path d="M2758.58 70.836h43.915c189.973 3.252 380.055 22.88 565.582 64.842 404.18 88.806 786.565 273.628 1108.55 533.377 288.104 231.72 528.335 522.86 700.362 850.215 174.792 331.15 279.212 699.278 303.88 1072.93 35.132 495.21-68.746 999.96-299.923 1439.6-181.515 348.61-440.56 656.393-752.3 895.648-332.886 256.713-726.71 434.108-1139.9 512.125-292.496 55.842-594.208 62.728-889.143 21.47-373.82-52.047-736.253-184.226-1055.86-384.933-311.09-194.473-581.846-452.975-790.794-754.524-249.936-359.235-410.686-780.277-461.92-1214.98-13.228-100.408-17.457-201.738-20.276-302.85v-39.85l2.602-90.703c14.638-384.663 111.956-766.29 285.88-1109.8 257.85-515.215 685.398-943.467 1200.34-1202.08 369.86-188.563 784.18-286.315 1199-290.49m-1510.35 1492.9c6.94 23.692 10.517 49.174 24.397 70.2 10.734 16.048 23.855 30.36 36.108 45.324l208.84 251.833c14.638 18.27 31.174 35.24 41.963 56.222 12.47 27.922 11.548 59.26 11.927 89.186l-.162 1312.8c2.385 43.2-17.62 83.763-44.89 116.022l-309.41 374.85-.813 51.18h890.985l-.76-51.126-294.61-356.632c-21.145-25.482-42.722-51.722-53.566-83.493-7.807-19.735-7.86-41.204-8.295-62.13l-.162-1152.25 781.686 1705.63 91.083.163 671.193-1705.63.65 1320c-1.193 27.65 2.33 56.548-7.6 83.06-9.76 18.163-27.108 30.524-40.825 45.38-70.914 71.674-143.672 141.287-216.322 211.28l-2.168 50.963 1175.67-.163-3.47-51.83-210.358-207.43c-13.012-13.933-28.735-25.86-38.06-42.668-11.928-27.812-8.512-58.824-9.922-88.372l.326-1550.4c.325-37.084-1.518-74.44 3.47-111.306 3.253-24.505 23.855-40.228 39.577-57.09 67.228-70.48 142.805-132.667 209.003-204.07 7.97-19.41 12.144-40.12 18.704-60.017l-832.378-.38-588.73 1469.58-669.947-1469.53c-291.03-.433-582.117-.108-873.148.922v-.054z" fill="#f0f0f0" fill-rule="nonzero"/></svg>