<svg xmlns="http://www.w3.org/2000/svg" width="683" height="683" viewBox="0 0 512 512"><path d="M18.3 35.24c5.18-4.4 12-6.56 18.76-6.56L474 28.67c5.42-.04 10.85 1.3 15.52 4.07 8.46 4.78 13.5 14.62 13.07 24.24v310.98c0 4.34.1 8.68-.36 13-1.7 6.2-4.88 12.18-10.17 16.04-5.14 3.9-11.63 5.9-18.07 5.75-49.88 0-99.76.03-149.63-.02 2.74 21.12 21.18 39.3 42.56 40.84 9.44 1.27 18.97.2 28.45.8 15.45 1.53 28.2 16.12 27.73 31.63-.5 3.86-4.17 7.18-8.16 6.6-106 0-211.98.01-317.97-.01-3.74.42-7.77-2.7-7.7-6.58-1.15-16.35 13.5-31.42 29.67-31.77 13-.44 26.46 1.2 39-3.1 16.3-5.84 28.8-21.2 30.93-38.43l-143.92.03c-7.03.02-14.44.5-20.9-2.84-9.9-4.4-15.62-15.32-15.37-25.9V56.97c-.02-8.14 3.27-16.45 9.6-21.73m5.05 20.73l-.01 256.28 464.76-.12-.02-255.18c.44-7.1-5.7-14.08-12.96-13.7-146.05-.01-292.1-.07-438.15.04-7.03-.67-13.86 5.58-13.62 12.67m-.06 271.1l.08 48.96c-.02 6.97 6.82 12.62 13.6 12.26l437.05.03c4.57.24 9.2-1.83 11.74-5.7 2.7-3.62 2.26-8.4 2.35-12.65-.2-14.45.3-28.9-.27-43.35-11.3.2-22.6-.3-33.87.45-4.97-.65-9.98-.28-14.97-.36-126.32-.01-252.64 0-378.97-.01-12.22.57-24.53-.65-36.75.37M203.6 403.6c-.2 4.22-1.54 8.27-2.77 12.28-3.3 9.7-8.9 18.58-16.34 25.62-.9.95-2.15 1.4-3.3 1.97 2.24.37 4.5.8 6.77.73l62.02-.13 81.96.1c-7.27-5.53-12.72-13.16-16.7-21.3-2.8-6.12-4.7-12.63-5.64-19.3l-106 .03m-97.92 64.46l284.33.07c5.55-.1 11.13.3 16.66-.36-2-3.2-4.66-6.1-8.23-7.56-4.16-2.13-8.95-1.5-13.45-1.55-87.68.15-175.36-.08-263.04.01-6.63-.1-13.4 3.2-16.27 9.4zM251.4 347.67c6.83-3.38 16.1 2.64 15.37 10.33.4 3.68-1.74 7-4.6 9.12-2.8 2.26-6.72 1.8-10.06 1.42-4.46-1.33-7.72-5.9-7.58-10.56-.07-4.4 2.72-8.74 6.87-10.3z" fill="#393536"/><path d="M23.34 55.97c-.24-7.1 6.6-13.34 13.62-12.67l438.15-.04c7.27-.4 13.4 6.6 12.96 13.7l.02 255.18-464.76.12.01-256.28zM203.62 403.6l106-.03a69.5 69.5 0 0 0 5.64 19.3c3.97 8.15 9.42 15.78 16.7 21.3-27.32 0-54.64.2-81.96-.1l-62.02.13c-2.28.06-4.53-.36-6.77-.73 1.15-.57 2.4-1.02 3.3-1.97 7.43-7.04 13.05-15.93 16.34-25.62 1.23-4 2.58-8.06 2.77-12.28z" fill="#fdf5e1"/><path d="M23.28 327.08c12.22-1.02 24.53.2 36.75-.37l378.97.01c5 .08 10-.3 14.97.36 11.26-.76 22.58-.25 33.87-.45.58 14.44.07 28.9.27 43.35-.1 4.26.36 9.03-2.35 12.65-2.53 3.87-7.17 5.94-11.74 5.7-145.68-.04-291.37.03-437.05-.03-6.8.36-13.63-5.3-13.6-12.26l-.08-48.96m228.1 20.6c-4.15 1.57-6.94 5.9-6.87 10.3-.14 4.66 3.12 9.23 7.58 10.56 3.34.38 7.26.84 10.06-1.42 2.86-2.1 5-5.44 4.6-9.12.72-7.7-8.54-13.7-15.37-10.33zm-145.7 120.4c2.88-6.18 9.64-9.5 16.27-9.4l263.04-.01c4.5.06 9.3-.58 13.45 1.55 3.57 1.45 6.22 4.36 8.23 7.56-5.53.66-11.1.25-16.66.36-94.77-.05-189.55.1-284.33-.07z" fill="#908f99"/></svg>