<svg xmlns="http://www.w3.org/2000/svg" width="100%" height="100%" viewBox="0 0 512 512" fill-rule="evenodd" stroke-linejoin="round" stroke-miterlimit="1.41421"><path d="M162.3 207.598c33.32-31.134 34.135-79.092 32.552-125.623l-92.527-38.128c-5.5-2.26-10.434-2.112-14.142.138L49.168 66.38l41.94 21.174L162.3 207.598zm61.807-150.8l66.588-38.447c-4.277-6.364-9.654-11.706-15.323-14.98-6.485-3.746-12.564-4.346-17.06-1.97v-.004l-39.016 22.4 17.64 10.874-12.827 22.136zM344.86 166.76l-191.565 110.6-6.847 41.512c-1.586 9.533 2.2 22.3 9.74 32.88 4.273 6.002 9.326 10.7 14.4 13.65 3.902 2.25 7.834 3.466 11.404 3.385l48.027-.988 216.908-125.235L344.86 166.76z" fill-rule="nonzero" fill="#ffed8e"/><path d="M344.86 166.76l-.828-.617-46.677-134.526c-1.617-4.66-3.915-9.167-6.662-13.254L224.108 56.8l-17.4 30.044-11.844-4.88c1.582 46.535.767 94.493-32.553 125.627l1.962 3.307-10.97 66.455 191.565-110.6zm123.332 107.308c-2.876-11.75-10.55-23.542-19.8-30.414l-1.466-1.087-216.908 125.23 45.34-.932 74.54 87.608 9.584 55.503 37.468-21.497c5.916-2.928 8.727-10.672 7.326-20.744l-17.83-128.54 75.535-40.137c6.68-3.562 9.08-13.245 6.2-25" fill-rule="nonzero" fill="#e6ac00"/><path d="M429.455 296.295c-2.88-11.75-10.55-23.54-19.8-30.414l-104.37-77.51-46.682-134.527c-4.13-11.913-12.663-22.86-21.98-28.237-9.326-5.39-17.837-4.277-21.967 2.868L167.96 109.08 63.59 66.077c-9.24-3.798-16.897-.858-19.78 7.563-2.88 8.416-.48 20.876 6.196 32.15l75.522 127.344-17.82 107.967c-1.583 9.533 2.203 22.3 9.744 32.88 4.273 6.002 9.326 10.7 14.41 13.655 3.902 2.246 7.835 3.462 11.405 3.38l93.367-1.923 93.364 109.73c3.583 4.213 7.502 7.537 11.413 9.792 5.08 2.928 10.132 4.062 14.396 2.984 7.554-1.867 11.327-10.275 9.744-21.636L347.72 361.422l75.535-40.137c6.68-3.56 9.08-13.245 6.2-25" fill="#fed544" fill-rule="nonzero"/></svg>