<svg xmlns="http://www.w3.org/2000/svg" xmlns:xlink="http://www.w3.org/1999/xlink" viewBox="0 0 64 64"><path d="M55.8 30c3.43 0 6.2 3.58 6.2 8s-2.78 8-6.2 8-6.2-3.58-6.2-8 2.78-8 6.2-8zm0 16c3.43 0 6.2 3.58 6.2 8s-2.78 8-6.2 8-6.2-3.58-6.2-8 2.78-8 6.2-8z" fill="#a3796a"/><g fill="#826458"><path d="M49.6 30h6.2c-3.42 0-6.2 3.58-6.2 8 0-4.42-2.78-8-6.2-8h6.2zm6.2 16H43.4c3.43 0 6.2-3.58 6.2-8 0 4.42 2.78 8 6.2 8z"/><path d="M43.38 46h12.4c-3.42 0-6.2 3.58-6.2 8 0-4.42-2.78-8-6.2-8zM55.8 62H43.4c3.43 0 6.2-3.58 6.2-8 0 4.42 2.78 8 6.2 8z"/></g><path d="M48.76 14C52.2 14 55 17.58 55 22s-2.8 8-6.24 8-6.26-3.58-6.26-8 2.8-8 6.26-8z" fill="#a3796a"/><path d="M9.17 14h39.6c-3.46 0-6.26 3.58-6.26 8s2.8 8 6.26 8h-5.38a5.12 5.12 0 0 0-.87.08v-.08H9.17C6.86 30 5 26.42 5 22s1.86-8 4.17-8z" fill="#826458"/><g fill="#a3796a"><path d="M43.38 30c3.43 0 6.2 3.58 6.2 8s-2.78 8-6.2 8-6.2-3.58-6.2-8c0-4 2.32-7.38 5.34-7.92a5.12 5.12 0 0 1 .87-.08z"/><ellipse cx="43.38" cy="54" rx="6.21" ry="8"/></g><g fill="#826458"><path d="M43.38 46H6.14C3.85 46 2 42.42 2 38s1.85-8 4.14-8H42.5v.08c-3 .54-5.34 3.88-5.34 7.92.01 4.42 2.84 8 6.22 8z"/><path d="M10.28 46h33.1c-3.43 0-6.2 3.58-6.2 8s2.78 8 6.2 8H6.14C3.85 62 2 58.42 2 54s1.85-8 4.14-8z"/></g><g fill="none"><g stroke-width="2" stroke-miterlimit="10" stroke="#5d4037"><path d="M6.14 46C3.85 46 2 49.58 2 54s1.85 8 4.14 8h37.24m12.42 0c3.43 0 6.2-3.58 6.2-8s-2.78-8-6.2-8"/><path d="M43.38 46c-3.43 0-6.2 3.58-6.2 8s2.78 8 6.2 8m-33.1-32H42.5m6.26-16H9.17C6.86 14 5 17.58 5 22s1.86 8 4.17 8M9 18h7"/><path d="M21 26h11.08M9 26h7m-5-4h3m22-4h3m-2 8h2m-19-4h4m-5-4h12.04M28 22h9m11.76-8c-3.46 0-6.26 3.58-6.26 8s2.8 8 6.26 8S55 26.42 55 22s-2.8-8-6.24-8z"/></g><g stroke-width="2" stroke-miterlimit="10" stroke="#b38474"><use xlink:href="#A"/><use xlink:href="#A" x="-5.25" y="16"/><use xlink:href="#A" x="7.25" y="16"/><use xlink:href="#A" x="-5.25" y="32"/><use xlink:href="#A" x="7.25" y="32"/></g><g stroke-width="2" stroke-miterlimit="10" stroke="#5d4037"><path d="M55.8 46c-3.42 0-6.2 3.58-6.2 8 0-4.42-2.78-8-6.2-8m6.2 8c0 4.42 2.78 8 6.2 8H43.4c3.43 0 6.2-3.58 6.2-8zM10.28 30H6.14C3.85 30 2 33.58 2 38s1.85 8 4.14 8h37.24"/><path d="M6 34h8m0 8h13M6 42h6m-5-4h4m19-4h4.07M29 42h4m-18-4h6m-4-4h10m-2 4h5.97M6 50h8m0 8h13M6 58h6m-5-4h4m19-4h4.07M29 58h4m-18-4h6m-4-4h10m-2 4h5.97m24.83-8c3.43 0 6.2-3.58 6.2-8s-2.78-8-6.2-8m-12.42 0a5.12 5.12 0 0 0-.87.08c-3 .54-5.34 3.88-5.34 7.92 0 4.42 2.78 8 6.2 8m.01-16h12.4c-3.42 0-6.2 3.58-6.2 8 0-4.42-2.78-8-6.2-8zm6.22 8c0 4.42 2.78 8 6.2 8H43.4c3.43 0 6.2-3.58 6.2-8z"/></g></g><defs><path id="A" d="M48.75 17.5c-1.66 0-3 2-3 4.5s1.34 4.5 3 4.5 3-2 3-4.5-1.34-4.5-3-4.5z"/></defs></svg>
