<?xml version="1.0" encoding="UTF-8"?>
<!DOCTYPE svg  PUBLIC '-//W3C//DTD SVG 1.1//EN'  'http://www.w3.org/Graphics/SVG/1.1/DTD/svg11.dtd'>
<svg clip-rule="evenodd" fill-rule="evenodd" stroke-linejoin="round" stroke-miterlimit="1.4142" version="1.1" viewBox="0 0 1113 1113" xml:space="preserve" xmlns="http://www.w3.org/2000/svg"><g fill-rule="nonzero"><path d="m639.25 579.96c-28.764 28.769-123.68 319.14-123.68 319.14 80.991-45.017 306.06-208.77 304.99-300.41l-15.072-108.21c-5.16-37.07-32.908-43.872-61.672-15.107l-104.56 104.58v0.013zm-92.877-92.877c-28.764 28.764-327.31 153.43-327.31 153.43 45.012-80.987 216.94-335.81 308.58-334.73l108.21 15.063c37.065 5.16 43.867 32.908 15.103 61.672l-104.58 104.56h-9e-3z" fill="#00baa0"/><path d="m335.54 689.32c88.091-88.092 162.1-61.217 162.1-61.217s26.895 74.009-61.209 162.1c-88.104 88.092-230.75 152.08-241.86 140.97-10.763-10.779 52.862-153.77 140.97-241.85h-4e-3z" fill="#e0995e"/><path d="m409.18 615.66c88.092-88.083 162.1-61.208 162.1-61.208s26.892 74.008-61.208 162.1-230.75 152.08-241.86 140.97c-10.767-10.763 52.875-153.77 140.97-241.86l-5e-3 -5e-3z" fill="#f5cf87"/><path d="m806.06 560.7c-135.58 135.59-343.46 98.491-343.46 98.491s-37.1-207.85 98.491-343.46c135.59-135.61 341.02-150.02 368-123.04 26.167 26.167 12.567 232.42-123.04 368l8e-3 9e-3z" fill="#c0e7ff" fill-opacity=".6"/><path d="m757.53 608.99c-135.58 135.59-343.46 98.491-343.46 98.491s-37.1-207.85 98.492-343.46c135.59-135.61 341.02-150.02 368-123.04 26.166 26.167 12.566 232.42-123.04 368l8e-3 9e-3z" fill="#4f5d73"/><path d="m391.84 754.17c-11.197 11.196-19.214 21.333-30.411 10.137-11.196-11.197-1.06-19.211 10.137-30.411l115.95-201.09c11.197-11.196 85.735-2.724 96.935 8.473 11.2 11.196 19.662 81.563 8.466 92.763l-201.08 120.13z" fill="#00baa0"/></g><path d="m725.59 335.39c16.722-16.722 43.874-16.722 60.598 0 16.725 16.721 16.722 43.876 0 60.598-16.721 16.721-43.876 16.724-60.598 0-16.721-16.725-16.724-43.874 0-60.598z" fill="#c0e7ff"/><path d="m623.24 437.74c16.722-16.722 43.874-16.722 60.598 0 16.725 16.721 16.722 43.876 0 60.598-16.721 16.721-43.876 16.724-60.598 0-16.721-16.724-16.724-43.874 0-60.598z" fill="#c0e7ff"/></svg>
