<?xml version="1.0" encoding="UTF-8" standalone="no"?><!DOCTYPE svg PUBLIC "-//W3C//DTD SVG 1.1//EN" "http://www.w3.org/Graphics/SVG/1.1/DTD/svg11.dtd"><svg width="100%" height="100%" viewBox="0 0 330 168" version="1.1" xmlns="http://www.w3.org/2000/svg" xmlns:xlink="http://www.w3.org/1999/xlink" xml:space="preserve" xmlns:serif="http://www.serif.com/" style="fill-rule:evenodd;clip-rule:evenodd;stroke-linejoin:round;stroke-miterlimit:1.41421;"><rect x="0" y="21.25" width="25.625" height="25.625" style="fill:#d9d9d9;"/><rect x="31.563" y="21.25" width="25.625" height="25.625" style="fill:#d9d9d9;"/><rect x="62.813" y="21.25" width="25.625" height="25.625" style="fill:#d9d9d9;"/><rect x="94.375" y="21.25" width="25.625" height="25.625" style="fill:#d9d9d9;"/><rect x="0" y="52.813" width="25.625" height="25.625" style="fill:#d9d9d9;"/><rect x="31.563" y="52.813" width="25.625" height="25.625" style="fill:#d9d9d9;"/><rect x="62.813" y="52.813" width="25.625" height="25.625" style="fill:#d9d9d9;"/><rect x="94.375" y="52.813" width="25.625" height="25.625" style="fill:#d9d9d9;"/><rect x="0" y="84.375" width="25.625" height="25.625" style="fill:#d9d9d9;"/><rect x="31.563" y="84.375" width="25.625" height="25.625" style="fill:#d9d9d9;"/><rect x="62.813" y="84.375" width="25.625" height="25.625" style="fill:#d9d9d9;"/><rect x="94.375" y="84.375" width="25.625" height="25.625" style="fill:#d9d9d9;"/><rect x="209.375" y="21.25" width="25.625" height="25.625" style="fill:#d9d9d9;"/><rect x="240.938" y="21.25" width="25.625" height="25.625" style="fill:#d9d9d9;"/><rect x="272.188" y="21.25" width="25.625" height="25.625" style="fill:#d9d9d9;"/><rect x="303.75" y="21.25" width="25.625" height="25.625" style="fill:#d9d9d9;"/><rect x="209.375" y="52.813" width="25.625" height="25.625" style="fill:#d9d9d9;"/><rect x="240.938" y="52.813" width="25.625" height="25.625" style="fill:#d9d9d9;"/><rect x="272.188" y="52.813" width="25.625" height="25.625" style="fill:#d9d9d9;"/><rect x="303.75" y="52.813" width="25.625" height="25.625" style="fill:#d9d9d9;"/><rect x="209.375" y="84.375" width="25.625" height="25.625" style="fill:#d9d9d9;"/><rect x="240.938" y="84.375" width="25.625" height="25.625" style="fill:#d9d9d9;"/><rect x="272.188" y="84.375" width="25.625" height="25.625" style="fill:#d9d9d9;"/><rect x="303.75" y="84.375" width="25.625" height="25.625" style="fill:#d9d9d9;"/><rect x="161.25" y="129.688" width="6.875" height="37.813" style="fill:#404040;"/><rect x="120" y="62.5" width="89.688" height="6.563" style="fill:#404040;"/><path d="M197.813,115l0,-100.313c0,-8.124 -6.563,-14.687 -14.688,-14.687l-36.562,0c-8.125,0 -14.688,6.562 -14.688,14.688l0,100.312c0,8.125 6.563,14.688 14.688,14.688l36.562,0c8.125,0 14.688,-6.563 14.688,-14.688Z" style="fill:#737373;"/></svg>