<svg xmlns="http://www.w3.org/2000/svg" viewBox="0 0 1280 1200.79"><style><![CDATA[.A{fill:#fff}.A,.B{opacity:0.3}.B,.C{fill:#66baf2}.C{opacity:0.62}]]></style><circle class="A" cx="683.82" cy="963.26" r="4.06"/><circle class="A" cx="1069.31" cy="912.12" r="4.06"/><circle class="B" cx="294.27" cy="453.34" r="4.06"/><circle class="A" cx="1275.94" cy="40.66" r="4.06"/><circle class="A" cx="1215.06" cy="218.57" r="4.06"/><circle class="A" cx="652.22" cy="28.49" r="4.06"/><circle class="A" cx="777.57" cy="241.13" r="4.06"/><circle class="A" cx="332.83" cy="4.06" r="4.06"/><circle class="A" cx="4.06" cy="260.78" r="4.06"/><circle class="A" cx="166.41" cy="107.25" r="4.06"/><circle class="A" cx="1275.94" cy="954.96" r="4.06"/><circle class="A" cx="1018.93" cy="77.2" r="4.06"/><circle class="C" cx="484.62" cy="157.49" r="4.06"/><circle class="A" cx="1259.71" cy="1196.73" r="4.06"/><circle class="A" cx="80.59" cy="434.82" r="4.06"/><circle class="B" cx="1241.44" cy="414.63" r="4.06"/><circle class="A" cx="855.41" cy="111.31" r="4.06"/><circle class="A" cx="64.36" cy="846.09" r="4.06"/><circle class="A" cx="131.04" cy="1186.11" r="4.06"/><circle class="A" cx="331.67" cy="1023.77" r="4.06"/><circle class="B" cx="1179.77" cy="625.84" r="3.56"/><circle class="A" cx="250.33" cy="701.86" r="3.56"/><circle class="C" cx="349.59" cy="908.56" r="3.56"/><circle class="A" cx="639.33" cy="647.86" r="3.56"/><circle class="A" cx="824.33" cy="752.86" r="3.56"/></svg>