<svg xmlns="http://www.w3.org/2000/svg" width="534" height="534" viewBox="0 0 400 400"><g fill="#fff"><path d="M0 0h400v400H0V0m175.47 89.4c-12.63 9.27-22.2 21.83-31.45 34.3-9.14-1.1-18.4-1.9-27.57-.76-8.76 1.53-17.57 4.2-24.7 9.72-13.8 9.15-20.73 26.15-20.28 42.36-.06 18.16 8.46 35.1 19.4 49.12 1.48 2.36 4.34 4.68 3.38 7.77-2.65 11.52-5.1 23.22-5.02 35.1-.23 11.2.87 23.05 6.96 32.76 4.1 7.46 11.26 12.87 19.14 15.83 8.17 2.98 17.03 2.06 25.53 1.72 12.37-1.73 24.26-5.9 35.7-10.8 7.7-3.36 14.87-7.73 22.4-11.4 7.73 3.4 14.87 7.97 22.64 11.28 14.96 6.42 30.88 12.02 47.4 11.3 10.96.53 22-4.12 29.22-12.37 3.28-4.23 5.93-9 7.72-14.04 5.2-16.66 3.36-34.45-.06-51.26-.7-3.55-2.07-7.1-1.65-10.77 1.93-3.87 5-7.04 7.36-10.66 7.03-10.3 12.8-21.83 14.52-34.3 1.75-13.07.5-27.24-6.97-38.47-6.35-10.57-17.33-17.8-29.1-21-11.65-3.72-24.02-2.4-35.94-1.2-6.3-8.5-12.5-17.2-20.13-24.6-9.24-9.04-20.2-17.88-33.54-19.18-9.22-.3-17.76 4.27-25 9.57zm19.95 10.9c4.3-2.16 8.93.43 12.63 2.63 10.7 7 18.8 17.18 26.53 27.18-6.7 3.74-13.82 6.83-20 11.46-5.44 3.47-10.16 7.9-15.53 11.45-5.33-4.04-10.45-8.35-16.03-12.04-5.9-4.26-12.56-7.27-19.04-10.5 1.72-3.86 4.9-6.76 7.53-10 6.77-7.93 14.12-16.05 23.9-20.2zm-92.64 48.48c8.38-5.88 19.06-7.74 29.1-6.72-1.8 4.57-4.73 8.55-6.9 12.93-8.08 15.04-15.22 30.57-21.14 46.58-.7 1.12-.68 3.62-2.57 3-3.3-4.62-5.76-9.84-7.7-15.17-2.8-7.1-2.5-14.92-1.98-22.4 1.63-7 5.08-14.07 11.2-18.2zm164.17-6.83c10.03-.64 20.73.97 29 7.08 8.28 6.14 12.03 16.92 11.35 26.97-.08 10.32-4.84 19.75-9.83 28.5l-1.76.18c-6.66-18.3-14.74-36.1-24.23-53.1-1.8-3.05-3.83-6.08-4.52-9.63zm-117.52 9.6c.92-1.65 2.1-3.14 3.38-4.53 14.45 6.23 27.76 15.13 38.74 26.42 2.73 2.98 7.08 3.9 10.9 2.8 3.15-1.18 5.27-3.92 7.7-6.1 10.03-9.28 21.53-17 34.03-22.52 2.13-1.06 3.1 1.82 4.16 3.1 13.6 23.07 25.34 47.44 33.07 73.13-3.75 5.05-8.63 9.1-13.32 13.24-12 10.36-24.75 20.04-39.03 27.04-9.66 4.83-20.06 9.4-31.1 9-8.28-.23-16.14-3.15-23.62-6.5-20.05-9.34-37.78-23.05-53.56-38.43-1.65-1.83-4.4-3.83-3.2-6.64 7.92-24.43 18.75-47.92 31.86-70zm-38.53 95.82c3.1 2.45 5.85 5.28 8.78 7.92 14.7 13.35 31.56 24.15 49.5 32.56-11.17 4.98-22.87 9.35-35.15 10.4-6.1.26-13.08-.03-17.7-4.58-4.2-3.68-6.06-9.22-6.94-14.57-1.74-10.55-.18-21.28 1.5-31.73zm165.5 10c3.7-3.15 6.8-7.03 11.07-9.46 2.28 13.16 4.16 27.5-1.42 40.12-2.54 5.93-8.6 9.85-15 10.14-14.68 1.03-28.76-4.6-41.98-10.34a196.58 196.58 0 0 0 47.32-30.46z"/></g><path d="M175.47 89.4c7.23-5.3 15.77-9.88 25-9.57C213.8 81.13 224.76 89.97 234 99c7.63 7.4 13.82 16.1 20.13 24.6 11.92-1.2 24.3-2.52 35.94 1.2 11.76 3.2 22.74 10.44 29.1 21 7.46 11.23 8.72 25.4 6.97 38.47-1.7 12.47-7.5 24-14.52 34.3-2.36 3.62-5.43 6.8-7.36 10.66-.42 3.67.95 7.22 1.65 10.77 3.42 16.8 5.25 34.6.06 51.26-1.8 5.05-4.44 9.8-7.72 14.04-7.22 8.25-18.26 12.9-29.22 12.37-16.52.72-32.44-4.88-47.4-11.3-7.77-3.3-14.9-7.9-22.64-11.28-7.54 3.66-14.72 8.03-22.4 11.4-11.44 4.9-23.33 9.08-35.7 10.8-8.5.34-17.36 1.26-25.53-1.72-7.88-2.96-15.05-8.37-19.14-15.83-6.1-9.7-7.2-21.56-6.96-32.76-.1-11.88 2.37-23.58 5.02-35.1.96-3.1-1.9-5.4-3.38-7.77C79.93 210.1 71.4 193.17 71.47 175c-.45-16.2 6.47-33.2 20.28-42.36 7.13-5.5 15.94-8.2 24.7-9.72 9.18-1.14 18.43-.35 27.57.76 9.25-12.46 18.82-25.02 31.45-34.3m19.95 10.9c-9.8 4.14-17.14 12.26-23.9 20.2-2.63 3.23-5.8 6.13-7.53 10 6.48 3.23 13.13 6.24 19.04 10.5 5.58 3.7 10.7 8 16.03 12.04 5.37-3.54 10.1-7.98 15.53-11.45 6.18-4.63 13.3-7.72 20-11.46-7.74-10-15.83-20.17-26.53-27.18-3.7-2.2-8.32-4.8-12.63-2.63m-92.64 48.48c-6.1 4.14-9.56 11.2-11.2 18.2-.53 7.48-.82 15.3 1.98 22.4 1.94 5.33 4.4 10.55 7.7 15.17 1.9.63 1.87-1.87 2.57-3 5.92-16 13.06-31.54 21.14-46.58 2.17-4.38 5.1-8.36 6.9-12.93-10.04-1.02-20.72.84-29.1 6.72m164.17-6.83c.7 3.55 2.7 6.58 4.52 9.63 9.5 17 17.57 34.8 24.23 53.1l1.76-.18c5-8.75 9.75-18.18 9.83-28.5.68-10.05-3.07-20.83-11.35-26.97-8.26-6.1-18.96-7.72-29-7.08m-117.52 9.6c-13.1 22.1-23.94 45.58-31.86 70-1.2 2.8 1.56 4.8 3.2 6.64 15.78 15.38 33.5 29.1 53.56 38.43 7.48 3.34 15.34 6.26 23.62 6.5 11.03.4 21.43-4.16 31.1-9 14.28-7 27.04-16.68 39.03-27.04 4.7-4.15 9.57-8.2 13.32-13.24-7.73-25.7-19.46-50.06-33.07-73.13-1.06-1.28-2.03-4.16-4.16-3.1-12.5 5.53-24 13.24-34.03 22.52-2.42 2.2-4.54 4.93-7.7 6.1-3.82 1.08-8.17.17-10.9-2.8-10.98-11.3-24.3-20.2-38.74-26.42-1.28 1.4-2.46 2.88-3.38 4.53m-38.52 95.82c-1.7 10.45-3.25 21.18-1.5 31.73.88 5.35 2.74 10.9 6.94 14.57 4.62 4.55 11.6 4.84 17.7 4.58 12.28-1.05 23.98-5.42 35.15-10.4-17.94-8.4-34.8-19.2-49.5-32.56-2.93-2.64-5.7-5.47-8.78-7.92m165.48 10a196.58 196.58 0 0 1-47.32 30.46c13.22 5.75 27.3 11.37 41.98 10.34 6.4-.3 12.45-4.2 15-10.14 5.58-12.63 3.7-26.96 1.42-40.12-4.27 2.43-7.38 6.3-11.07 9.46z" fill="#20b6ea"/></svg>