<svg xmlns="http://www.w3.org/2000/svg" width="534" height="534" viewBox="0 0 400 400"><path d="M0 0h400v400H0V0m176.65 83.66l-70.9 41.02c-5.86 3.53-12.05 7.25-15.66 13.28 6.3 6.47 12.55 13 19.15 19.17 2.74.17 6.1 1.68 8.4-.48l26.08-20.68c-1.58-3.44-2.78-7.14-2.36-11 .27-10.58 12.22-18.97 22.25-15.37 7.32 1.9 12.3 9.08 12.8 16.42-.1 3.36-1.5 6.5-2.35 9.7l25.55 37.74 1.52.22c7.06-18.2 14.9-36.08 22.23-54.16.47-1.37-.52-2.73-.74-4.07-.92-2.53.9-5.64-1.3-7.74l-24.67-32.6c-7.4.6-13.64 5.08-19.98 8.54M200.22 75l23.02 30.78c1.75 2.85 5.46 3.72 8.54 3.82 5.56-3.04 10.76-6.72 16.36-9.72-8.4-5.44-17.3-10.1-25.88-15.22-7-3.86-13.86-8.8-22.04-9.66M235 111.1c-2.6 1.43-2.97 4.8-5.28 6.5-1.75 1.3-3.74 2.52-4.43 4.73l-22.87 54.84c1.5 2.56 3.14 5.04 4.84 7.48l37.05 54.16c2.1-.14 4.22-.26 6.34-.32 5.54-19.72 9.77-39.8 15.25-59.54-4.3-3.85-8.38-8.8-8.3-14.9-.42-8.2 5.7-15.26 13.17-17.86-.94-7.66-3.12-15.1-4.43-22.7-1.06-4.88-1.7-9.9-3.26-14.64-3.43-3.27-8.03-5-12.04-7.45L235 111.1m31.5-.92c2.8 11.8 4.63 23.78 7.57 35.53 2.17.33 4.36.52 6.5 1.02 3.84 1.07 6.66 4.06 9.53 6.66l18.77-11.86c-2.18-5.54-6.43-9.9-11.44-13-10.1-6.48-20.68-12.1-30.93-18.34m-146.34 47.96c-3.3 2.03-4.05 6.02-5.6 9.27-.01 3.04 1.15 5.95 1.7 8.9l12.63 57.5 2.26-.04 17.66-92.7c-1-.95-2-1.9-2.97-2.9-8.77 6.37-17 13.45-25.67 19.96M88.8 140.9c-.9 3.6-1.55 7.3-1.45 11.04l.06 96.08c-.05 7.24 2.8 14.52 8.55 19.1 6.63-2.7 13.1-5.78 19.5-9-1.12-4.6-1.54-9.68.87-13.96 1.9-4.3 5.95-6.9 9.7-9.4-3.9-19.6-8.6-39.02-12.67-58.6-.6-2.52-1-5.1-1.96-7.52-1.35-1.6-3.2-2.73-4.4-4.44-.75-2.16.53-5-1.47-6.65-5.6-5.53-10.97-11.27-16.7-16.64m69.6 3.5L140.46 236c2.24 1.82 4.36 3.78 6.4 5.8l28.8-19.04c2.26-1.17 2.16-3.93 3.2-5.95 1.8-2.23 5.58-2.27 6.44-5.3l8.62-20.74c.7-1.8 1.63-3.55 1.76-5.5-1.35-2.85-3.4-5.3-5.1-7.9L166.8 142.3l-8.43 2.08m133.04 11.52c1.6 5.58 2.14 12.08-1.42 17.05-3.06 5.18-8.9 7.68-14.6 8.56-5.35 19.8-9.86 39.82-15.13 59.64 3.96 4.26 7.17 9.35 7.42 15.33 6.95 1.04 13.97 1.6 20.94 2.5 6.1.75 12.16 1.88 18.33 1.86 3.3-6.4 3.1-13.83 3.3-20.84v-84c.01-3.7-.45-7.4-.8-11.08-6.15 3.44-11.92 7.5-18.03 11m-93.9 33.38l-9.7 23.43c-1.54 3.04-.22 7.1 2.82 8.64l43.66 26.42c.57-1 1.2-1.97 1.9-2.9l-35.86-53.2c-.8-.96-1.28-2.6-2.8-2.4m-19.07 35.3c-10.23 6.3-20.07 13.28-30.2 19.76 1.6 4.95 2.28 10.66-.46 15.37-1.85 4.18-5.8 6.7-9.45 9.17l10.5 28.14c.7 2.24 3 3.16 4.84 4.28l29.2 16.76c5.5 2.93 11.55 6 17.98 5.24 7.18-1.23 13.42-5.2 19.65-8.74l33.26-19.16c.07-7.1-1.82-14-2.63-21.03l-5.68-1.23c-6.1-1.3-10.87-6.46-12.68-12.3-.77-3.48-.27-7.07-.14-10.6L188 223.2c-3 1.56-6.32 1.2-9.55 1.4m84 43.88c-2.3 2.32-5.36 3.67-8.25 5.1.7 6.58 2 13.07 2.6 19.67 9.7-4.9 18.86-10.8 28.35-16.1 6.7-4.12 14.08-7.53 19.6-13.3-12.34-1.34-24.7-2.65-36.97-4.53-1.6 3.14-2.88 6.53-5.32 9.14m-163.42.98c15.4 9.44 31.28 18.02 46.74 27.35-3.7-9-6.7-18.24-10.26-27.3-3.08-.05-6.23.08-9.17-.97-4-1.25-6.83-4.56-9.5-7.6-6 2.67-12.1 5.24-17.8 8.52z" fill="#2b764a"/><g fill="#fff"><path d="M176.65 83.66c6.34-3.46 12.58-7.93 19.98-8.54 8.46 10.7 16.32 21.83 24.67 32.6 2.2 2.1.38 5.2 1.3 7.74.22 1.34 1.2 2.7.74 4.07L201.1 173.7l-1.52-.22-25.55-37.74c.86-3.2 2.24-6.34 2.35-9.7-.5-7.34-5.47-14.53-12.8-16.42-10.03-3.6-21.98 4.8-22.25 15.37-.42 3.85.78 7.55 2.36 11l-26.08 20.68c-2.3 2.16-5.65.65-8.4.48-6.6-6.16-12.85-12.7-19.15-19.17 3.6-6.03 9.8-9.75 15.66-13.28l70.9-41.02zM200.22 75c8.18.85 15.03 5.8 22.04 9.66 8.6 5.13 17.48 9.78 25.88 15.22-5.6 3-10.8 6.68-16.36 9.72-3.08-.1-6.8-.97-8.54-3.82L200.22 75zM235 111.1l16.03-9.7c4 2.45 8.6 4.18 12.04 7.45 1.57 4.75 2.2 9.76 3.26 14.64 1.3 7.6 3.5 15.03 4.43 22.7-7.47 2.6-13.6 9.67-13.17 17.86-.07 6.1 4 11.06 8.3 14.9-5.48 19.74-9.7 39.82-15.25 59.54a167.43 167.43 0 0 0-6.34.32l-37.05-54.16c-1.7-2.44-3.33-4.92-4.84-7.48 7.9-18.16 15.2-36.58 22.87-54.84.7-2.2 2.68-3.42 4.43-4.73 2.3-1.7 2.7-5.06 5.28-6.5zm31.48-.93c10.25 6.23 20.84 11.86 30.93 18.34 5 3.1 9.26 7.47 11.44 13-6.14 4.13-12.5 7.92-18.77 11.86-2.87-2.6-5.7-5.6-9.53-6.66-2.14-.5-4.33-.7-6.5-1.02-2.94-11.75-4.78-23.74-7.57-35.53zm-146.34 47.96c8.67-6.5 16.9-13.6 25.67-19.96a135.58 135.58 0 0 0 2.97 2.9l-17.66 92.7-2.26.04-12.63-57.5c-.55-2.96-1.7-5.87-1.7-8.9 1.56-3.25 2.32-7.24 5.6-9.27zM88.8 140.9c5.74 5.37 11.12 11.1 16.7 16.64 2 1.64.72 4.5 1.47 6.65 1.22 1.7 3.06 2.84 4.4 4.44.96 2.4 1.35 5 1.96 7.52l12.67 58.6c-3.74 2.52-7.8 5.12-9.7 9.4-2.4 4.28-2 9.37-.87 13.96-6.4 3.22-12.87 6.3-19.5 9-5.75-4.57-8.6-11.85-8.55-19.1l-.06-96.08c-.1-3.74.56-7.43 1.45-11.04zm69.58 3.5l8.43-2.08 23.76 35.08c1.7 2.62 3.75 5.06 5.1 7.9-.13 1.94-1.07 3.7-1.76 5.5-3 6.86-5.76 13.82-8.62 20.74-.86 3.03-4.64 3.07-6.44 5.3-1.03 2.02-.93 4.78-3.2 5.95l-28.8 19.04c-2.05-2.03-4.17-4-6.4-5.8l17.92-91.62zm133.04 11.5c6.1-3.5 11.88-7.55 18.03-11 .35 3.7.8 7.37.8 11.08v84c-.2 7-.01 14.43-3.3 20.84-6.17.02-12.24-1.1-18.33-1.86l-20.94-2.5c-.25-5.98-3.46-11.07-7.42-15.33l15.13-59.64c5.72-.88 11.55-3.38 14.6-8.56 3.56-4.97 3.02-11.47 1.42-17.05zm-93.9 33.4c1.53-.2 2 1.43 2.8 2.4l35.86 53.2c-.7.93-1.33 1.9-1.9 2.9l-43.66-26.42c-3.04-1.54-4.36-5.6-2.82-8.64l9.7-23.43zm-19.07 35.3c3.23-.2 6.55.17 9.55-1.4l44.65 27.07c-.13 3.52-.63 7.1.14 10.6 1.8 5.83 6.57 11 12.68 12.3 1.88.45 3.8.8 5.68 1.23.8 7.02 2.7 13.93 2.63 21.03l-33.26 19.16c-6.23 3.53-12.47 7.5-19.65 8.74-6.43.75-12.48-2.3-17.98-5.24l-29.2-16.76c-1.84-1.12-4.13-2.04-4.84-4.28l-10.5-28.14c3.64-2.48 7.6-5 9.45-9.17 2.74-4.7 2.07-10.42.46-15.37l30.2-19.76zm84 43.87c2.44-2.6 3.73-6 5.32-9.14 12.27 1.88 24.63 3.2 36.97 4.53-5.5 5.77-12.88 9.18-19.6 13.3-9.5 5.3-18.65 11.2-28.35 16.1-.6-6.6-1.9-13.1-2.6-19.67 2.9-1.44 5.94-2.8 8.25-5.1zm-163.42.98c5.7-3.28 11.8-5.85 17.8-8.52 2.67 3.05 5.5 6.36 9.5 7.6 2.94 1.05 6.1.92 9.17.97l10.26 27.3-46.74-27.35z"/></g></svg>