<svg xmlns="http://www.w3.org/2000/svg" width="534" height="534" viewBox="0 0 400 400"><g fill="#fff"><path d="M0 0h400v400H0V0m232.16 103.05l-1.05 3.87c-.93 3.02.94 5.86 1.37 8.8-2.55-1.04-5.1-2.13-7.38-3.67-2.9-4.66-8.92-1.7-13.12-.92l1.12 1.4.27.07c2.6 2.25 6.02 4.1 9.54 2.84 2.44-.9 4.92-.25 7.2.82-3.42 1.55-6.82 3.6-8.24 7.3 5.02.5 11.77 1.02 13.75-4.94a74.85 74.85 0 0 1 3.64 1.7c-3.5 1.15-6.64 3.14-9.06 5.94 2.85.6 5.73 1.45 8.68 1.2 2.62-.12 4.33-2.36 6.2-3.88a49.3 49.3 0 0 1 3.21 2.11c-3.75.4-7.33 2-9.75 4.95 4.54 1.8 11.42 4.03 14.2-1.65 1.25.94 2.48 1.9 3.65 2.94-3.66.33-7.4 1.2-10.1 3.9 3.07 1.4 6.18 3.63 9.72 3.13 1.92-.16 3.28-1.63 4.58-2.9 1.17 1.2 2.37 2.42 3.46 3.7-3.73-.63-7.56-.02-10.9 1.75.4 2.1 3.2 2.56 4.8 3.63 3.02 1.82 6.74.94 9.27-1.3a63.52 63.52 0 0 1 2.83 4.1c-3.88-1.52-7.98-.62-11.6 1.16 2.12 1.68 4.26 3.46 6.83 4.4 2.55.97 5.17-.3 7.63-.94l1.4 2.5-.24.97c-3.58-.8-7.23-.5-10.67.73 3.2 3.8 8.58 7.76 13.5 4.35l1.28 2.92c-.1.36-.3 1.07-.42 1.42-3.07-2.1-6.84-1.92-10.37-1.53 1.68 2.42 3.4 4.97 5.96 6.55 2.14 1.23 4.66.56 6.96.36l1.12 3.7c-3.65-1.04-7.27-2.44-11.16-1.87 1.88 3.02 3.72 6.66 7.35 7.84 1.58.56 3.22-.1 4.8-.3l.75 4.76c-3.17-2.33-6.97-3.9-10.97-3.48 1.5 2.78 2.72 6 5.38 7.9 1.7 1.3 3.92.88 5.9.83a108.43 108.43 0 0 1 .08 5.1c-2.45-3.2-6.1-4.96-10.02-5.6 1.3 4.84 3.66 11.34 9.9 10.67-.07 1.92-.2 3.85-.47 5.77-1.96-3.77-5.45-6.3-9.4-7.67.76 5.2 2.4 11.67 8.48 12.7-.3 1.45-.62 2.9-1 4.3-1.65-2.42-3.3-4.94-5.65-6.75l-.72.07.02-.54-1.47-.95-1.2 1.4c-3.1.05-6.98 2.33-9.34-.64l2.5-.37-3.04-3.55c2.73-2.5 7.17-4.96 6.44-9.33-1.17-6.28-6.9-10.06-10.25-15.13.33-1.62 1.26-3.07 1.47-4.72-.15-2.9-2-5.25-3.4-7.64l-1.7 2.02-.93 2.25c-2.16 9.07 5.5 15.98 10.56 22.42a22.44 22.44 0 0 1-1.24 4.32c-1.64-3.95-3.25-8.05-6.45-11.03-6.76-6.48-4.2-17.04-8.95-24.56l1.66.03c.23-1.37 1.14-2.24 2.3-2.86 2-3.2.52-7.58 3.62-10.13-3.3.06-4.95-3.14-7.68-4.38-2.96-1.48-6.54-.32-9.33-2.3-.4 2.3-1.68 4.18-3.3 5.8-.3 2.14-.92 4.2-1.98 6.1l2.07.95c-1.25 2.97-2.88 6.05-5.96 7.45-5.38 2.6-11.56.38-17.14 2.06-1.5.47-2.42 1.8-2.93 3.2l1.34-.67c5.6.32 11.26.43 16.86.1l2.65.5c-.04 3.28.18 6.63 1.4 9.7-.86.7-1.65 1.58-2.82 1.62.1-3.35 0-6.7-.12-10.04H172.8c-.07 3.72-.14 7.43-.04 11.15-3.05-.2-4.58-3.3-6.43-5.3 1.7-1.28 4.2-1.76 5.1-3.9l-.23-3.46c5.9-.37 11.86.35 17.75-.48l2.2.9c-1.64-3.32-5.85-3.88-9.15-3.5-4.4.53-8.97 1.05-13.18-.67-1.05-1.44-4.16-2.27-2.82-4.55l.3-2.52c-1.18.14-2.4.3-3.52-.28.66-1.3 1.6-2.43 2.4-3.66-4.14 1.03-6.82-3.3-5.92-6.96-4.06.7-8.63-.95-12.27 1.52-2.78 2.2-4.38 5.48-6.82 8a35.81 35.81 0 0 1 2.89 1.89c.07 1.75-.1 3.5-.2 5.25l2.5.4-1.92 2.88c1.4.6 2.88.77 4.4.75l-1.57 3.87 3.67-.03c1.66 4.37 2.1 9.3.37 13.7-.85 3-3.74 4.6-5.42 7.06-.87 1.57-1.3 3.33-2.04 4.95-1.4 1.78-3.2.67-4.78-.08 4.73-5.6 10.1-11.35 11.54-18.77 1.2-4.78-5.4-9.07-9.1-5.64-5.04 4.8-6.38 12.04-8.23 18.47-.55 3.58-3.46 6.02-4.93 9.17.04 1.76.76 3.4 1.34 5.04.5-1.36 1.04-2.7 1.6-4.05l.75 3.42c1.35-1.03 2.62-2.17 3.82-3.36 2.4 3.3 6.43 1.8 9.23 0 .06 2.34.37 4.68.37 7.03-.36 1.44-1.94 3.18-3.57 2.26-4.58-1.2-9.27-2.23-14.04-1.78l.5 1.07-1.14-.62c-2.88 1.1-4.3 4.07-6.1 6.36-.4-1.38-.72-2.76-1-4.15 2.04-.88 4.36-1.62 5.65-3.58 1.9-2.4 1.46-5.68 1.7-8.53-3.52 1-6.03 3.67-8.37 6.3-.22-1.67-.35-3.35-.46-5.02 2.06-.2 4.35-.32 5.87-1.94 2.28-2.34 3.1-5.64 4.35-8.58-3.7.42-7.47 1.7-9.64 4.92l-.73-4.07.04-.46c1.98-.04 4.2.37 5.96-.8 2.8-1.87 4.05-5.2 5.26-8.2-3.96.05-7.78 1.22-10.7 3.97.18-1.48.4-2.96.68-4.43 2.3-.25 4.93.2 6.9-1.3 2.24-1.83 3.76-4.35 5.4-6.68-4.07-.68-8.55-.15-11.37 3.15.36-1.7.77-3.4 1.22-5.1 2.4.15 5.14.8 7.3-.68 2.3-1.66 4-3.98 5.78-6.15-3.9-.88-7.84-.24-11.46 1.33.44-1.23.92-2.44 1.43-3.64 2 .25 4.02.68 6.06.5 3.25-.65 5.52-3.3 7.82-5.47-3.7-1.5-7.65-1.5-11.45-.48.74-1.47 1.54-2.9 2.35-4.34 4.43 4.07 10.4.65 13.9-2.9-3.47-1.84-7.36-2.2-11.2-1.74.77-1.17 1.6-2.3 2.46-3.42 2.65 2.07 6.3 3.08 9.37 1.24 1.6-1.06 4.42-1.52 4.66-3.7-3.18-1.84-6.87-2.22-10.47-2.06.83-.98 1.68-1.94 2.57-2.87 1.93.98 3.77 2.43 6.02 2.55 3.37-.03 6.27-1.95 9.06-3.62-3.07-2.22-6.75-3.2-10.5-3.33 1.26-1.1 2.57-2.1 3.88-3.14 2.8 5.55 9.6 3.28 14.18 1.75-2.18-3.08-5.84-4.33-9.26-5.47l2.67-1.68c1.6 1.3 3.06 2.94 5.05 3.67 3.22.78 6.47-.35 9.6-1.08-2.13-3.05-5.36-5.03-9.03-5.64 1.28-.66 2.57-1.28 3.87-1.87 1.3 1.83 2.52 4.1 4.82 4.8 2.92.53 5.9.22 8.86.16-1.1-3.73-4.6-5.65-7.73-7.47a96.7 96.7 0 0 1 3.39-1.17c3.4 1.87 7.32 1.7 10.62-.33 1.23-.82 2.26-1.88 3.37-2.85-4.44-1.37-10.73-3.9-13.95.97-2.08 1.06-4.2 2.03-6.35 2.98 1.67-4 2.43-8.32.74-12.48-2.18 2.13-4.56 4.25-5.8 7.1-.6 1.94.15 3.96.45 5.9l-.65 1.82-2.38 1.18-1.52-.32c1.47-3.68 1-7.67-.98-11.06-1.8 2.53-3.9 5.03-4.62 8.13-.02 2.17 1.1 4.14 1.77 6.16-1.34.73-2.6 1.6-3.8 2.5-2.43-1.45-.3-4.74-1.4-6.93-.73-1.15-.88-4.1-2.77-3.4-1.5 2.33-2.8 4.9-3.2 7.65.22 2.22 1.7 4.07 2.66 6.02-1.6 1.03-2.98 2.35-4.27 3.75-.18-4.03-.36-8.37-3.4-11.4-1.18 2.45-2.62 4.87-3.08 7.6-.4 2.73 1.77 4.86 2.97 7.1-1.37 1.07-2.47 2.43-3.37 3.9-1.23-3.86-2.1-8.25-5.86-10.53-.73 3.06-2.02 6.26-1.24 9.43 1.04 1.88 2.5 3.46 3.84 5.13l-.8.83-.3.5-2.37.9c-.64-2.26-1.33-4.6-2.9-6.4-.8-.86-1.52-2.44-2.9-1.6-1.56 4.6-1.54 10.3 3.15 13.02l-2.43 4.37c-1.04-3.54-2.76-6.93-5.95-8.97-.56 3-1.26 6.07-.72 9.1.77 2.05 2.76 3.3 4.26 4.8l-1.55 4c-1.85-3.25-4.28-6.24-7.83-7.68.07 2.7-.32 5.5.64 8.08.9 2.45 3.37 3.65 5.36 5.07l-1.34 5.25c-2.2-2.9-4.88-5.5-8.46-6.58.34 3.16.3 6.74 2.48 9.3 1.48 1.34 3.4 2 5.17 2.88l-.64 5.24c-2.7-2.64-5.65-5.4-9.66-5.6.78 2.64 1.37 5.4 2.85 7.75 1.4 2.12 4.18 2.32 6.38 3.06l.1 4.94c-2.85-2.68-6.1-5.12-10.14-5.53 1.16 3.02 2.02 6.4 4.48 8.68 1.87 1.4 4.3 1.72 6.48 2.43a10.59 10.59 0 0 0 .45 4.03l-1.13 1.46c-2.78-2.93-6.58-4.37-10.45-5.2 1.2 3.17 2.83 6.33 5.53 8.47 1.8 1.17 4.03 1.25 6.06 1.75l1.67 3.66.58 1.38c-2.02.3-3.68-.97-5.42-1.72-2.04-.97-4.34-1.1-6.54-1.42 1.66 2.87 3.4 5.92 6.27 7.72 1.8.87 3.85.88 5.8 1.22l2.42 1.78.55 2.82c3.2-.92.68-3.8.25-5.78 4.14-1.77 5.66-6 6.9-9.98 3.3 2.7 7.78 3.65 10.63 7-1.38.98-2.94 1.48-4.66 1.5 2.74 1.4 3.78 4.15 4.25 7.05-2.98-.77-5.9-1.74-8.93-2.25 1.36-2.7.92-5.72.6-8.6-3.2 2.47-6.23 5.84-5.78 10.2-1.85 1.13-3.58 2.44-5.3 3.76a74.25 74.25 0 0 1 .54-2.91c-3.23-2.06-7.08-2.4-10.82-2.2 2 2.97 4.54 5.6 7.9 6.98-3.68 3.06-7.84 5.56-11 9.2 2.5 5.4 8.48 7.6 13.14 10.7-1.3 2.9-5.02 2.7-7.62 3.45-2.13-.82-3.5-2.9-5.23-4.3-2.02-.88-4-1.92-6.16-2.38l.05-.72-.6.08c-5.4-2.37-11.65-1.96-17.04.23-4.95 2.1-9.8 6.3-10.2 12 .22 2.12 1.17 4.1 1.77 6.12-3.03-.44-4.26 1.85-5.9 3.78-1.6 3.6 2.22 7.06 5.15 8.54 5.6-1.78 11.27-3.5 16.47-6.35 4.06-.38 7.93-2.04 11.6-3.78 3.4.7 6.9-.25 10.3.5 1.56 1.12 5.05 1.93 5.4-.75.47-1.74-1.63-2.55-2.56-3.63l-2.96 1.92a87.64 87.64 0 0 1 1.63-4.45c4.75-1.2 9.37-2.85 14.1-4.12 7.44 6.48 13.88 14.56 15.98 24.42 1.5-3 2.6-6.17 4.2-9.1 3 .43 6.2.64 8.76-1.34.92.42 1.82.88 2.7 1.38-2.4 1.14-4.82 2.36-6.55 4.42 4.03.54 8.46 1.78 12.15-.64l.96.7.05.3c.17.01.5.02.68.03l.1-2.72c1.92-1.17 3.96-.73 5.7.54-3.57 1.83-6.85 4.17-9.45 7.25 2.9.07 5.85.34 8.7-.26 3.82-.77 5.6-6.3 10.02-4.5-3.06 2.62-6.6 4.75-9 8.07 2.9.06 5.96.45 8.7-.77 2.68-1.08 4.52-3.4 6.75-5.13 1.25.02 2.27.84 3.37 1.32-3.5 1.25-6.84 2.94-9.95 4.98-2.57 1.7-5.4 3.4-6.68 6.34l1.2-.54c.9 1.28 1.8 2.6 2.85 3.78 7.13-4.64 13.97-10.1 22.3-12.52l1.12-.12c6.42 4.42 13.6 7.7 19.67 12.7 1.28-1.27 2.58-2.53 3.92-3.74-.53-1.27-1.37-2.38-2.5-3.2-4.34-3.47-9.4-5.85-14.34-8.3 1.42-.32 2.86-.52 4.3-.73 3.4 4.85 9.34 6.94 15.12 5.96-2.42-3.3-5.93-5.44-8.97-8.1 3.06-1.12 4.76 1.94 6.9 3.45 3.12 2.5 7.45 1.67 11.15 1.6-1.84-2.5-4.2-4.56-6.96-5.98 1.2-.7 2.27-1.6 3.42-2.35 3.18 4.8 9.66 3.4 14.4 2.34-2.73-2.6-6.12-4.3-9.77-5.18l2.47-1.25 7.17 2.05c1.66 2.95 2.92 6.1 4.13 9.26 2.62-10.46 9.46-19.3 17.97-25.72 5.2 1.44 10.35 3 15.47 4.65 1.88.35 2.12 2.55 3.18 3.8l-3.77-.43c-2.12.8-2.74 3.87-.53 4.98 1.85.16 3.5-1.02 5.3-1.3 2.65-.4 5.34-.35 8.02-.32 4.7.9 8.96 3.48 13.76 3.84l.12.04c2.62 1.84 5.44 3.63 8.67 4.1l.98.2c2.47 1.17 6.33 3.08 8.25.08 1.02-1.57 3.02-2.9 2.77-4.96-1.2-2.76-2.36-6.45-6.17-5.7 1.25-2.56 2.52-5.45 1.52-8.32-1.77-5.67-7.3-9.17-12.72-10.85l-1-.1c-6.3-1.33-12.98-.3-18.64 2.73-1.88.96-4.04 2.1-4.9 4.14l-1.74 1.62c-3.63-1.28-7.35-2.23-11-3.4 4.27-3.1 10.13-5.04 12.12-10.4-2.6-2.97-5.6-5.58-8.7-8 4.54-1.3 8.35-4.36 10.75-8.4-4-.25-7.97.46-11.7 1.94l1.56-3.77c2.26-.38 4.8-.24 6.75-1.62 2.78-1.95 4.44-5 6.2-7.83-4.07.23-8 1.46-11.33 3.86.4-1.8.86-3.58 1.3-5.36 2.2-.5 4.7-.54 6.46-2.12 2.57-2.05 3.9-5.16 5.22-8.08-4.17.12-7.9 1.96-11 4.65l.68-5.3c2.26-.67 4.94-.9 6.53-2.9 1.94-2.4 2.72-5.5 3.73-8.37-3.86.5-7.17 2.55-10.15 4.92l.22-3.4c1.75-1.06 3.8-1.6 5.45-2.83 2.2-2.42 2.6-5.88 3.4-8.93-3.8.42-6.9 2.63-9.6 5.18l-.18-4.4c2.08-1.2 4.7-2.06 5.8-4.38 1.06-2.63 1.3-5.5 1.73-8.27-3.85.87-6.67 3.62-9.02 6.63l-1.05-4.8c1.9-1.4 4.36-2.44 5.22-4.8.92-2.87.73-5.94.8-8.9-3.6 1.46-6.12 4.42-8.1 7.64l-1-3.68c1.64-1.57 3.93-2.96 4.2-5.43.2-2.95-.54-5.84-1.07-8.7-3.1 2-5.27 5.04-6.02 8.67l-2.3-3.6c1.58-1.56 3.76-2.92 4.15-5.3.33-3.1-.76-6.14-1.4-9.14-2.93 2.28-5.05 5.4-5.73 9.07l-2.32-.8-.25-.48-.6-.62c1.47-1.9 3.56-3.6 4.08-6.06.2-3.07-.73-6.06-1.34-9.04-3.4 2.13-5.3 5.74-5.8 9.65l-3.13-3.23c1.26-1.92 3.06-3.92 2.64-6.4-.5-2.98-2.1-5.6-3.68-8.1-2.07 2.96-3.78 6.33-3.04 10.05l-1.52.4a64.01 64.01 0 0 0-1.07-1.25l-1.36-.8c1-2.3 2.7-4.6 2.27-7.24-.52-2.95-2.3-5.47-3.8-7.98-1.08 2.16-2.85 4.25-2.7 6.8-.16 1.6.53 3.5-.86 4.75a15.44 15.44 0 0 0-3.66-2.43c.88-2.6 2.63-5.45 1.16-8.18-1.18-2.14-2.05-5.26-4.6-6.02-2.12 3.6-1.7 7.8-1.06 11.74-1.4-.92-2.84-1.8-4.43-2.36.7-2.36 2.15-4.94.88-7.37-1.28-2.74-3.57-4.8-5.6-6.97zm-92.93 76.15c1.34-1.76 2.4-4 4.62-4.8 1.47.42 1.76 2.05 2.44 3.2-2.45 1.4-1.97 4.4-2.54 6.77l-2-.1c-.05 3.42-2.23 6.23-5.23 7.7.66-4.07 1.7-8.06 2.47-12.1l.24-.68zm61.2-.08c.75 1.98 2.02 3.48 4.4 2.8l-2.54 2.15 1.28 3-2.94-1.82-2.87 1.8 1.2-3.02-2.7-2.24c2.07.18 4.25.14 4.17-2.68zm30.02 9.4c1.62-1.72 3.42-3.26 5.4-4.53l3.12 3.78c-.93 1.62-2.44 3.16-2.3 5.18.22 4.6 2.96 8.47 5.37 12.2-1.5 3.16-3.44 6.84-7.44 6.9-1.78 1.86-2.2 4.16-.96 6.5-2.93.9-5.87 1.76-8.85 2.47l-.84 1.78 1.87-1.03c3.74-.94 7.4-2.84 11.37-2.2 3.17.6 5.4-2.1 7.8-3.68 3.5-.8 6.92-1.94 10.4-2.86l3.74 4.16-44.8 13.68c3.74-.3 7.25-1.7 10.83-2.73l30.77-9.4c1.6-.47 3.23-.7 4.9-.84-1.47 2.1-4.24 2.2-6.12 3.7-1.48 1.52-.2 3.6.26 5.28-8.75 2.85-16.94 7.33-25.9 9.53-5.6-1.14-10.86-3.84-16.64-4.12 4.55 2.1 9.62 2.68 14.25 4.6-3.48.9-6.95 2.2-10.58 2.16-3.6-.47-6.82-2.34-10.43-2.7 2.6 1.22 5.38 1.9 8.06 2.9-8.32 1.43-16.9 1.12-25.26.32 2.48-1.07 5.1-1.88 7.37-3.37 1.68.43 3.32 1.08 5.04 1.38 3.88-1.3 7.33-3.63 10.72-5.87 7.9-5.38 15.37-13 16.9-22.8.47-6.6.07-13.23.01-19.85l-.05-1.1 2.02.58zm-43.62.26c2.54.94 3.38-1.1 4.28-2.84.32 2.3 1.76 3.26 4.02 2.76-1.76 1.37-2.84 3.1-1.42 5.3-1.76-1.98-3.68-2.04-5.45-.02 1.4-2.2.5-3.9-1.43-5.2zm22.14.12l1.23-3.05c.45 2.26 1.8 3.44 4.16 3.06l-2.42 2.08 1.17 2.97-2.95-1.82-2.82 1.96 1.16-3.08-2.62-2.45 3.1.33zm-49.5 4.34a87.73 87.73 0 0 1 8.54-5.6c1.5.97 3.02 1.9 4.63 2.67.1 6.53-.5 13.12.28 19.62 2.57 11.73 12.67 19.87 22.7 25.42l-.2.28c-3.1 1.94-6.6 3.32-10.27 3.68-4-.14-7.92-1.16-11.8-2.05 5.2-1.48 10.73-2.3 15.52-4.97-6.14.78-11.74 3.87-17.85 4.68-8.87-1.45-17.14-5.22-25.66-7.94 1.63-1.23 3.2-2.53 4.6-4-1.7-1.5-4.44-2.5-4.38-5.16 1-1.3 2.44-.6 3.7-.27l37.22 11.2c-2.3-1.3-4.8-2.08-7.3-2.83l-32.35-9.83a28.58 28.58 0 0 1 7.71-3.86l-.82 4c4.16.5 8.3 1.13 12.42 2l2.8-.88c2.77 1 5.6 1.96 8.5 2.44-2.34-1.68-5.17-2.37-7.97-2.82l2-3.37c-2.47-2.66-6.35-1.87-9.2-3.6-.02-4.37 2.1-8.6 1.34-12.97-1.1-2.13-2.78-3.9-4.16-5.83zm35 3.9c.8 1.9 1.7 3.83 4.24 3.04-1.88 1.4-2.6 3.14-1.27 5.28l-2.7-1.92-2.82 1.74.97-2.94-2.45-2.1 3.25-.14.77-2.97z"/><path d="M206.6 197.22c.53 2.12 1.67 3.63 4.18 3.2l-2.44 1.92 1.1 3.13-2.82-1.92-2.8 1.85.96-3.12-2.45-1.92c2.5.56 3.73-.94 4.26-3.14zm-23.22 2.74c2.07 6.66 7.28 12.75 14.53 13.64 8.97 1.7 17.86-4.94 19.72-13.7 1.43 6.4-1.14 13.4-6.4 17.33-6.2 5.03-15.93 4.78-21.9-.52-4.87-4-6.94-10.63-5.96-16.76zm65.82 6l5.7 6.36c-3.58.78-7.06 1.93-10.45 3.3l-1-2.22 2.13 1.03 2.22-2.46-1.73-2.16c2.95.8 2.68-2 3.13-3.86zm18.57 7.98l4.94-2.68c.7 4.06 2.43 8.05 6.52 9.7-1.02 2.53-2.12 5.05-2.6 7.76l.27.27c-1.48-1.26-3-2.47-4.56-3.63l4.47 1.16c-.42-4.34-2.78-8.1-6.4-10.5-.02 2.82.15 5.64.42 8.46a65.46 65.46 0 0 0-4.41-.35c.33-3.4.8-6.8 1.33-10.18zm-134.84 16c1.8 1.12 1.22 3.22 1.27 5 1.14-1.3 2.02-3.16 4-3.1-2.33 3.2-4.3 6.63-6.27 10.07-1.18-1.1-.05-2.54.1-3.77.78-2.43.64-5.02.85-7.53l.04-.66zm127 1.5c3.1 2.6 4.88 6.36 6.97 9.75a92 92 0 0 1-3.88-1.54l-.96 3.7c-1.77-3.7-1.7-7.92-2.13-11.92m2.25 5.67c-1.62 2.96 3.28.33 0 0zm-128.08 5.6c2.28-3.5 4.37-7.14 7.23-10.2.03 4.05-.9 8-1.47 11.98-1.35-.66-1.42-2.2-1.9-3.42-1.23.67-2.5 1.32-3.87 1.65m3.94-2.7c1.36.2 1.83-.4 1.43-1.77-1.4-.2-1.86.38-1.43 1.77zm116.27-6.04l1.43.47c1.77 3.1 3.7 6.33 4.3 9.9-1.46-1.27-2.5-2.9-3.6-4.45a105.1 105.1 0 0 1 .77 5.37l-.82-.87a87 87 0 0 1-1.87-2.55l-2.77-.97-1-5.62c2.43.57 3 3.54 4.7 5.06-.33-2.13-.77-4.23-1.15-6.34zm-109.73 2.43l1.6-1.78c1.04 4.44-1.7 8.53-4.96 11.25.97-3.2 2.04-6.4 3.36-9.47zm3.93-.16l1.38.35-3.88 10.36c-1.26-1.36-1.06-3.2-1.06-4.93a22.63 22.63 0 0 0 3.56-5.78zm.53 10.66c.23-3.45 1.32-6.82 3.7-9.4l1.98.52c.97.94 1.47 2.1 1.52 3.5-1.05-.7-2.07-1.46-3.08-2.23-1.4 2.4-2.4 5.02-2.27 7.84l2.28-1.07-.68-3.4c4.56.3 1.45 4.45-.22 6.2l-3.22-1.96zm89.24-5.87c1.14-2.03 3.58-2.14 5.58-2.65l-1.75 2.37 2.96 8.9c-1.17-.27-1.94-.92-2.34-1.94l-2.18-6.53-2.27-.16zm7.13-2.8l2.9 1.17c1.1 2.4 2.42 4.68 4 6.78-1.5 1.07-2.48-.1-3.28-1.38-.67 1.2-1.22 2.43-1.74 3.7l-.72-1.1-1.17-9.15m1.82 4.2c-.3 1.42.2 1.96 1.55 1.6.33-1.42-.2-1.95-1.55-1.6zm-11.25-2.6l1.28 1.14c1.06 2.75 2.17 5.58 2.3 8.56a27.6 27.6 0 0 1-2.13 2.2c-4.16-1.62-3.7-7.08-5.03-10.66 3.65 1.24 2.2 6.42 4.55 8.9l1.14-.8c-.73-3.1-2.1-6.1-2.12-9.35zm-73.58.76c1.53.68 4.4 1.04 3.72 3.4.1 2.17-2.03 3-3.77 3.34-.55 1.6-.77 3.5-2.53 4.3.35-3.8 1.6-7.4 2.58-11.04m.72 2.46c-1.18.82-.2 3.63 1.22 2.3 1.1-.85.25-3.6-1.22-2.3zm5.35-.9c1.47.52 3.13.85 4.16 2.18l-3.03-.08-.6 2.3 2.23 1.47c-1.42.56-2.74 1.33-3.7 2.55l3.15 2.85-2.94-.5-1.85-.56c.93-3.38 1.7-6.8 2.58-10.2zm83.85.63a5.2 5.2 0 0 1 1.85-.77l.74 1.75c.3 1.5-.18 2.22-1.4 2.1-.48-1-.88-2.03-1.2-3.1zm-26.76.38c2-.78 2.9 3.7.77 3.55-.55-1-1.6-2.45-.77-3.55zm-51.74 1.2l.22-.98 4.17 1.62c-.3 1.88-1.06 3.62-2.07 5.22l.8 4.1-1.66.52-.56-4.28c-.68 1.47-.98 3.37-2.84 3.8.56-3.35 1.24-6.68 1.95-10m1.35 3.45c1.33-.24 1.6-1 .8-2.25-1.3.24-1.58 1-.8 2.25zm3.74-3.24l5.55.95c-3.57 2.17-2.74 6.88-3.73 10.4l-1.5-.82c.26-3.5 2.34-7.5-.3-10.54zm43.08-.94c1.8.3 2.4 1.98 2.9 3.5l1.77 1.7 1.3-1.5c.26 2.1.7 4.15 1.15 6.2-2.33.3-2.78-2.7-4.18-3.97l.6 5.15-1.53-.84a222.52 222.52 0 0 1-2-10.23zm-35.18 1.1c1.6 3.76 1.2 8 1.6 12l-2.43-2.8c-1.14.73-2.23 1.53-3.35 2.28l.42-1.37c1.1-3.43 2.3-6.83 3.76-10.12m-.56 5.45c-1.42.14-1.7 2.74-.15 2.9 1.5-.07 1.8-2.85.15-2.9zm31.1-4.96l1.04-.64 3.63 9.27.48 1.42-3.18-2.1c-.95.85-1.72 1.88-2.57 2.83.15-3.6.24-7.2.6-10.77m.76 5.15c-.4 1.4.1 1.9 1.48 1.5.38-1.42-.1-1.92-1.48-1.5zm-27.7 1.53c.77-1.98-.14-5.1 2.22-6.16l.7 5.14 1.48 2.8-1.44 3.63-.62-3.53-2.35-1.88zm9.18-1.32c.56-1.65 1.2-3.27 2.05-4.8 1.17 3.75 1.97 7.6 2.6 11.5-1-.8-1.95-1.73-3.06-2.4a68.75 68.75 0 0 0-2.4 2.43l.5-5.1 2.9 1.64-.37-3.2-.87 2.15-1.35-2.2zM209 246c1.65-.07 3.7-.43 4.7 1.3.9 2.53 1.9 5.95-.03 8.24-1.08.5-2.2.9-3.34 1.3-.8-3.57-1.17-7.2-1.33-10.85m1.92.7c-.07 2.85.18 5.7.6 8.53 2.8-2 1.5-6.42-.6-8.53zm-72.77 3.1l6.12 2.18-.94.4c-12.18 3-23.93 7.64-36.15 10.36-1.08-1.5-.66-3.52-.9-5.26l3.84-1.4c-.6 1.08-3.5 2.48-2.15 3.56 5.02-.76 9.75-2.77 14.64-4.1 5.23-1.77 10.97-2.43 15.55-5.75zm117.7 1.47c1.57-.77 3.22-1.35 4.9-1.9 5 2.26 10.36 3.6 15.6 5.18 6.13 1.77 12.16 4 18.48 5.07l-1.44 3c-5.03-1.78-10.18-3.2-15.27-4.78l-22.27-6.6zm48.95 8.02c1.2-3.25 3.28-6.96 7.12-7.38l2.5-.1c5.98.43 11.22 6.52 8.93 12.5l-2.92.14c-.34-.05-1.02-.17-1.36-.23l-2.97-.03c-2.2-3.06-6.3-.95-8.9-3.18.5 1.4.07 2.8-.5 4.1-.18-1.67.27-3.73-1.75-4.37l3.1-.43-3.27-1.02zM83.7 252.6l.94-.2c2.52-.1 5.4-.5 7.5 1.24 2.28 1.44 3.1 4.12 3.86 6.55-1.82-.6-2.66 1.12-3.76 2.06-1.58.5-3.2.87-4.83 1.24l-.03 3.42-1.13-.2.54-2.55c-2.92.35-5.8 1.14-8.75 1.14-2.86-4.95.97-10.68 5.67-12.7zm106.2 1.97l1.5-.57c.85.76.1 3.66-1.16 2.3l-.33-1.72zm47.73 2.53l4.78-1.4-3.77 4.87-1-3.48zM200 262.68c12.58.18 25.04-2.23 37.15-5.43-2.03 1.93-4.26 3.8-5.6 6.32-.98 2.47-.68 5.22-.8 7.82l-2.58.83-1.02.32c1.48-3.62 2.6-7.38 3.1-11.26-2.4 1.5-5 2.88-6.8 5.14-1.8 2.27-1.93 5.3-2.37 8.04l-3.1.85c1.9-3.66 3.37-7.53 4.25-11.57-2.84 1.56-6 2.92-8 5.6-1.52 2.03-1.46 4.7-1.88 7.1-4.08.68-8.13 1.8-12.28 1.9-3.73-.3-7.38-1.2-11.06-1.83-.54-2.7-.67-5.78-2.65-7.9-2.02-2.2-4.8-3.45-7.4-4.82.67 4.26 2.33 8.3 4.97 11.7-1.6-.42-3.2-.9-4.78-1.38-.48-2.67-.53-5.68-2.38-7.85-1.88-2.22-4.42-3.7-6.83-5.26.5 3.83 1.53 7.6 3.16 11.1l-4.3-1.7c.6-4.6-1.3-8.73-4.2-12.15l1.57.18c11.1 2.55 22.4 4.4 33.82 4.23z"/></g><g fill="#c3c3c3"><path d="M232.16 103.05c2.04 2.16 4.33 4.23 5.6 6.97 1.27 2.43-.2 5-.88 7.37l-4.4-1.67c-.43-2.94-2.3-5.78-1.37-8.8.27-1.3.67-2.6 1.05-3.87zm-68.66 7.35c1.24-2.85 3.62-4.97 5.8-7.1 1.7 4.16.93 8.47-.74 12.48l-5.26 2.33.65-1.82c-.3-1.93-1.05-3.95-.45-5.9zm78.88-2.4c2.54.76 3.4 3.88 4.6 6.02 1.47 2.73-.28 5.58-1.16 8.18l-4.5-2.46c-.64-3.95-1.06-8.13 1.06-11.74zm-94.78 6.37c1.9-.7 2.04 2.25 2.77 3.4 1.1 2.2-1.03 5.48 1.4 6.93l-4.7 3.34c-.97-1.95-2.44-3.8-2.66-6.02.4-2.76 1.7-5.32 3.2-7.65zm102.73 5.53c-.16-2.56 1.6-4.65 2.7-6.8 1.52 2.5 3.3 5.03 3.8 7.98.44 2.65-1.28 4.93-2.27 7.24-1.8-1.06-3.5-2.3-5.1-3.66 1.4-1.24.7-3.15.86-4.75zm-84.8-1.22l5.95-2.5c3.12 1.82 6.64 3.74 7.73 7.47-2.95.06-5.94.37-8.86-.16-2.3-.7-3.5-2.97-4.82-4.8zm64.57-2.4l5.5 2.35c-1.98 5.96-8.73 5.45-13.75 4.94 1.42-3.68 4.82-5.74 8.24-7.3zm9.16 4.03l5.83 3.27c-1.88 1.52-3.6 3.76-6.2 3.88-2.95.24-5.83-.6-8.68-1.2 2.42-2.8 5.56-4.8 9.06-5.94zm22.3-.4c1.58 2.5 3.18 5.12 3.68 8.1.42 2.5-1.38 4.5-2.64 6.4l3.13 3.23c.48-3.9 2.4-7.52 5.8-9.65.6 2.98 1.54 5.97 1.34 9.04-.52 2.46-2.6 4.15-4.08 6.06A505.9 505.9 0 0 0 257 130.34l1.52-.4c-.74-3.72.97-7.1 3.04-10.05zm-122.18.5c3.05 3.02 3.23 7.36 3.4 11.4a64.65 64.65 0 0 1-3.52 3.3c-1.2-2.23-3.37-4.36-2.97-7.1.46-2.72 1.9-5.14 3.08-7.6zm16.68 3.2l5.6-3.05c3.67.6 6.9 2.6 9.03 5.64-3.12.73-6.37 1.86-9.6 1.08-2-.73-3.44-2.37-5.05-3.67zm-7.6 5.4l4.92-3.72c3.42 1.14 7.08 2.4 9.26 5.47-4.57 1.53-11.4 3.8-14.18-1.75zm90.1 1.64c2.42-2.96 6-4.55 9.75-4.95l4.45 3.3c-2.78 5.68-9.66 3.44-14.2 1.65zm-108.52-2.2c3.76 2.28 4.63 6.67 5.86 10.53-1 1.42-2.06 2.78-3.26 4.03-1.33-1.67-2.8-3.25-3.84-5.13-.78-3.17.5-6.37 1.24-9.43zm9.97 8.1l4.58-4.4c3.75.12 7.43 1.1 10.5 3.33-2.8 1.67-5.7 3.6-9.06 3.62-2.25-.12-4.1-1.57-6.02-2.55zm106.3-.7c2.68-2.7 6.43-3.57 10.1-3.9 1.45 1.33 2.82 2.74 4.2 4.14-1.3 1.26-2.66 2.73-4.58 2.9-3.54.5-6.65-1.74-9.72-3.13zm25.64 9.15c.68-3.68 2.8-6.8 5.73-9.07.63 3 1.72 6.03 1.4 9.14-.4 2.37-2.57 3.73-4.15 5.3l2.3 3.6c.75-3.63 2.92-6.67 6.02-8.67.53 2.87 1.26 5.76 1.07 8.7-.28 2.47-2.57 3.86-4.2 5.43l1 3.68c1.98-3.22 4.5-6.18 8.1-7.64-.06 2.97.13 6.04-.8 8.9-.86 2.35-3.33 3.4-5.22 4.8l1.05 4.8c2.35-3 5.17-5.76 9.02-6.63-.42 2.78-.67 5.64-1.73 8.27-1.1 2.32-3.73 3.2-5.8 4.38l.18 4.4c2.7-2.55 5.8-4.76 9.6-5.18-.8 3.05-1.18 6.5-3.4 8.93-1.65 1.24-3.7 1.77-5.45 2.83l-.22 3.4c2.98-2.37 6.3-4.42 10.15-4.92-1 2.87-1.8 5.96-3.73 8.37-1.6 2-4.27 2.22-6.53 2.9l-.68 5.3c3.1-2.7 6.83-4.53 11-4.65-1.32 2.92-2.65 6.03-5.22 8.08-1.77 1.58-4.27 1.6-6.46 2.12l-1.3 5.36c3.32-2.4 7.26-3.63 11.33-3.86-1.75 2.82-3.4 5.88-6.2 7.83-1.96 1.38-4.5 1.24-6.75 1.62l-1.56 3.77c3.73-1.48 7.7-2.2 11.7-1.94-2.4 4.05-6.2 7.1-10.75 8.4l-4.53-3.78-.27-.27c3.7-4.6 5.1-10.52 6.65-16.1 3.18-17.3 1.75-35.6-5.1-51.86-2.24-5.82-5.7-11.04-8.55-16.55l2.32.8zm-148.58-7.75c1.38-.84 2.1.74 2.9 1.6 1.57 1.8 2.26 4.14 2.9 6.4l2.37-.9c-6.5 10.64-11.83 22.15-13.85 34.53-1.56 7.24-1.26 14.66-1.7 22-2.2-.7-4.6-1.02-6.48-2.43-2.46-2.28-3.32-5.66-4.48-8.68 4.03.4 7.3 2.85 10.14 5.53l-.1-4.94c-2.2-.74-4.98-.94-6.38-3.06-1.48-2.35-2.07-5.1-2.85-7.75 4 .2 6.95 2.95 9.66 5.6l.64-5.24c-1.76-.88-3.7-1.54-5.17-2.88-2.2-2.56-2.14-6.14-2.48-9.3 3.58 1.07 6.25 3.68 8.46 6.58l1.34-5.25c-2-1.42-4.47-2.62-5.36-5.07-.96-2.57-.57-5.4-.64-8.08 3.55 1.44 5.98 4.43 7.83 7.68l1.55-4c-1.5-1.5-3.5-2.76-4.26-4.8-.54-3.04.16-6.12.72-9.1 3.2 2.04 4.9 5.43 5.95 8.97l2.43-4.37c-4.7-2.73-4.7-8.4-3.15-13.02zm10.5 6.7l3.56-4.53c3.6-.16 7.3.22 10.47 2.06-.24 2.2-3.07 2.65-4.66 3.7-3.07 1.84-6.72.83-9.37-1.24zm119.3-2.4c3.34-1.77 7.17-2.38 10.9-1.75a91.62 91.62 0 0 1 3.18 4.1c-2.53 2.23-6.25 3.1-9.27 1.3-1.6-1.07-4.4-1.53-4.8-3.63zM128.7 152l2.7-4.65c3.84-.45 7.73-.1 11.2 1.74-3.5 3.56-9.47 6.98-13.9 2.9zm129.78-2.88c3.62-1.78 7.72-2.68 11.6-1.16l2.86 4.63c-2.46.64-5.08 1.9-7.63.94-2.57-.95-4.7-2.73-6.83-4.4zm15.87 5.96l2.6 6.05c-4.93 3.4-10.3-.55-13.5-4.35 3.44-1.23 7.1-1.52 10.67-.73l.24-.97zm-150.42 6.72l2.43-5.45c3.8-1.02 7.76-1 11.45.48-2.3 2.18-4.57 4.82-7.82 5.47-2.04.18-4.05-.25-6.06-.5zm-1.43 3.64c3.62-1.57 7.56-2.2 11.46-1.33-1.8 2.17-3.48 4.5-5.78 6.15-2.16 1.48-4.9.83-7.3.68.5-1.85 1-3.7 1.62-5.5zm144.94-1.5c3.53-.4 7.3-.57 10.37 1.53l.42-1.42c.84 2.22 1.44 4.53 2.13 6.8-2.3.2-4.82.87-6.96-.36-2.56-1.58-4.28-4.13-5.96-6.55zm-147.78 12.1c2.82-3.3 7.3-3.83 11.37-3.15-1.65 2.33-3.17 4.85-5.4 6.68-1.97 1.5-4.6 1.06-6.9 1.3l.94-4.84zm150.66-3.33c3.9-.57 7.5.83 11.16 1.87.44 1.87.7 3.76 1 5.66-1.6.2-3.23.87-4.8.3-3.63-1.18-5.47-4.82-7.35-7.84zm1.94 8.8c4-.43 7.8 1.15 10.97 3.48.18 1.75.23 3.5.3 5.25-1.97.05-4.2.46-5.9-.83-2.66-1.9-3.87-5.12-5.38-7.9zm-154.22 3.8c2.9-2.75 6.73-3.92 10.7-3.97-1.2 3-2.45 6.32-5.26 8.2-1.77 1.16-3.98.75-5.96.8a138.7 138.7 0 0 1 .53-5zm.16 9.54c2.17-3.2 5.95-4.5 9.64-4.92-1.24 2.94-2.07 6.24-4.35 8.58-1.52 1.62-3.8 1.74-5.87 1.94-.24-3.22-.4-6.45-.15-9.67l.73 4.07zm155.4-5.1c3.92.64 7.57 2.4 10.02 5.6l-.1 5.07c-6.25.67-8.62-5.83-9.9-10.67zm.03 8.75c3.95 1.37 7.44 3.9 9.4 7.67-.27 1.68-.6 3.36-.92 5.04-6.1-1.04-7.72-7.5-8.48-12.7zm-155.55 6.96c2.34-2.63 4.85-5.3 8.37-6.3-.23 2.85.2 6.12-1.7 8.53-1.3 1.96-3.6 2.7-5.65 3.58-.4-1.93-.76-3.86-1.03-5.8zm-13.2-4.3c3.87.83 7.67 2.27 10.45 5.2.3-.36.85-1.1 1.13-1.46.92 3.3 1.3 6.73 1.68 10.14-.58-1.2-1.13-2.43-1.67-3.66-2.03-.5-4.26-.58-6.06-1.75-2.7-2.14-4.33-5.3-5.53-8.47zm15.25 14.25c1.8-2.3 3.22-5.27 6.1-6.36l1.14.62 1.56 1.4c-1.23 3.98-2.75 8.2-6.9 9.98-.68-1.86-1.36-3.73-1.9-5.63zm152.57-4.16l2.02-2.4.72-.07c2.36 1.8 4 4.33 5.65 6.75-.53 1.84-1.18 3.63-1.87 5.4-4.1-1.64-5.8-5.63-6.52-9.7zm-165.95 2.05c2.2.33 4.5.45 6.54 1.42 1.74.75 3.4 2 5.42 1.72 1.13 2.42 2.04 4.95 2.52 7.58l-2.42-1.78c-1.94-.34-4-.35-5.8-1.22-2.88-1.8-4.6-4.85-6.27-7.72zm18.28 12.67c-.45-4.35 2.6-7.72 5.78-10.2.32 2.88.76 5.9-.6 8.6l-2.06-.22a60.27 60.27 0 0 0-3.12 1.81zm-15.57-1.35c3.74-.2 7.6.14 10.82 2.2a74.25 74.25 0 0 0-.54 2.91l-2.38 1.87c-3.36-1.4-5.9-4-7.9-6.98zm52.22 32.68l4.5 1.14-1.57-.18c2.9 3.42 4.8 7.56 4.2 12.15l-6.12-2.3a35.18 35.18 0 0 1-.7-1.1l1.08.68c-1-3.38-1.9-6.85-1.4-10.4zm8.28 3.7c2.4 1.56 4.95 3.04 6.83 5.26 1.85 2.17 1.9 5.18 2.38 7.85l-6.05-2c-1.63-3.52-2.66-7.28-3.16-11.1zm53.5 5.42c1.8-2.26 4.4-3.63 6.8-5.14-.5 3.88-1.62 7.64-3.1 11.26l1.02-.32-7.08 2.24c.44-2.74.57-5.77 2.37-8.04zm-44.5-2.64c2.6 1.37 5.38 2.6 7.4 4.82 1.98 2.13 2.1 5.2 2.65 7.9l-5.08-1.02c-2.64-3.42-4.3-7.45-4.97-11.7zm35.3 5.56c2-2.68 5.15-4.04 8-5.6-.88 4.04-2.36 7.9-4.25 11.57-1.86.44-3.75.76-5.62 1.13.42-2.4.36-5.07 1.88-7.1zm-64.08-.58l6.48 2.84c-2.55 1.98-5.75 1.77-8.76 1.34l2.28-4.18zm13.33 1.04c10.66 5 22.18 7.62 33.74 9.56l-5.72 2.25c-1.1-.48-2.12-1.3-3.37-1.32-2.23 1.73-4.07 4.05-6.75 5.13-2.74 1.22-5.8.83-8.7.77 2.4-3.32 5.94-5.45 9-8.07-4.43-1.82-6.2 3.72-10.02 4.5-2.86.6-5.8.33-8.7.26 2.6-3.08 5.88-5.42 9.45-7.25-1.73-1.27-3.77-1.7-5.7-.54l-.1 2.72-.68-.03-.05-.3c-.37-2.67-1.28-5.23-2.4-7.66zm43.55 8.9c8.38-1.16 16.47-3.66 24.6-5.94l-1.3 3.57c-1.14-3.83-4.1 1.25-.34.84l.68.04c2.75 1.42 5.12 3.5 6.96 5.98-3.7.07-8.03.9-11.15-1.6-2.13-1.5-3.83-4.57-6.9-3.45 3.04 2.65 6.55 4.8 8.97 8.1-5.78.98-11.7-1.1-15.12-5.96-1.45.2-2.9.4-4.3.73-2.7.64-5.3 1.63-7.88 2.65-8.33 2.4-15.17 7.88-22.3 12.52-1.06-1.18-1.95-2.5-2.85-3.78 8.57-7.65 19.62-12.13 30.94-13.7z"/><path d="M202.38 283.52c2.45-.35 5-1.6 7.44-.56 6.03 1.95 10.86 6.2 16.15 9.53-1.34 1.2-2.64 2.47-3.92 3.74-6.06-5-13.25-8.3-19.67-12.7z"/></g><g fill="#c2c2c2"><path d="M158.42 107.9c1.98 3.4 2.45 7.38.98 11.06l1.52.32-5.35 2.9c-.66-2.02-1.8-4-1.77-6.16.73-3.1 2.82-5.6 4.62-8.13zm16.48 4.9c3.22-4.88 9.5-2.34 13.95-.97-1.1.97-2.14 2.03-3.37 2.85-3.58-.28-7.1-1.02-10.58-1.88zm37.08-1.67c4.2-.8 10.23-3.74 13.12.92-3.77 1.55-7.86 2.1-11.73.56l-.27-.07-1.12-1.4zM110.1 256.07c8.37-2.3 16.6-5.05 24.93-7.48l3.1 1.2c-4.58 3.32-10.32 3.98-15.55 5.75-4.9 1.32-9.62 3.33-14.64 4.1-1.36-1.08 1.54-2.48 2.15-3.56zm124 18.78l4.63-2.84c3.65.9 7.04 2.58 9.77 5.18-4.74 1.07-11.22 2.47-14.4-2.34zm-74.75-1.87c1.94 1.14 3.78 2.44 5.6 3.78-3.7 2.42-8.12 1.18-12.15.64 1.73-2.06 4.16-3.28 6.55-4.42z"/></g><g fill="#909090"><path d="M213.37 112.6c3.87 1.54 7.96 1 11.73-.56 2.3 1.54 4.83 2.63 7.38 3.67 1.46.58 2.94 1.1 4.4 1.67 1.6.55 3.03 1.44 4.43 2.36 1.46.9 2.97 1.7 4.5 2.46a15.44 15.44 0 0 1 3.66 2.43c1.6 1.35 3.28 2.6 5.1 3.66a95.36 95.36 0 0 1 1.36.79l1.07 1.25a505.9 505.9 0 0 1 11.78 12.74l.6.62.25.48c2.86 5.5 6.3 10.73 8.55 16.55 6.86 16.26 8.3 34.57 5.1 51.86-1.54 5.6-2.96 11.5-6.65 16.1.47-2.7 1.57-5.23 2.6-7.76.7-1.78 1.34-3.57 1.87-5.4.4-1.42.72-2.86 1-4.3l.92-5.04c.28-1.92.4-3.85.47-5.77l.1-5.07c.01-1.7-.02-3.4-.08-5.1-.07-1.75-.12-3.5-.3-5.25-.2-1.6-.5-3.17-.75-4.76-.3-1.9-.56-3.8-1-5.66l-1.12-3.7c-.7-2.27-1.3-4.58-2.13-6.8-.4-1-.86-1.95-1.28-2.92-.87-2.02-1.64-4.08-2.6-6.05l-1.4-2.5-2.86-4.63c-.9-1.4-1.84-2.76-2.83-4.1-1.03-1.4-2.1-2.76-3.18-4.1-1.1-1.3-2.3-2.5-3.46-3.7l-4.2-4.14c-1.17-1.04-2.4-2-3.65-2.94l-4.45-3.3a49.3 49.3 0 0 0-3.21-2.11c-1.9-1.15-3.85-2.25-5.83-3.27-1.2-.6-2.42-1.16-3.64-1.7l-5.5-2.35c-2.28-1.07-4.76-1.73-7.2-.82-3.52 1.27-6.94-.6-9.54-2.84zm-44.8 3.17l6.35-2.98c3.48.86 7 1.6 10.58 1.88-3.3 2.03-7.2 2.2-10.62.33a96.7 96.7 0 0 0-3.39 1.17c-2 .76-3.98 1.63-5.95 2.5-1.3.6-2.6 1.2-3.87 1.87l-5.6 3.05-2.67 1.68c-1.68 1.18-3.3 2.46-4.92 3.72-1.3 1.03-2.62 2.05-3.88 3.14-1.6 1.4-3.1 2.87-4.58 4.4-.9.93-1.74 1.9-2.57 2.87-1.22 1.48-2.4 3-3.56 4.53-.85 1.1-1.7 2.25-2.46 3.42-.96 1.52-1.82 3.1-2.7 4.65l-2.35 4.34c-.87 1.8-1.66 3.62-2.43 5.45-.5 1.2-1 2.4-1.43 3.64-.6 1.8-1.12 3.65-1.62 5.5a99.43 99.43 0 0 0-1.22 5.1c-.34 1.6-.64 3.22-.94 4.84a73.99 73.99 0 0 0-.68 4.43l-.53 5-.04.46c-.25 3.22-.1 6.45.15 9.67.1 1.67.24 3.35.46 5.02.27 1.95.64 3.88 1.03 5.8.3 1.4.62 2.77 1 4.15.55 1.9 1.23 3.77 1.9 5.63.43 1.98 2.96 4.86-.25 5.78l-.55-2.82c-.48-2.63-1.4-5.16-2.52-7.58l-.58-1.38c-.4-3.4-.76-6.83-1.68-10.14a10.59 10.59 0 0 1-.45-4.03c.43-7.34.13-14.76 1.7-22 2.02-12.38 7.35-23.9 13.85-34.53l.3-.5.8-.83c1.2-1.25 2.27-2.6 3.26-4.03.9-1.47 2-2.83 3.37-3.9 1.2-1.05 2.4-2.15 3.52-3.3 1.3-1.4 2.67-2.72 4.27-3.75 1.6-1.1 3.16-2.2 4.7-3.34 1.2-.92 2.47-1.78 3.8-2.5l5.35-2.9 2.38-1.18 5.26-2.33zm-5.87 152.35l6.12 2.3 4.3 1.7 6.05 2 4.78 1.38 5.08 1.02c3.68.63 7.33 1.52 11.06 1.83 4.15-.1 8.2-1.22 12.28-1.9l5.62-1.13 3.1-.85c2.37-.7 4.72-1.5 7.08-2.24l2.58-.83 1.6-.53-.72 1.9c-8.12 2.28-16.2 4.78-24.6 5.94-11.32 1.56-22.37 6.04-30.94 13.7l-1.2.54c1.3-2.94 4.1-4.65 6.68-6.34a46.77 46.77 0 0 1 9.95-4.98c1.92-.72 3.82-1.48 5.72-2.25-11.56-1.94-23.08-4.55-33.74-9.56l-.8-1.67zm38.56 15.52c2.57-1.02 5.17-2 7.88-2.65 4.95 2.46 10 4.84 14.34 8.3 1.12.8 1.96 1.92 2.5 3.2-5.3-3.33-10.12-7.58-16.15-9.53-2.45-1.05-5 .2-7.44.56l-1.12.12z"/></g><g fill="#090905"><path d="M238.32 143.16c2.8 1.98 6.37.82 9.33 2.3 2.73 1.24 4.4 4.44 7.68 4.38-3.1 2.55-1.6 6.93-3.62 10.13-1.16.62-2.07 1.5-2.3 2.86l-1.66-.03c4.74 7.52 2.2 18.08 8.95 24.56 3.2 2.98 4.8 7.08 6.45 11.03a22.44 22.44 0 0 0 1.24-4.32c-5.05-6.44-12.72-13.35-10.56-22.42.3 2.03.63 4.06 1.15 6.05.6.96.4 2.92 1.78 3.13 1.12-3.02 2.03-6.25 1-9.43l-.88 2.83c-.63-1.65-1.38-3.24-2.12-4.83l1.7-2.02c1.4 2.4 3.26 4.75 3.4 7.64-.2 1.65-1.14 3.1-1.47 4.72 3.34 5.07 9.08 8.85 10.25 15.13.73 4.37-3.7 6.82-6.44 9.33l3.04 3.55-2.5.37c2.36 2.97 6.24.7 9.34.64l1.2-1.4 1.47.95-.02.54c-.7.78-1.35 1.6-2.02 2.4-1.63.92-3.27 1.83-4.94 2.68-.52 3.38-1 6.77-1.33 10.18a65.46 65.46 0 0 1 4.41.35l1.5.88c1.55 1.16 3.08 2.37 4.56 3.63a177.73 177.73 0 0 0 4.53 3.78c3.1 2.43 6.1 5.04 8.7 8-3.26-.54-5.18 2.2-7.48 3.9-2.64 2-5.6 3.5-8.36 5.3l3.72 1.2c3.66 1.17 7.38 2.12 11 3.4l1.74-1.62-.3 1.8c4.54-3 9.15-6.87 14.94-6.62-2.9 1.42-5.92 2.83-8.07 5.33-2.8 2.7-1.32 7.15-3.7 10.15l-5.3-1.96 1.4 3.44-2.23 2.6c4.47-.24 8.94-.53 13.4-1.1 2.4-3.04 3.42-6.75 4.57-10.37 1.68-4.73 6.34-7.16 10.63-9.06l-.8-.97c5.4 1.68 10.95 5.18 12.72 10.85 1 2.87-.27 5.76-1.52 8.32 3.8-.74 4.96 2.95 6.17 5.7.25 2.07-1.75 3.4-2.77 4.96-1.92 3-5.78 1.1-8.25-.08 1.97.36 3.96.83 5.98.7 2.67-1.75 5.6-5.23 2.98-8.34l-3.28 1.98 2.96-3.75c-4.67-1.44-5.9 5.15-10.33 4.9-6.94-.03-13.2-3.65-20-4.43 3.78 2 7.98 2.97 11.92 4.6-4.8-.36-9.07-2.95-13.76-3.84-2.68-.03-5.37-.07-8.02.32-1.8.28-3.44 1.46-5.3 1.3-2.2-1.1-1.6-4.18.53-4.98l3.77.43c-1.06-1.26-1.3-3.46-3.18-3.8a410.94 410.94 0 0 0-15.47-4.65c-3.9-1.02-7.75-2.27-11.6-3.47-5.64-2.55-10.98 1.9-16.46 2.83a176.56 176.56 0 0 0-4.78 1.39l-.47.15c-12.1 3.2-24.57 5.6-37.15 5.43-11.4.18-22.73-1.68-33.82-4.23l-4.5-1.14c-2.9-.76-5.8-1.48-8.67-2.36l-8.74-2.98c-2.03-.78-4.08-1.45-6.12-2.18l-3.1-1.2-24.93 7.48-3.84 1.4c.25 1.74-.17 3.75.9 5.26 12.22-2.72 23.97-7.36 36.15-10.36-4.94 2.5-10.37 3.68-15.63 5.26-4.73 1.27-9.35 2.93-14.1 4.12a87.64 87.64 0 0 0-1.63 4.45l2.96-1.92c.93 1.08 3.03 1.9 2.56 3.63-.35 2.68-3.84 1.87-5.4.75-3.4-.74-6.9.22-10.3-.5-4.38-1.98-8.62 1.46-12.88 2.28-3.96.95-9.4 2.88-12.47-.92-1.08-1.25-2.86-3.78-4.44-1.7l.3 1.3c-1.07.53-2.22.98-3.1 1.8l-.92.8c1.72 2.05 3.3 4.3 5.48 5.9l3.5-.96-3.37-1.95.2-1.43c2.52.53 5 1.35 7.6 1.45 2.52-.48 4.74-1.9 7.14-2.76l1.38-.05c-5.2 2.84-10.86 4.57-16.47 6.35-2.93-1.48-6.75-4.94-5.15-8.54 1.63-1.93 2.86-4.22 5.9-3.78-.6-2.03-1.55-4-1.77-6.12.4-5.7 5.25-9.9 10.2-12 3.1.53 6.38 1.18 8.7 3.47 2.73 2.27 4.02 5.65 5.42 8.8l-1.03.07c-.76-2.43-1.58-5.1-3.86-6.55-2.1-1.74-4.97-1.33-7.5-1.24l1.4-1.04c-3.8-.4-8.06-.04-10.68 3.08-3.1 3-2.35 7.9-.3 11.27.55 1.3 1.5 1.62 2.86.98-3.3-4.63-1.3-11.94 4.18-13.82l1.6-.28c-4.7 2.02-8.53 7.75-5.67 12.7 2.95 0 5.83-.8 8.75-1.14l-.54 2.55 1.13.2.03-3.42c1.62-.37 3.25-.73 4.83-1.24l1.92 3.28 2-4.98c1.57 2.5 2.7 6.12 6 6.77 3.14.52 6.34.24 9.5.3l.47-5.35-5.37 1.67c-.9-2.5-1.16-5.18-1.67-7.78-1.96-4.1-6.34-6.17-10.35-7.8l5.22-.75.6-.08-.05.72c2.17.46 4.14 1.5 6.16 2.38 1.74 1.4 3.1 3.48 5.23 4.3 2.6-.75 6.33-.56 7.62-3.45 1.5.08 3-.01 4.5-.04-5.1-3.36-10.58-6.22-14.82-10.74l-2.83.1c3.17-3.64 7.33-6.14 11-9.2l2.38-1.87c1.7-1.32 3.44-2.63 5.3-3.76a60.27 60.27 0 0 1 3.12-1.81l2.06.22c3.03.5 5.95 1.48 8.93 2.25-.47-2.9-1.5-5.64-4.25-7.05 1.72-.02 3.28-.52 4.66-1.5-2.85-3.36-7.33-4.3-10.63-7l-1.56-1.4-.5-1.07c4.77-.45 9.46.57 14.04 1.78 1.63.92 3.2-.82 3.57-2.26 0-2.35-.3-4.7-.37-7.03-2.8 1.8-6.83 3.3-9.23 0-1.2 1.2-2.47 2.33-3.82 3.36l-.75-3.42c-.56 1.34-1.1 2.7-1.6 4.05-.58-1.64-1.3-3.28-1.34-5.04 1.47-3.15 4.38-5.6 4.93-9.17 1.85-6.43 3.2-13.68 8.23-18.47 3.7-3.43 10.3.86 9.1 5.64-1.45 7.42-6.8 13.18-11.54 18.77 1.58.75 3.4 1.86 4.78.08.74-1.62 1.17-3.38 2.04-4.95 1.68-2.45 4.57-4.05 5.42-7.06 1.72-4.42 1.3-9.34-.37-13.7l-3.67.03 1.57-3.87c-1.5.02-3-.15-4.4-.75l1.92-2.88-2.5-.4c.1-1.75.27-3.5.2-5.25a35.81 35.81 0 0 0-2.89-1.89c2.44-2.53 4.04-5.82 6.82-8 3.64-2.47 8.2-.83 12.27-1.52-.9 3.67 1.78 8 5.92 6.96-.8 1.23-1.74 2.35-2.4 3.66 1.1.57 2.34.42 3.52.28l-.3 2.52c-1.34 2.28 1.77 3.1 2.82 4.55 4.2 1.72 8.8 1.2 13.18.67 3.3-.37 7.5.2 9.15 3.5-.75-.28-1.48-.58-2.2-.9-4.27-2.6-9.27-.92-13.9-1.08-2.8.14-5.45-.73-8.02-1.7l-2.47.98 1.65 3.23-5.18.84 5 4.45c1.77-.98 3.57-1.93 5.4-2.8-.9 2.15-3.4 2.63-5.1 3.9 1.85 2 3.38 5.1 6.43 5.3 1.95.6 5.04-.08 5.93 2.28 2.2 3.54-2.08 8.84-6.05 6.98-1.6-.77-3.14-1.7-4.63-2.67-2.96 1.7-5.8 3.58-8.54 5.6 1.38 1.94 3.06 3.7 4.16 5.83.75 4.38-1.36 8.6-1.34 12.97 2.84 1.73 6.72.94 9.2 3.6l-2 3.37c2.8.45 5.63 1.14 7.97 2.82-2.92-.48-5.74-1.44-8.5-2.44l-2.8.88c-4.1-.87-8.26-1.5-12.42-2l.82-4a28.58 28.58 0 0 0-7.71 3.86l32.35 9.83c2.5.75 5.02 1.54 7.3 2.83-12.47-3.5-24.85-7.37-37.22-11.2-1.27-.33-2.7-1.02-3.7.27-.06 2.67 2.7 3.67 4.38 5.16-1.4 1.48-2.97 2.78-4.6 4 8.52 2.72 16.8 6.5 25.66 7.94 6.1-.8 11.7-3.9 17.85-4.68-4.8 2.67-10.3 3.5-15.52 4.97 3.9.9 7.8 1.9 11.8 2.05 3.66-.36 7.16-1.74 10.27-3.68.1.14.3.43.4.58-2.28 1.5-4.9 2.3-7.37 3.37 8.37.8 16.94 1.1 25.26-.32-2.68-1-5.47-1.68-8.06-2.9 3.6.36 6.84 2.23 10.43 2.7 3.63.05 7.1-1.27 10.58-2.16-4.63-1.92-9.7-2.5-14.25-4.6 5.78.28 11.04 2.98 16.64 4.12 8.96-2.2 17.15-6.68 25.9-9.53-.47-1.68-1.74-3.76-.26-5.28 1.88-1.52 4.65-1.6 6.12-3.7-1.66.15-3.3.37-4.9.84l-30.77 9.4c-3.58 1.03-7.1 2.42-10.83 2.73 14.83-4.83 29.84-9.22 44.8-13.68l-3.74-4.16c-3.47.92-6.9 2.05-10.4 2.86-2.38 1.58-4.62 4.3-7.8 3.68-3.97-.63-7.63 1.27-11.37 2.2l-1.87 1.03.84-1.78c2.98-.7 5.92-1.58 8.85-2.47-1.23-2.35-.82-4.65.96-6.5 4-.05 5.94-3.73 7.44-6.9-2.4-3.72-5.15-7.6-5.37-12.2-.13-2.02 1.38-3.56 2.3-5.18l-3.12-3.78c-2 1.27-3.8 2.8-5.4 4.53l-2.02-.58.05 1.1a42.53 42.53 0 0 1-4.06-.71c-1.54-1.56-1.4-4-1.02-6 .78-2.1 3.34-1.9 5.12-2.4 1.17-.04 1.96-.93 2.82-1.62-1.22-3.08-1.44-6.43-1.4-9.7l-2.65-.5 3.67-1.87c.85 3.72.36 7.6 1.33 11.3l1.03-2.74c1.8-2.17 3.45-4.48 5.56-6.36-.78 1.4-1.6 2.74-2.45 4.1l2.5 2.45-3.16-.86-2.27 3.45c2.9.2 5.77-.27 8.53-1.14-2.57 2.07-5.75 2.5-8.9 1.78-2.05 2.26-4.95 2.93-7.8 3.5l-1.55 3.42 2.9-1.06c-.85.9-1.7 1.82-2.47 2.78 1.37 1.8 3.07.6 4.6-.17l1.68.23c1.9-2.2 4.32-3.8 7.27-4.06 1.92-2.55 4.96-3.32 7.86-4.17 2.8-.78 4.1-3.63 4.93-6.15-1.8.97-3.54 2.04-5.26 3.14 1.92-2.08 3.68-4.36 4.43-7.15-1.85 1.13-3.65 2.34-5.45 3.54 1.37-1.66 2.86-3.26 3.93-5.14-.4-1.33-1.06-2.56-1.66-3.8 1.8-2.08 3.97-3.97 5.1-6.54.55-1.9.63-3.9.9-5.87-1.93-1.52-3.7-3.36-6.03-4.3-2.3-.72-4.77-.74-7.15-1.03-1.32 2.1-3.64 3.92-3.5 6.63.1 3.13-.46 6.87 1.84 9.4 1.54 1.17 3.45 1.7 5.22 2.45-3.37.36-7.1-.1-9.9 2.2l-1.37-.75c1.65-1.16 3.85-2.32 3.16-4.73-1.87 1.5-3.5 3.37-5.62 4.53-6 2.36-13.1-.8-18.72 2.93l-1.34.67c.5-1.4 1.43-2.73 2.93-3.2 5.58-1.68 11.76.55 17.14-2.06 3.08-1.4 4.7-4.48 5.96-7.45l-2.07-.95c1.06-1.9 1.7-3.95 1.98-6.1 1.6-1.62 2.9-3.5 3.3-5.8m-90.83 6.18c-2.1 1.8-3.5 4.24-5.17 6.4 2.64.8 1.8 3.55 1.94 5.6 1.53 1.3 2.7 2.83 1.5 4.86l2.5-.7c1.12 1.5.2 3.2-.12 4.8l2.76-1.62.4 3.7c1.05-.97 1.8-2.18 2.33-3.5.86 1.38 1.65 2.78 2.43 4.2l1.45-2.96 2.6 2.42.1-4.77 3.8 1.35c-.37-1.38-.77-2.74-1.06-4.14l3.27-.62-2.3-2.52 1.14-2.46c-2.47-.2-3.76-2.17-2.84-4.5-1.2-.76-2.4-1.5-3.63-2.22l.36-.18c-.52-1.4-.87-2.86-1.14-4.32-3.44.07-7.23-.8-10.3 1.2m-8.67 28.17c1.83-2.34 4.08-4.34 7.27-3.66v-.48c-2.9-2.6-7.15.85-7.27 4.14m12.8-3.7c1.7 5.73.72 12.8-4.1 16.76-2.18 1.8-2.63 4.68-3.96 7.02-1.24 1.47-3.07 2.2-4.7 3.13l-3.36-1.1c.98 1.15 2.15 2.12 3.4 2.97 2.04-1.12 3.87-2.84 6.15-3.4.3 2.9.6 5.82.6 8.74.08 2.1-1.9 3.28-3.3 4.5a11.25 11.25 0 0 1-2.06 4.01c-.14 1.55-.65 3-1.6 4.23.9 2.68 1.13 5.7 3.14 7.87l3.57-.86a117.2 117.2 0 0 0-2.27-2.73c1.66.77 3.35 1.77 5.24 1.03-.86-.66-1.74-1.3-2.62-1.93-.5-1.6-1.83-3.35-.73-5 1.87-4.18 7.53-4.4 9.5-8.55 2.08-2.72 1.66-6.24 1.57-9.43-2.7.14-4.45 2.02-5.85 4.14-3.06-2.1-1.9-6.28-1.96-9.42.73 2.6.44 5.57 2.04 7.87.37-2.3 2.47-2.27 4.2-2.58-.1-2.24-.9-4.56-.34-6.77 1.2-1.76 2.96-3 4.67-4.2-1.82 2.36-4 4.72-3.64 7.95 2.3-4.5 5.7-8.5 10.35-10.66l-2.55-1.78-2.1 2.56c-1.38-1.42-2.73-3.18-5-2.43-2-1.55-1.4-4.46-1.8-6.65l1.6-.1c.02 2.08.08 4.15.23 6.22 1.05-1.2 2.05-2.45 3-3.73.43 1.76.85 3.5 1.4 5.25a14.07 14.07 0 0 0 1.75-3.35c2 1.64 4.24 3.75 6.97 2.33 1.18 2.82 5.5 4.3 8.05 2.53l-4.42-2.16c1.9.22 3.8.52 5.7.8-.42-4-5.05-4.02-7.95-5.2-3.98-2.27-5.28-7.3-9.26-9.56l-1.6 1.97-1.52-1.37-3.16 3.23-.6-4.37-2.66 2.22m-5.53.05c1.93 4-1.45 7.55-1.3 11.6 2.57-2.94 5.44-8.77 1.76-11.76l-.46.17m-6.86 5.35l-.4-1.7-.3-1c-2.38 4.9-3.82 10.17-5.17 15.43-.8 3.22-3.24 5.65-4.76 8.52l3.5-2.4-.6 4.48c2-1.3 2.95-3.48 3.82-5.6 1.25 1.23 2.63 2.32 4.35 2.84-1.64-2.27-3.83-4.42-3.9-7.42-.1-3.94 1.3-7.73 2.16-11.54l1.04-.96c-.78 4.04-1.8 8.03-2.47 12.1 3-1.48 5.18-4.3 5.23-7.7l2 .1c.57-2.36.1-5.36 2.54-6.77-.68-1.15-.97-2.78-2.44-3.2-2.22.82-3.28 3.05-4.62 4.8m107.15-.2c-1.44 1.46-3.42 1.8-5.38 1.9l-1.94 2.26c2.07 1.7 4.02 3.55 5.62 5.7l-5.2-3c2.12 3.14 5.66 4.82 8.1 7.67.52-2.23 1.67-4.22 3.4-5.74-1.85 4-3.3 8.27-2.5 12.75 2.23.23 4.47.47 6.68.82l-6.45.5c.2 4.02 4.82 2.06 7.44 2.6a125.02 125.02 0 0 1-5.09.78l.57 1.85c2.42-.36 4.92-.53 7.3.14l-6.37.46 1.97 2.3 4.58-.55-3.73 1.6c1.32 2.53 3.92 3.12 6.53 3.12l-2.98.3c.6 1.82 3.05 3.52 2.24 5.6-1.38.9-3.05 1.14-4.58 1.64-.57 1.27-1.13 2.54-1.63 3.83a27.85 27.85 0 0 0 2.87-1.36l-.2 2.9c2.22 1.15 2.7-2 3.85-3.22a72.05 72.05 0 0 0-.92 3.79c1.85-.8 3.34-2.16 4.73-3.58.15-2.33.4-4.64.8-6.94l-1.9-1.58 2.34.2c.42-3.02-2.24-3.25-4.45-3.62l2.42-.86-3.34-2.84 1.4-1.5-1.7-2.84c1.76-1.73 3.64-3.36 5.14-5.34-4.5 2.4-5.3-3.1-6.63-5.98l-2.1 4.24c.32-2.47.72-4.93.72-7.42-1.55 1.52-2.63 3.4-3.65 5.28l1.8-6.63-1.85-1.1a115.52 115.52 0 0 1-2.11 4.15c.44-2.55 1.27-5.1.9-7.7l-5.06 3.24c1.6-1.97 3.84-3.7 3.98-6.46l-4 1.9c1.3-1.7 2.9-3.37 2.93-5.68-1.54.78-3.06 1.6-4.55 2.46m11.8 4c-.55 1.3 1.33 2.38 1.88 3.4 1.16.92 1.46 3.8 3.45 2.57 1.2-1.3-1.85-2.24-2.4-3.32-.77-1.1-1.26-2.95-2.93-2.65m-113.84 2.27c-1.43.7-2.43 2.75-2.17 4.3 1.57-.1 3.3-2.6 2.6-4.12l-.44-.18m93.35 6.97l3.34.22c-1.34.7-2.8 1.3-3.68 2.65h5.4c-.1-2.25-.7-4.47-2.23-6.18-1.6.37-2 2.17-2.87 3.32m26.4-2.2c-.77 1.7 1.04 2.75 1.83 4-.46 1.48-.7 3-.67 4.54 2.58-.5 2.24-3.4 1.4-5.14-.52-1.13-.77-4-2.55-3.4m-25.5 7.87c2.6-.53 5.12.2 7.58 1-1.3-2.75-6.83-5.4-7.58-1M156.84 200c.1 2.33.92 4.6.67 6.94-.55 2.18-1.9 4.02-3 5.92 1.8.98 1.24 2.78.92 4.44 2.6.27 5.18.62 7.77.94 1.06.87 2.66.8 3.93 1.26l.84-2.6c1.63.38 1.93-.05.9-1.3l.47-.4c-2.15-.37-4.3-.8-6.4-1.28-2.62-1.3-1.35-4.54-1.98-6.82-.7-2.9.7-6.3-1.42-8.76-1.2-2.02-2.77.15-2.68 1.63m82.67-1.33c.96 2.4 3.52 3.04 5.67 3.96l-3.63-.52c1.06 1.5 2.18 3.02 3.35 4.47l-1.75-.53c-1.7 3.26-3.74 6.98-7.8 7.46l-1.6 3.72 3.2-1.94-1.2 3.2c2.23-.03 2.86-1.98 3.65-3.64l-.4 3.48 3.62-2.4.14-4.72 1.93.38c-.23-1.93.3-3.7 2.12-4.6.26-2.57.35-5.15-.06-7.7l-2.32.03a17.04 17.04 0 0 0-4.91-.65m9.7 7.32c-.45 1.87-.18 4.66-3.13 3.86l1.73 2.16-2.22 2.46-2.13-1.03 1 2.22c3.4-1.38 6.87-2.53 10.45-3.3-1.95-2.08-3.8-4.24-5.7-6.36M128.2 209.4c3 2.84 6.84 4.92 10.8 6.02l2.1-1.36-1.84-3.4c-3.62-.93-7.32-1.53-11.07-1.27m137.64 1l1.7 3.03c2.07-1.08 4-2.4 5.67-4.03-2.48.17-4.92.62-7.37 1M127.3 226.2c-6.04 3.83-11.74 8.2-17.4 12.57 9.16 1.74 17.56 5.98 26.37 8.88 22.2 8.4 45.78 14.8 69.74 13.52 24.77-1.1 47.97-10.66 70.87-19.3 3.22-1.34 6.63-2.14 10.1-2.5-5.22-5.22-11.25-9.5-17.05-14.05-2.37.01-4.65.5-6.47 2.1-2.1 2.02-5 .82-7.43.27-10.26 3.92-20.2 8.84-31 11.22-20.6 4.5-42.27 3.07-62.5-2.6-10.1-3-19.78-7.3-29.96-10.06-1.74-.27-3.7-1.3-5.28-.02m133.43 23.17c-1.67.54-3.32 1.12-4.9 1.9l22.27 6.6c5.1 1.58 10.24 3 15.27 4.78l1.44-3-.4-2.76-27.44-8.4c-2.14-1.07-4.24.14-6.24.9m51.17 2.52c-3.84.42-5.92 4.13-7.12 7.38l3.27 1.02-3.1.43c2.02.64 1.57 2.7 1.75 4.37.57-1.28 1-2.68.5-4.1 2.6 2.23 6.7.12 8.9 3.18l2.97.03 1.15 2.75-.85 2.26c.87-.7 1.76-1.36 2.52-2.18a5.4 5.4 0 0 0-1.46-2.6l2.92-.14c2.3-6-2.95-12.08-8.93-12.5 6.53-1.17 11.4 5.92 10.2 11.9l-1.8 2.17 2.07 1.13c1.6-3.07 3.46-6.45 2.4-10-2.1-5.8-10.32-8.85-15.4-5.08m1.8 15.97c1.33-1.56 1.9-3.97-.12-5.34-2.85.77-.12 3.6.12 5.34m-28.42-2.22c-1.9 1.27.7 3.7 2.06 2.1 1.34-1.28-.73-3.45-2.06-2.1m-171.1.35c-1.8.6-.65 3.17 1 2.62 1.98-.34.6-3.3-1-2.62zM237.38 150.4c.98-.97 1.98-1.95 3.25-2.53l3.56 1.78c-1 1.8-2.94 1.13-4.5.5-3.03-.65.2 2.6-.74 4.1l2.1.97.32-1.74c1.44.62 2.98.8 4.53.82l-1.98 1.7 1.75.36-2.56 5.2-2.24-1.12c.5-1.45 3.37-2.63 2.22-4.38l-3.02-.42.63 5.45c-2.7-.84-3.15-2.94-2.06-5.25-.64-1.75-1.34-3.57-1.28-5.47zm-86.48 1.87l4.28-1.9.6 2.1c-1.7 1.16-3.44 1.5-4.88-.2zm95.2-1.9c1.85 1.08 3.52 2.42 4.94 4.03-1.28 1.86-2.67 3.74-4.83 4.64l2.94-3.52-.2-1.8a22.01 22.01 0 0 1-3.67-.96l.8-2.4z"/><path d="M146.2 156.78c-.48-2.07 2.2-2.54 3.4-3.66l1 2.38c-1.4.7-2.77 1.7-4.4 1.28zm6.4 48.3l1.23-.88c1.07 4.35-1.83 7.9-5.5 9.8l.05-1.23c2.04-1.5 3.72-3.4 4.9-5.63l-.7-2.06z"/></g><g fill="#c8a41a"><path d="M239.33 145.4c2.38.3 4.84.3 7.15 1.03 2.32.94 4.1 2.78 6.03 4.3-.28 1.96-.36 3.96-.9 5.87-1.12 2.57-3.3 4.46-5.1 6.54.6 1.24 1.26 2.47 1.66 3.8-1.07 1.88-2.56 3.48-3.93 5.14l5.45-3.54c-.75 2.8-2.5 5.07-4.43 7.15l5.26-3.14c-.82 2.52-2.13 5.37-4.93 6.15-2.9.85-5.94 1.62-7.86 4.17-2.95.26-5.38 1.86-7.27 4.06l-1.68-.23c-1.52.78-3.22 1.96-4.6.17l2.47-2.78-2.9 1.06 1.55-3.42c2.86-.56 5.76-1.23 7.8-3.5 3.16.72 6.34.3 8.9-1.78-2.76.87-5.63 1.33-8.53 1.14l2.27-3.45 3.16.86-2.5-2.45 2.45-4.1c-2.1 1.88-3.75 4.2-5.56 6.36l-1.03 2.74c-.97-3.7-.48-7.57-1.33-11.3l-3.67 1.87c-5.6.34-11.26.23-16.86-.1 5.6-3.72 12.72-.57 18.72-2.93 2.12-1.16 3.75-3.02 5.62-4.53.7 2.4-1.5 3.57-3.16 4.73l1.37.75c2.8-2.3 6.54-1.84 9.9-2.2-1.77-.74-3.68-1.28-5.22-2.45-2.3-2.52-1.73-6.26-1.84-9.4-.14-2.7 2.18-4.52 3.5-6.63m-1.95 5c-.06 1.9.64 3.72 1.28 5.47-1.1 2.3-.64 4.4 2.06 5.25l-.63-5.45 3.02.42c1.15 1.75-1.72 2.93-2.22 4.38l2.24 1.12c1.02-1.65 1.77-3.45 2.56-5.2l-1.75-.36 1.98-1.7c-1.55-.02-3.1-.2-4.53-.82l-.32 1.74-2.1-.97c.95-1.5-2.3-4.76.74-4.1 1.55.63 3.48 1.3 4.5-.5l-3.56-1.78c-1.27.58-2.27 1.56-3.25 2.53m8.7-.04l-.8 2.4a22.01 22.01 0 0 0 3.67.96l.2 1.8c-1 1.15-2 2.3-2.94 3.52 2.16-.9 3.55-2.78 4.83-4.64-1.42-1.6-3.1-2.95-4.94-4.03zm-81.52 15.75l2.47-.98c2.57.96 5.23 1.83 8.02 1.7 4.64.16 9.64-1.53 13.9 1.08-5.9.83-11.84.1-17.75.48l.23 3.46a76.63 76.63 0 0 0-5.4 2.8l-5-4.45 5.18-.84-1.65-3.23zm-12.92 7.7l2.66-2.22.6 4.37 3.16-3.23 1.52 1.37 1.6-1.97c3.98 2.26 5.28 7.3 9.26 9.56 2.9 1.18 7.53 1.2 7.95 5.2l-5.7-.8 4.42 2.16c-2.54 1.78-6.87.3-8.05-2.53-2.73 1.42-4.97-.7-6.97-2.33a14.07 14.07 0 0 1-1.75 3.35c-.54-1.74-.96-3.5-1.4-5.25-.94 1.28-1.94 2.53-3 3.73-.15-2.07-.2-4.14-.23-6.22l-1.6.1c.4 2.2-.18 5.1 1.8 6.65 2.26-.75 3.6 1 5 2.43l2.1-2.56 2.55 1.78c-4.66 2.17-8.06 6.15-10.35 10.66-.37-3.23 1.82-5.6 3.64-7.95-1.7 1.2-3.48 2.43-4.67 4.2-.56 2.2.23 4.53.34 6.77-1.74.3-3.84.28-4.2 2.58-1.6-2.3-1.3-5.26-2.04-7.87.05 3.14-1.1 7.32 1.96 9.42 1.4-2.12 3.14-4 5.85-4.14.1 3.2.5 6.7-1.57 9.43-1.96 4.14-7.62 4.37-9.5 8.55-1.1 1.64.24 3.4.73 5l2.62 1.93c-1.9.74-3.58-.26-5.24-1.03l2.27 2.73-3.57.86c-2-2.17-2.25-5.2-3.14-7.87.96-1.23 1.47-2.68 1.6-4.23a11.25 11.25 0 0 0 2.06-4.01c1.4-1.2 3.38-2.4 3.3-4.5.01-2.92-.28-5.84-.6-8.74-2.28.57-4.1 2.3-6.15 3.4-1.25-.85-2.42-1.82-3.4-2.97a73.08 73.08 0 0 1 3.36 1.1c1.62-.94 3.45-1.66 4.7-3.13 1.33-2.34 1.78-5.23 3.96-7.02 4.8-3.97 5.8-11.03 4.1-16.76m.98 31.27l.7 2.06c-1.18 2.23-2.86 4.13-4.9 5.63l-.05 1.23c3.66-1.9 6.56-5.45 5.5-9.8l-1.23.88zm93.8-26.07l4.55-2.46c-.02 2.3-1.62 3.97-2.93 5.68l4-1.9c-.14 2.75-2.37 4.5-3.98 6.46l5.06-3.24c.36 2.6-.47 5.15-.9 7.7l2.1-4.15 1.85 1.1-1.8 6.63c1.02-1.88 2.1-3.76 3.65-5.28 0 2.5-.4 4.95-.72 7.42l2.1-4.24c1.32 2.87 2.12 8.38 6.63 5.98-1.5 1.98-3.38 3.6-5.14 5.34l1.7 2.84-1.4 1.5 3.34 2.84-2.42.86c2.2.37 4.87.6 4.45 3.62l-2.34-.2 1.9 1.58c-.38 2.3-.64 4.6-.8 6.94-1.4 1.42-2.88 2.78-4.73 3.58l.92-3.8c-1.16 1.22-1.63 4.37-3.85 3.22l.2-2.9c-.93.5-1.9.97-2.87 1.36l1.63-3.83c1.53-.5 3.2-.75 4.58-1.64.8-2.07-1.64-3.77-2.24-5.6l2.98-.3c-2.6 0-5.2-.6-6.53-3.12l3.73-1.6-4.58.55-1.97-2.3 6.37-.46c-2.4-.67-4.9-.5-7.3-.14l-.57-1.85 5.1-.78c-2.62-.54-7.23 1.42-7.44-2.6l6.45-.5-6.68-.82c-.8-4.48.65-8.75 2.5-12.75-1.72 1.52-2.87 3.5-3.4 5.74-2.45-2.85-6-4.53-8.1-7.67l5.2 3c-1.6-2.16-3.55-4-5.62-5.7l1.94-2.26c1.96-.1 3.94-.45 5.38-1.9zm-89.53 20.96c-.1-1.48 1.48-3.65 2.68-1.63 2.12 2.45.72 5.87 1.42 8.76.63 2.28-.64 5.52 1.98 6.82l2.56 1.82-3.6.9 1.32 1.58-7.77-.94c.32-1.66.9-3.46-.92-4.44 1.12-1.9 2.46-3.74 3-5.92.25-2.33-.57-4.6-.67-6.94zm-73.95 47.9c5.4-2.2 11.65-2.6 17.04-.23l-5.22.75c4 1.62 8.4 3.68 10.35 7.8.5 2.6.76 5.27 1.67 7.78l5.37-1.67-.47 5.35c-3.17-.06-6.37.22-9.5-.3-3.3-.65-4.43-4.26-6-6.77l-2 4.98-1.92-3.28c1.1-.94 1.94-2.67 3.76-2.06l1.03-.07c-1.4-3.15-2.7-6.53-5.42-8.8-2.3-2.3-5.6-2.94-8.7-3.47zm222.5.26c3.3-1.84 7.1-1.38 10.7-.98-4.3 1.9-8.95 4.33-10.63 9.06-1.15 3.62-2.18 7.33-4.57 10.37-4.45.58-8.92.87-13.4 1.1l2.23-2.6-1.4-3.44 5.3 1.96c2.38-3 .9-7.46 3.7-10.15 2.15-2.5 5.18-3.9 8.07-5.33z"/></g><path d="M147.5 149.34c3.07-2 6.86-1.13 10.3-1.2.27 1.46.62 2.92 1.14 4.32l-.36.18c-.35.2-1.06.55-1.4.73l1.8 2.93c-1.38.97-2.8 1.9-4.2 2.8l-.56-3.97c-.87.94-1.72 1.9-2.54 2.9.4 1.28.3 2.56-.64 3.62-2.06-.54-3.85-1.72-5.7-2.7 1.13 2 3.16 2.97 5.25 3.66l1.7 2.52c.4-2.53.01-6.78 3.88-5.8l2 1.65c-1.78 1.83-3.97 3.16-6.07 4.57.72.67 1.43 1.36 2.12 2.07 1.6-1.3 3.28-2.47 5.03-3.55l1.73.22c-.83-1.92-1.68-3.82-2.58-5.7l1.26-2.6-1.1-3.4c1.22.7 2.43 1.46 3.63 2.22-.92 2.33.37 4.3 2.84 4.5l-1.14 2.46 2.3 2.52-3.27.62c.3 1.4.7 2.76 1.06 4.14l-3.8-1.35-.1 4.77-2.6-2.42-1.45 2.96c-.78-1.43-1.57-2.83-2.43-4.2-.54 1.32-1.28 2.53-2.33 3.5l-.4-3.7-2.76 1.62c.33-1.6 1.24-3.3.12-4.8l-2.5.7c1.2-2.03.04-3.55-1.5-4.86-.15-2.04.7-4.8-1.94-5.6 1.68-2.16 3.08-4.6 5.17-6.4m3.42 2.93c1.44 1.7 3.2 1.35 4.88.2l-.6-2.1c-1.46.54-2.86 1.23-4.28 1.9m-4.72 4.5c1.64.4 3.02-.58 4.4-1.28l-1-2.38c-1.2 1.12-3.88 1.6-3.4 3.66z" fill="#cda71a"/><g fill="#000007"><path d="M157.16 153.37l1.4-.73 1.1 3.4-1.26 2.6 2.58 5.7-1.73-.22c-1.75 1.08-3.43 2.26-5.03 3.55l-2.12-2.07c2.1-1.4 4.3-2.74 6.07-4.57l-2-1.65c-3.87-.98-3.5 3.27-3.88 5.8l-1.7-2.52c-2.1-.7-4.12-1.65-5.25-3.66 1.86.97 3.65 2.15 5.7 2.7.95-1.06 1.04-2.34.64-3.62l2.54-2.9.56 3.97 4.2-2.8-1.8-2.93zm138.5 95.43c5.66-3.02 12.35-4.06 18.64-2.73-6.35-.37-12.77.06-18.64 2.73zm29.16 21.22l5.57 1.46-2.17.82c-1.24 3.14-4.6 3.42-7.54 3.42-3.23-.47-6.05-2.26-8.67-4.1l7.03 2.77c3-.12 5.88-1.2 8.8-1.87l-3-2.5z"/></g><g fill="#b7161b"><path d="M172.8 169.9h55.6c.12 3.34.23 6.7.12 10.04-1.78.5-4.34.3-5.12 2.4-.4 2-.52 4.44 1.02 6a42.53 42.53 0 0 0 4.06.71c.06 6.62.46 13.25-.01 19.85-1.53 9.8-9 17.42-16.9 22.8-3.4 2.24-6.84 4.58-10.72 5.87-1.72-.3-3.36-.95-5.04-1.38-.1-.15-.3-.44-.4-.58l.2-.28c-10.02-5.55-20.12-13.7-22.7-25.42-.78-6.5-.2-13.1-.28-19.62 3.97 1.86 8.24-3.44 6.05-6.98-.9-2.36-3.98-1.68-5.93-2.28-.1-3.72-.03-7.43.04-11.15m27.64 9.23c.08 2.82-2.1 2.86-4.17 2.68l2.7 2.24a65.23 65.23 0 0 0-1.19 3.02l2.87-1.8 2.94 1.82-1.28-3 2.54-2.15c-2.38.68-3.65-.82-4.4-2.8m-13.6 9.66c1.94 1.3 2.82 3 1.43 5.2 1.77-2.02 3.7-1.96 5.45.02-1.42-2.2-.34-3.93 1.42-5.3-2.26.5-3.7-.46-4.02-2.76-.9 1.75-1.74 3.78-4.28 2.84m22.14.1l-3.1-.33c.86.83 1.74 1.63 2.62 2.45l-1.16 3.08 2.82-1.96 2.95 1.82-1.17-2.97 2.42-2.08c-2.35.38-3.7-.8-4.16-3.06l-1.23 3.05m-14.5 8.26l-.77 2.97-3.25.14 2.45 2.1-.97 2.94 2.82-1.74 2.7 1.92c-1.34-2.14-.6-3.9 1.27-5.28-2.55.8-3.43-1.15-4.24-3.04m12.13.07c-.53 2.2-1.76 3.7-4.26 3.14l2.45 1.92-.96 3.12 2.8-1.85 2.82 1.92-1.1-3.13 2.44-1.92c-2.5.43-3.65-1.08-4.18-3.2m-23.22 2.74c-.98 6.13 1.1 12.77 5.96 16.76 5.97 5.3 15.7 5.55 21.9.52 5.25-3.93 7.82-10.94 6.4-17.33-1.86 8.75-10.75 15.4-19.72 13.7-7.25-.9-12.46-6.98-14.53-13.64zm-56.1 26.24c1.58-1.27 3.54-.25 5.28.02 10.18 2.75 19.85 7.07 29.96 10.06 20.22 5.67 41.9 7.1 62.5 2.6 10.8-2.38 20.74-7.3 31-11.22 2.42.55 5.33 1.75 7.43-.27 1.82-1.58 4.1-2.08 6.47-2.1 5.8 4.54 11.83 8.83 17.05 14.05-3.47.37-6.88 1.17-10.1 2.5-22.9 8.65-46.1 18.2-70.87 19.3-23.96 1.3-47.53-5.12-69.74-13.52-8.8-2.9-17.2-7.14-26.37-8.88 5.66-4.37 11.36-8.74 17.4-12.57m5.62 3.74l-.04.66-1.54.76c-.46 3-.47 6.07-1.5 8.95.64 1.82 2.16 3.7 4.26 2.4 1.38-.33 2.64-.98 3.87-1.65.47 1.22.54 2.76 1.9 3.42l1.35 1.4c3.27-2.72 6-6.8 4.96-11.25l-1.6 1.78-2.2-4.03-4.16-.54c-2-.06-2.87 1.8-4 3.1-.05-1.77.52-3.87-1.27-5m127 1.5c.42 4 .36 8.2 2.13 11.92l.96-3.7 3.88 1.54c-2.1-3.4-3.87-7.15-6.97-9.75m-5.62 2.53l1.15 6.34c-1.7-1.52-2.28-4.5-4.7-5.06l.27 1.52a54.3 54.3 0 0 1-1.8 1.94c-1.53-.3-2.6-1.48-3.84-2.3l-1.52 1.98c-2 .5-4.44.62-5.58 2.65l-1.03-.04-1.28-1.14c.03 3.25 1.4 6.24 2.12 9.35l-1.14.8c-2.34-2.5-.9-7.67-4.55-8.9 1.34 3.58.87 9.04 5.03 10.66 2.74.52 3.8-2.35 5.3-4.02.4 1.02 1.17 1.67 2.34 1.94l1.52-2.3.72 1.1c.52-1.26 1.07-2.5 1.74-3.7.8 1.28 1.8 2.45 3.28 1.38l1.16-.27c1.22.1 1.7-.6 1.4-2.1l1.5.6.82.87c-.2-1.8-.46-3.6-.77-5.37 1.1 1.55 2.15 3.18 3.6 4.45-.6-3.57-2.54-6.8-4.3-9.9l-1.43-.47m-105.8 2.27a22.63 22.63 0 0 1-3.56 5.78c0 1.72-.2 3.57 1.06 4.93l2.88 1 .14-1.04 3.22 1.96c1.67-1.76 4.78-5.9.22-6.2l.68 3.4-2.28 1.07c-.12-2.82.88-5.44 2.27-7.84a62.07 62.07 0 0 0 3.08 2.23c-.05-1.4-.55-2.56-1.52-3.5l1.64.38c-1.16-2.83-4.08-2-6.45-1.8l-1.38-.35m13.87 4.35c-.98 3.65-2.23 7.25-2.58 11.04 1.76-.78 1.98-2.7 2.53-4.3 1.74-.35 3.87-1.17 3.77-3.34.68-2.37-2.2-2.73-3.72-3.4m6.07 1.57l-2.58 10.2 1.85.56c1.06 1.2 2.65 1.22 4.12 1.46 1.86-.43 2.16-2.33 2.84-3.8l.56 4.28 3.98.27 1.5.82 2.32-1.07-.42 1.37 3.35-2.28 2.43 2.8c-.4-4 0-8.24-1.6-12l-2.35.78a119.15 119.15 0 0 0-5.55-.95l-.46-.8-.27 1.22c-1.38-.57-2.78-1.1-4.17-1.62l-.22.98-1.18-.03c-1.03-1.33-2.7-1.66-4.16-2.18m57.1 1.02c-.82 1.1.22 2.54.77 3.55 2.13.14 1.24-4.33-.77-3.55m-7.17 1.4l-1.04.64c-.36 3.58-.45 7.18-.6 10.77.85-.95 1.62-1.98 2.57-2.83l3.18 2.1-.48-1.42 2.27 1.54-.3-1.52 1.53.84-.6-5.15c1.4 1.26 1.85 4.28 4.18 3.97-.45-2.06-.9-4.12-1.15-6.2l-1.3 1.5-1.77-1.7c-.5-1.52-1.1-3.2-2.9-3.5l-3.6.94m-27.97 7.33c.75.65 1.55 1.26 2.35 1.88l.62 3.53c.5-1.2.98-2.42 1.44-3.63l-1.48-2.8-.7-5.14c-2.36 1.05-1.45 4.18-2.22 6.16m9.18-1.33l1.35 2.2.87-2.15.37 3.2-2.9-1.64-.5 5.1a68.75 68.75 0 0 1 2.4-2.43c1.1.67 2.05 1.6 3.06 2.4-.62-3.88-1.42-7.74-2.6-11.5-.85 1.52-1.5 3.14-2.05 4.8M209 246c.16 3.64.52 7.28 1.33 10.85 1.13-.4 2.26-.8 3.34-1.3 1.93-2.3.94-5.7.03-8.24-1-1.73-3.05-1.37-4.7-1.3m-14.6 4.63l1.36 2a123.6 123.6 0 0 0-.17 4.3l1.4.01c0-3.42-.02-6.84-.18-10.26-2.5-1.55-1.78 2.7-2.42 3.94m-4.5 3.94l.33 1.72c1.25 1.37 2-1.53 1.16-2.3l-1.5.57zm72.28-17.47c3.28.33-1.62 2.96 0 0zm-14.94 5.3c1.36-.34 1.88.2 1.55 1.6-1.34.35-1.86-.2-1.55-1.6z"/><path d="M186.25 250.2c1.65.05 1.36 2.83-.15 2.9-1.54-.16-1.27-2.76.15-2.9zm31.85.18c1.37-.42 1.86.08 1.48 1.5-1.37.4-1.87-.1-1.48-1.5zm-73.83 1.6l8.74 2.98c3.85 3.34 6.32 7.83 9 12.08l.7 1.1.8 1.67c1.12 2.43 2.03 5 2.4 7.66l-.96-.7c-1.82-1.34-3.66-2.64-5.6-3.78a34.34 34.34 0 0 0-2.7-1.38c-2.14-1-4.3-1.92-6.48-2.84l-2.28 4.18c-1.62 2.93-2.72 6.1-4.2 9.1-2.1-9.86-8.54-17.94-15.98-24.42 5.26-1.58 10.7-2.77 15.63-5.26l.94-.4zm98.13 3.73c5.48-.94 10.82-5.38 16.46-2.83 3.85 1.2 7.7 2.45 11.6 3.47-8.5 6.4-15.35 15.26-17.97 25.72-1.2-3.16-2.47-6.3-4.13-9.26l-2.25-4.1c-1.65.67-3.3 1.32-4.92 2.06l-2.47 1.25a66.74 66.74 0 0 0-4.63 2.84c-1.15.76-2.23 1.64-3.42 2.35l-.68-.04.34-.84 1.3-3.57.72-1.9c1.84-3.57 3.82-7.08 6.28-10.28l3.77-4.87z"/></g><path d="M253.83 171.65l.93-2.25 2.12 4.83c-.3 1.32-1.18 2.37-1.9 3.47-.52-2-.86-4.02-1.15-6.05z" fill="#776315"/><g fill="#e3ba1d"><path d="M138.82 177.5c.12-3.3 4.36-6.73 7.27-4.14v.48c-3.2-.68-5.44 1.32-7.27 3.66zm7.28-3.65l.46-.17c3.68 3 .8 8.82-1.76 11.76-.15-4.04 3.23-7.6 1.3-11.6zM258.2 183c1.67-.3 2.16 1.56 2.93 2.65.55 1.08 3.6 2.03 2.4 3.32-2 1.23-2.3-1.65-3.45-2.57-.55-1.02-2.43-2.1-1.88-3.4zm-20.5 9.23c.88-1.15 1.27-2.95 2.87-3.32 1.52 1.7 2.14 3.93 2.23 6.18h-5.44c.87-1.34 2.34-1.94 3.68-2.65l-3.34-.22zm26.4-2.2c1.78-.6 2.03 2.26 2.55 3.4.85 1.73 1.2 4.64-1.4 5.14-.02-1.55.2-3.06.67-4.54-.8-1.24-2.6-2.28-1.83-4zm-24.58 8.6a17.04 17.04 0 0 1 4.91.65l2.32-.03c.4 2.55.32 5.13.06 7.7-1.83.9-2.35 2.66-2.12 4.6l-1.93-.38-.14 4.72-3.62 2.4.4-3.48c-.8 1.66-1.42 3.6-3.65 3.64l1.2-3.2-3.2 1.94 1.6-3.72c4.07-.48 6.1-4.2 7.8-7.46l1.75.53c-1.17-1.45-2.3-2.96-3.35-4.47l3.63.52c-2.15-.92-4.7-1.55-5.67-3.96zm72.38 53.27c5.1-3.77 13.3-.72 15.4 5.08 1.05 3.56-.82 6.94-2.4 10l-2.07-1.13 1.8-2.17c1.18-5.97-3.68-13.06-10.2-11.9l-2.5.1zm-236.55 2.54c2.62-3.12 6.9-3.5 10.68-3.08l-1.4 1.04-.94.2-1.6.28c-5.47 1.88-7.48 9.2-4.18 13.82-1.35.64-2.3.32-2.86-.98-2.04-3.36-2.8-8.28.3-11.27zm224.62 12.54c6.8.78 13.06 4.4 20 4.43 4.43.25 5.66-6.34 10.33-4.9l-2.96 3.75 3.28-1.98c2.6 3.1-.3 6.6-2.98 8.34-2.02.14-4-.33-5.98-.7l-.98-.2c2.94 0 6.3-.28 7.54-3.42l2.17-.82c-1.87-.45-3.72-.96-5.57-1.46l3 2.5c-2.9.67-5.78 1.75-8.8 1.87-2.4-.77-4.66-1.93-7.03-2.77l-.12-.04c-3.94-1.63-8.14-2.6-11.92-4.6z"/></g><path d="M257.76 171.4c1.03 3.18.12 6.4-1 9.43-1.38-.2-1.17-2.17-1.78-3.13.72-1.1 1.6-2.15 1.9-3.47l.88-2.83z" fill="#deb71b"/><path d="M138.53 176.52l.3 1 .4 1.7-.24.68-1.04.96c-.86 3.8-2.27 7.6-2.16 11.54.06 3 2.25 5.15 3.9 7.42-1.72-.52-3.1-1.6-4.35-2.84-.87 2.1-1.82 4.3-3.82 5.6.17-1.5.37-3 .6-4.48l-3.5 2.4c1.52-2.87 3.96-5.3 4.76-8.52 1.35-5.26 2.8-10.53 5.17-15.43z" fill="#caa71a"/><path d="M144.35 185.26l.44.18c.7 1.53-1.04 4-2.6 4.12-.26-1.55.74-3.6 2.17-4.3z" fill="#69550a"/><path d="M238.62 197.9c.75-4.4 6.3-1.75 7.58 1-2.46-.8-4.98-1.53-7.58-1z" fill="#c19e16"/><path d="M128.18 209.4c3.75-.26 7.45.34 11.07 1.27l1.84 3.4-2.1 1.36c-3.97-1.1-7.8-3.18-10.8-6.02z" fill="#dcdcdc"/><g fill="#f9f9fc"><path d="M265.82 210.4l7.37-1c-1.67 1.63-3.6 2.95-5.67 4.03l-1.7-3.03zM153 254.95l8.67 2.36c-.5 3.55.4 7.02 1.4 10.4l-1.08-.68c-2.67-4.25-5.14-8.74-9-12.08z"/></g><path d="M162.93 213.9l6.4 1.28-.47.4-.9 1.3-.84 2.6c-1.27-.47-2.87-.4-3.93-1.26l-1.32-1.58 3.6-.9-2.56-1.82z" fill="#95790d"/><path d="M167.97 216.87l.9-1.3c1.03 1.24.73 1.67-.9 1.3z" fill="#cbab11"/><path d="M270.43 216c3.6 2.4 5.97 6.16 6.4 10.5-1.5-.36-3-.75-4.47-1.16l-1.5-.88c-.27-2.82-.44-5.64-.42-8.46z" fill="#c4c4c4"/><g fill="#b10102"><path d="M131.35 231.37l1.54-.76c-.2 2.5-.07 5.1-.85 7.53-.15 1.23-1.28 2.67-.1 3.77 1.96-3.44 3.94-6.86 6.27-10.07l4.16.54 2.2 4.03c-1.32 3.08-2.4 6.26-3.36 9.47l-1.35-1.4c.58-3.98 1.5-7.93 1.47-11.98-2.86 3.07-4.95 6.72-7.23 10.2-2.1 1.32-3.62-.57-4.26-2.4 1.04-2.88 1.05-5.96 1.5-8.95zm18.55 5.23c2.37-.2 5.3-1.02 6.45 1.8l-1.64-.38-1.98-.52c-2.37 2.58-3.46 5.95-3.7 9.4l-.14 1.04-2.88-1 3.88-10.36zm93.95 1.78l1.52-1.98c1.23.83 2.3 2 3.84 2.3l1.8-1.94.73 4.1 2.77.97 1.87 2.55-1.5-.6-.74-1.75c-.67.14-1.28.4-1.85.77a18.36 18.36 0 0 0 1.2 3.1l-1.16.27c-1.6-2.1-2.92-4.4-4-6.78l-2.9-1.17 1.17 9.15-1.52 2.3-2.96-8.9 1.75-2.37zM138.04 240c-.43-1.4.04-1.98 1.43-1.77.4 1.37-.07 1.96-1.43 1.77zm99.2 1l1.03.04 2.27.16 2.18 6.53c-1.5 1.67-2.56 4.54-5.3 4.02.75-.7 1.47-1.42 2.13-2.2-.14-2.98-1.25-5.8-2.3-8.56zm-74.14 2.05c1.47-1.32 2.33 1.44 1.22 2.3-1.42 1.34-2.4-1.47-1.22-2.3zm9.5 1.3l1.18.03c-.7 3.32-1.4 6.65-1.95 10-1.47-.24-3.06-.25-4.12-1.46l2.94.5a84.34 84.34 0 0 0-3.15-2.85c.95-1.22 2.27-2 3.7-2.55l-2.23-1.47.6-2.3 3.03.08zm5.85-.54l.46.8c2.65 3.03.57 7.04.3 10.54l-3.98-.27 1.66-.52-.8-4.1c1-1.6 1.77-3.34 2.07-5.22l.27-1.22zm-3.3 4c-.77-1.26-.5-2 .8-2.25.8 1.26.52 2-.8 2.25zm9.32-2.3l2.35-.78c-1.46 3.3-2.66 6.7-3.76 10.12l-2.32 1.07c1-3.53.16-8.24 3.73-10.4zm26.46 1.18c2.1 2.1 3.4 6.52.6 8.53-.42-2.83-.67-5.68-.6-8.53z"/></g><path d="M106.35 240.8l2.83-.1c4.24 4.52 9.7 7.38 14.82 10.74-1.5.03-3 .12-4.5.04-4.66-3.1-10.65-5.3-13.14-10.7z" fill="#b71114"/><path d="M282.66 244.65c2.3-1.7 4.22-4.43 7.48-3.9-2 5.36-7.85 7.3-12.12 10.4l-3.72-1.2c2.76-1.8 5.72-3.3 8.36-5.3z" fill="#b91012"/><path d="M218.37 244.6l3.6-.94c.58 3.42 1.26 6.83 2 10.23l.3 1.52-2.27-1.54c-1.13-3.13-2.28-6.24-3.63-9.27z" fill="#b20f10"/><path d="M295.67 248.8c5.87-2.67 12.3-3.1 18.64-2.73l1 .1.8.97c-3.6-.4-7.4-.86-10.7.98-5.8-.25-10.4 3.6-14.94 6.62l.3-1.8c.86-2.03 3.02-3.18 4.9-4.14z" fill="#8c7419"/><path d="M194.4 250.63c.64-1.23-.07-5.5 2.42-3.94.16 3.42.18 6.84.18 10.26l-1.4-.01c.03-1.44.1-2.88.17-4.3l-1.36-2z" fill="#f8eded"/><path d="M260.74 249.38c2-.76 4.1-1.97 6.24-.9l27.44 8.4.4 2.76c-6.32-1.08-12.35-3.3-18.48-5.07-5.25-1.58-10.6-2.92-15.6-5.18z" fill="#c7c7c7"/><path d="M237.16 257.25l.47-.15 1 3.48c-2.46 3.2-4.44 6.7-6.28 10.28l-1.6.53c.12-2.6-.18-5.35.8-7.82 1.34-2.5 3.57-4.4 5.6-6.32z" fill="#c2c3c3"/><g fill="#d9b319"><path d="M313.7 267.87c-.24-1.73-2.97-4.57-.12-5.34 2.02 1.37 1.45 3.78.12 5.34zm5.37-3.65l1.36.23a5.4 5.4 0 0 1 1.46 2.6c-.76.82-1.65 1.5-2.52 2.18l.85-2.26-1.15-2.75zM72 267.82c1.58-2.08 3.36.45 4.44 1.7 3.06 3.8 8.5 1.87 12.47.92l-.1 1.55c-2.4.85-4.62 2.28-7.14 2.76-2.6-.1-5.08-.92-7.6-1.45.55-.93 1.18-1.8 1.68-2.75a36.79 36.79 0 0 0-3.45-1.42l-.3-1.3z"/></g><path d="M285.3 265.65c1.33-1.34 3.4.83 2.06 2.1-1.37 1.6-3.95-.84-2.06-2.1z" fill="#d7af13"/><path d="M114.2 266c1.6-.67 3 2.28 1 2.62-1.66.55-2.8-2.02-1-2.62z" fill="#ddb314"/><path d="M88.9 270.44c4.26-.82 8.5-4.26 12.88-2.28-3.66 1.74-7.53 3.4-11.6 3.78l-1.38.05.1-1.55z" fill="#948037"/><path d="M72.3 269.13a36.79 36.79 0 0 1 3.45 1.42c-.5.95-1.13 1.82-1.68 2.75l-.2 1.43-2.42-2.94a3.25 3.25 0 0 0-.17-.19l.04.1-2.13-.76c.88-.83 2.03-1.28 3.1-1.8z" fill="#89700d"/><path d="M241.2 270.76l4.92-2.06 2.25 4.1-7.17-2.05z" fill="#c5b6b6"/><path d="M69.2 270.94l2.13.76.13.1 2.42 2.94 3.37 1.95-3.5.96c-2.2-1.6-3.76-3.84-5.48-5.9l.92-.8z" fill="#d4ac13"/><path d="M71.3 271.6a3.25 3.25 0 0 1 .17.19l-.13-.1-.04-.1z" fill="#362c06"/><path d="M230 277.16c-3.77.4-.8-4.67.34-.84l-.34.84z" fill="#ececec"/></svg>