<svg xmlns="http://www.w3.org/2000/svg" width="534" height="534" viewBox="0 0 400 400"><path d="M0 0h400v400H0V0m122 107c-31.62 26.48-49 71.17-39.8 111.42-1.74 17.1 8.7 34.4 17.6 48.77 34.46 54.33 115.6 69.2 167.07 30.66.55-10-.07-20.08.4-30.1 2.02 9.6.08 19.6.72 29.35 31.46-21.93 52.12-59.48 51.12-98.1 1.27-45.88-27.45-90.14-68.95-109.2-41.3-19.84-93.4-12.53-128.15 17.2z" fill="#fd4135"/><path d="M122 107c34.74-29.73 86.86-37.04 128.15-17.2 41.5 19.06 70.22 63.32 68.95 109.2 1 38.62-19.66 76.17-51.12 98.1-.64-9.74 1.3-19.74-.72-29.35-1.9-12-1.7-24.32-1-36.4 12.76-3.1 24.03-11.05 30.75-22.35 2.9-6.43 17.98 4.63 14.86-6.6-1.86-1.3-8.4-.22-7.05-2.76 7.72-3.8 1.62-14.03-3.62-6.46-4.6 5.83-1.97-8.22-6.72-6.78-11.7-.22.5 11.6-3.74 17.34-4.77 8.64-15.64 18.93-25 18.57-.04-23.18 1.24-46.54-.4-69.63-2.18-15.98-21.17-15.95-33.36-14.6-8.03.9-5.15-10.14-7.86-15.18-5.64-25.5-39.34-37.97-59.82-21.56-11.28 8.4-13.43 22.76-15.36 35.6-9.22 3.88-23.4-1.2-31.1 8-12.67 24.1-23.6 49.1-35.66 73.52C73 178.17 90.37 133.48 122 107z" fill="#ec231f"/><path d="M164.3 101.32c20.48-16.4 54.18-3.95 59.82 21.56 2.7 5.04-.17 16.08 7.86 15.18 12.2-1.34 31.18-1.37 33.36 14.6-.01 23.16-1.44 46.6.4 69.63 9.37.36 20.24-9.93 25-18.57 4.25-5.74-7.95-17.56 3.74-17.34 4.75-1.44 2.13 12.6 6.72 6.78 5.24-7.57 11.34 2.67 3.62 6.46-1.36 2.54 5.2 1.47 7.05 2.76 3.12 11.24-11.95.18-14.86 6.6-6.72 11.3-18 19.26-30.75 22.35-.7 12.08-.92 24.4 1 36.4-.47 10.02.15 20.1-.4 30.1-51.48 38.53-132.6 23.67-167.07-30.66-1.77-15.86 5.23-31.88 6.93-47.74 2.4-25.1 9.98-49.37 11.14-74.55 7.68-9.2 21.87-4.1 31.1-8 1.93-12.83 4.08-27.2 15.36-35.6m16.12 4.06c-14.56 3.04-19.78 19.45-19.44 32.5 18.05-.01 36.56.9 54.34-.55 1-17.6-15.05-37.76-34.9-31.94m-7.97 77c-16.1-1.38-17.9 24.4-2.8 26.04 17.84 4.8 21.03-26.72 2.8-26.04m38.98 1c-7.12 1.36-11.4 10.34-8.8 16.96 3.3 11.88 22.45 11.53 25.08-.65 2.94-9.4-6.73-19.63-16.27-16.3m-44.1 33.72c-8.52 9.33-.92 25.23 6.96 32.64 19.6 17.9 54.08-.32 50.33-26.3-1.95-11.43-16.54-2.32-23.92-1.73-11.56 2.35-22.04-4.6-33.37-4.6z" fill="#fcfbfc"/><path d="M180.42 105.38c19.85-5.82 35.9 14.33 34.9 31.94-17.78 1.44-36.3.54-54.34.55-.34-13.04 4.88-29.45 19.44-32.5z" fill="#ec2522"/><path d="M82.2 218.42c12.05-24.42 23-49.43 35.66-73.52-1.16 25.18-8.73 49.44-11.14 74.55-1.7 15.86-8.7 31.88-6.93 47.74-8.88-14.36-19.33-31.67-17.6-48.77z" fill="#deecf2"/><path d="M265.34 152.67c1.63 23.1.35 46.45.4 69.63-1.83-23.02-.4-46.47-.4-69.63z" fill="#f8a09f"/><path d="M172.45 182.38c18.23-.68 15.04 30.84-2.8 26.04-15.1-1.64-13.3-27.42 2.8-26.04m-.2 5.66c-2.55 2-1.4 6.04 2.08 5.65 6.8.7 5.2-8.8-2.08-5.65z" fill="#5d5d5d"/><path d="M211.43 183.38c9.54-3.32 19.2 6.92 16.27 16.3-2.63 12.18-21.78 12.53-25.08.65-2.6-6.62 1.7-15.6 8.8-16.96m4.9 4.87c-6.63 1.14-.9 9 4.04 5.17 4.54-1.44-1.03-6.68-4.04-5.17z" fill="#5c5c5c"/><path d="M172.25 188.04c7.3-3.16 8.87 6.34 2.08 5.65-3.47.4-4.63-3.65-2.08-5.65z" fill="#e5e4e5"/><path d="M216.32 188.25c3-1.5 8.58 3.73 4.04 5.17-4.93 3.83-10.67-4.03-4.04-5.17z" fill="#e0dfdf"/><path d="M167.32 217.1c11.33-.01 21.8 6.95 33.37 4.6 7.38-.6 21.97-9.7 23.92 1.73 3.75 26-30.74 44.22-50.33 26.3-7.88-7.4-15.48-23.3-6.96-32.64z" fill="#f12c23"/></svg>