<svg xmlns="http://www.w3.org/2000/svg" viewBox="0 0 134 134" fill-rule="evenodd" stroke-linejoin="round" stroke-miterlimit="1.41421"><path d="M16.667 41.667h100A8.34 8.34 0 0 0 125 33.333 8.34 8.34 0 0 0 116.667 25h-100a8.34 8.34 0 0 0-8.334 8.333 8.34 8.34 0 0 0 8.334 8.334zm100 16.666h-100a8.34 8.34 0 0 0-8.334 8.334A8.34 8.34 0 0 0 16.667 75h100A8.34 8.34 0 0 0 125 66.667a8.34 8.34 0 0 0-8.333-8.334zm0 33.334h-100A8.34 8.34 0 0 0 8.333 100a8.34 8.34 0 0 0 8.334 8.333h100A8.34 8.34 0 0 0 125 100a8.34 8.34 0 0 0-8.333-8.333z" fill-rule="nonzero"/></svg>