<svg xmlns="http://www.w3.org/2000/svg" width="100%" height="100%" viewBox="0 0 5559 5559" fill-rule="evenodd" stroke-linejoin="round" stroke-miterlimit="1.41421"><path d="M2760.18 70.83h37.7c208.813 2.925 417.626 26.704 620.588 76.592 426.997 102.59 827.29 312.758 1155.54 604.283 293.584 259.567 529.967 583.484 686.834 942.6 135.092 307.667 210.98 640.954 223.98 976.626l2.71 89.375v41.87c-3.792 277.333-47.017 554.504-133.9 818.134-127.51 392.33-347.372 754-635.593 1049-289.792 297.917-649.134 528.017-1041.52 665.276-251.876 88.833-517.076 138.883-783.793 150.042l-94.792 2.87h-37.375c-368.442-3.684-736.667-80.167-1073.58-229.992-355.334-156.11-675.567-390.65-933.022-680.876-274.842-308.967-478.02-681.634-586.57-1080.73-62.617-225.442-92.95-459.28-96.58-693.118v-42.25c3.358-297.32 52.704-594.534 151.667-875.117 122.416-351.65 319.42-676.867 572.975-949.38 250.142-269.317 555.37-487.5 891.963-635.376C2024.057 151 2392.01 74.516 2760.18 70.833m-1496.63 1593.04l1038.38 888.334c74.533 64.73 152.37 125.504 228.583 188.175L2786.56 2948.6l564.038-464.913 957.235-819.976c-37.213-11.59-76.375-8.666-114.834-8.937-953.442-.054-1906.83 0-2860.27-.054-23.4-.27-46.746 2.708-69.225 9.208m2091.38 1060.2l1085.93 1043.58c17.658-53.3 9.75-109.958 11.483-164.992v-1684.58c-.38-41.71 3.25-84.61-10.616-124.8L3354.93 2724.08m-2224.2-930.747c-14.083 41.925-9.967 86.56-10.562 130v1711.78c.54 43.875-3.52 88.834 11.05 131.084 53.245-46.746 102.645-97.88 154.375-146.25l932.37-895.484-1087.23-931.126m135.58 2102c19.934 5.038 40.355 8.288 60.992 8.233h2914.5c21.884.27 43.713-2.708 64.892-8.125l-1096.4-1053.33-423.963 344.717-423.205-344.23L1266.313 3895.32z" fill="#f0f0f0" fill-rule="nonzero"/></svg>