<svg xmlns="http://www.w3.org/2000/svg" width="100%" height="100%" viewBox="0 0 5559 5559" fill-rule="evenodd" stroke-linejoin="round" stroke-miterlimit="1.41421"><path d="M2761.16 70.743h35.75c234.54 2.98 469.08 33.15 695.28 95.495 358.364 97.066 695.766 270.073 984.635 503.205 304.63 245.103 555.53 556.83 729.08 907.286 157.515 316.764 251.548 665 274.623 1018.1 5.416 55.25 4.062 110.824 6.933 166.3v43.712c-4.225 277.982-47.666 555.91-135.416 819.97-128.374 393.247-349.914 755.078-639.54 1050.3-301.707 307.935-677.62 543.288-1087.77 677.08-266.498 88.453-547.08 132.057-827.66 135.415h-35.317c-341.248-3.412-682.495-68.628-998.718-197.815-345.04-139.207-660.18-351.54-920.177-617.604-276.357-282.64-490.476-626.054-620.313-999.37C123.422 3392.01 74.24 3094.582 70.88 2797.1v-35.425c2.87-193.7 22.75-387.56 66.083-576.546 107.25-485.168 353.815-938.052 700.75-1293.5 242.556-250.03 533.917-452.722 853.01-592.58 336.102-148.795 703.133-224.8 1070.43-228.31M1692.234 1269.6c-103.62 3.52-209.46 50.645-267.58 138.99-51.73 76.916-63.375 177.123-37.808 265.523 21.125 73.666 72.15 138.016 138.99 175.5 80.707 46.04 178.64 54.003 268.773 36.995 85.203-16.25 165.586-65.758 211.032-140.832 76.158-121.874 53.408-295.965-53.408-392.598-69.496-63.916-167.374-88.616-260-83.632m1693.62 837.194c-103.836 13.975-206.644 52-287.244 120.25-61.207 46.854-109.307 108.225-151.503 172.087V2142.23c-200.74.108-401.48-.108-602.22.108v1811.86h602.22v-877.223c.27-72.04-1.787-144.245 4.496-216.124 6.77-63.916 38.892-122.415 79.083-171.328 52.812-63.916 131.624-106.6 214.715-111.745 77.458-8.287 161.145 9.21 220.836 61.587 57.633 50.754 88.67 125.666 101.183 200.037 17.983 92.46 12.566 187.144 13.54 280.852v834.053l602.06-.163.054-709.253c-1.083-139.1 2.6-278.253-2.98-417.298-10.292-160.603-48.1-324.348-140.29-458.68-56.55-83.58-134.766-152.207-225.06-197.328-131.84-65.38-283.94-82.603-428.997-64.837m-1976.53 35.533v1811.86h602.113V2142.28l-602.058-.054-.055.054z" fill="#f0f0f0" fill-rule="nonzero"/></svg>