<svg xmlns="http://www.w3.org/2000/svg" width="1334" height="1334" viewBox="0 0 1000 1000"><path d="M496.67 0h6.6c43.3.55 86.6 6.12 128.36 17.63 66.16 17.92 128.45 49.86 181.78 92.9 56.24 45.25 102.56 102.8 134.6 167.5 29.08 58.48 46.44 122.77 50.7 187.96 1 10.2.75 20.46 1.28 30.7v8.07c-.78 51.32-8.8 102.63-25 151.38-23.7 72.6-64.6 139.4-118.07 193.9-55.7 56.85-125.1 100.3-200.82 125-49.2 16.33-101 24.38-152.8 25h-6.52c-63-.63-126-12.67-184.38-36.52-63.7-25.7-121.88-64.9-169.88-114.02C91.5 797.32 51.97 733.92 28 665 9.7 613.16.62 558.25 0 503.33v-6.54c.53-35.76 4.2-71.55 12.2-106.44 19.8-89.57 65.32-173.18 129.37-238.8 44.78-46.16 98.57-83.58 157.48-109.4C361.1 14.68 428.86.65 496.67 0M299.33 221.33c-19.13.65-38.67 9.35-49.4 25.66-9.55 14.2-11.7 32.7-6.98 49.02 3.9 13.6 13.32 25.48 25.66 32.4 14.9 8.5 32.98 9.97 49.62 6.83 15.73-3 30.57-12.14 38.96-26 14.06-22.5 9.86-54.64-9.86-72.48-12.83-11.8-30.9-16.36-48-15.44M612 375.88c-19.17 2.58-38.15 9.6-53.03 22.2-11.3 8.65-20.18 19.98-27.97 31.77V382.43c-37.06.02-74.12-.02-111.18.02v334.5H531V555c.05-13.3-.33-26.63.83-39.9 1.25-11.8 7.18-22.6 14.6-31.63 9.75-11.8 24.3-19.68 39.64-20.63 14.3-1.53 29.75 1.7 40.77 11.37 10.64 9.37 16.37 23.2 18.68 36.93 3.32 17.07 2.32 34.55 2.5 51.85v153.98l111.15-.03.01-130.94c-.2-25.68.48-51.37-.55-77.04-1.9-29.65-8.88-59.88-25.9-84.68-10.44-15.43-24.88-28.1-41.55-36.43-24.34-12.07-52.42-15.25-79.2-11.97m-364.9 6.56V716.94h111.16v-334.5l-111.15-.01z" fill="#f0f0f0"/></svg>
