<svg xmlns="http://www.w3.org/2000/svg" width="1334" height="1334" viewBox="0 0 1000 1000"><path d="M495.76 0h8.1c35.04.6 70.1 4.22 104.32 11.96 74.55 16.38 145.08 50.47 204.47 98.38 53.14 42.74 97.45 96.44 129.18 156.82 32.24 61.08 51.5 128.98 56.05 197.9 6.48 91.34-12.68 184.44-55.32 265.53-33.48 64.3-81.26 121.07-138.76 165.2-61.4 47.35-134.04 80.07-210.25 94.46-53.95 10.3-109.6 11.57-164 3.96-68.95-9.6-135.8-33.98-194.75-71-57.38-35.87-107.32-83.55-145.86-139.17-46.1-66.26-75.75-143.92-85.2-224.1C1.3 541.42.52 522.73 0 504.08v-7.35L.48 480c2.7-70.95 20.65-141.34 52.73-204.7 47.56-95.03 126.42-174.02 221.4-221.72C342.83 18.8 419.25.77 495.76 0M217.18 275.36c1.28 4.37 1.94 9.07 4.5 12.95 1.98 2.96 4.4 5.6 6.66 8.36l38.52 46.45c2.7 3.37 5.75 6.5 7.74 10.37 2.3 5.15 2.13 10.93 2.2 16.45l-.03 242.14c.44 7.97-3.25 15.45-8.28 21.4l-57.07 69.14-.15 9.44h164.34l-.14-9.43-54.34-65.78c-3.9-4.7-7.88-9.54-9.88-15.4-1.44-3.64-1.45-7.6-1.53-11.46l-.03-212.53 144.18 314.6 16.8.03 123.8-314.6.12 243.47c-.22 5.1.43 10.43-1.4 15.32-1.8 3.35-5 5.63-7.53 8.37-13.08 13.22-26.5 26.06-39.9 38.97l-.4 9.4 216.85-.03-.64-9.56-38.8-38.26c-2.4-2.57-5.3-4.77-7.02-7.87-2.2-5.13-1.57-10.85-1.83-16.3l.06-285.97c.06-6.84-.28-13.73.64-20.53.6-4.52 4.4-7.42 7.3-10.53 12.4-13 26.34-24.47 38.55-37.64 1.47-3.58 2.24-7.4 3.45-11.07l-153.53-.07L501.8 546.25 378.23 275.2c-53.68-.08-107.37-.02-161.05.17z" fill="#f0f0f0"/></svg>
