<svg xmlns="http://www.w3.org/2000/svg" width="100%" height="100%" viewBox="0 0 5559 5559" fill-rule="evenodd" stroke-linejoin="round" stroke-miterlimit="1.41421"><path d="M2760.6 70.76h36.997c235.63 3.087 471.263 33.584 698.498 96.582 397.973 108.336 769.73 310.49 1077.95 584.257 277.178 245.11 503.493 547.532 659.876 882.94 141.596 302.69 225.88 632.034 247.115 965.493 4.875 50.268 3.413 100.86 6.5 151.237v50.7c-3.79 278.966-47.397 557.824-135.42 822.814-127.62 390.715-347.055 750.77-634.2 1044.74-289.8 297.763-648.934 527.923-1041.27 665.185-230.918 81.252-473.104 130.545-717.457 146.254-52.164 4.983-104.652 3.63-156.925 6.608h-41.33c-324.142-3.466-648.176-62.293-950.76-179.188-343.21-131.087-658.685-333.784-921.4-590.432-297.925-289.908-528.03-649.15-665.293-1041.55-81.18-231.202-130.317-472.435-146.037-716.97-4.984-53.79-3.9-107.85-6.61-161.746v-36.942c3.358-297.384 52.65-594.767 151.67-875.358C338.145 1553.065 520.42 1244.36 754.2 981.43c226.965-255.512 502.356-468.284 807.918-621.58 369.914-188.017 783.92-285.303 1198.47-289.095m346.026 1524.67c-113.266 51.623-212.014 135.583-278.1 241.21-51.46 81.252-83.094 174.8-91.328 270.57-5.958 67.168 2.167 134.337 5.31 201.29-94.794-11.105-189.86-22.318-282.758-44.418-238.88-53.952-464.98-161.15-659.605-309.463-121.5-89.8-225.61-199.718-332.593-305.725-17.875 53.4-39 105.9-52.38 160.77-45.176 179.297-13 379.61 98.91 528.52 24.16 33.422 54.168 61.86 80.277 93.71 10.292 13.27 22.21 27.625 21.017 45.61-18.634 4.117-37.7.92-55.63-4.875l-107.416-33.963c-23.292-6.88-46.584-16.467-71.393-15.438-4.767 40.084 10.292 78.814 17.496 117.816 20.584 70.96 39.434 144.195 79.627 207.3 55.685 88.294 134.5 160.446 222.47 215.806 50.376 31.797 105.627 54.276 158.712 80.602l-195.818 3.25c-13.704 1.354-29.034 1.083-40.626 9.534-8.125 8.83-2.708 20.854-1.083 31.092 11.538 39.705 31.417 76.215 54.547 110.34 68.794 94.902 164.51 167.813 269.108 219.38 68.793 32.61 142.028 54.168 213.64 79.356l-132.333 78.544c-99.128 55.685-206.652 96.31-317.425 121.716-114.295 28.167-232.382 29.52-349.385 36.4-24.376 1.84-49.293 2.925-72.423 11.917 32.5 30.984 76.052 46.042 115 67.168 98.424 48.426 200.585 89.052 304.317 124.587 180.055 54.7 368.885 78.38 556.848 73.668 259.79-6.825 519.473-65.976 752.775-181.354 160.77-77.46 302.962-189.264 426.574-317.155 46.585-51.35 94.957-101.186 136.233-156.98 44.96-53.4 82.335-112.453 121.716-169.926 65.218-102.648 120.253-211.905 160.446-326.742 42.36-124.966 74.59-253.3 97.502-383.185 15.492-80.602 21.668-162.505 24.05-244.46-.217-42.414 23.51-79.844 51.19-110.07 63.052-67.06 128.92-131.466 189.968-200.422 18.633-22.37 40.463-44.743 45.934-74.535-37.918 1.083-72.585 18.417-108.336 28.71-38.19 11.592-75.62 25.892-114.295 35.426-16.25 2.925-35.318 8.45-49.455-3.088 6.88-24.81 24.375-44.255 41.005-63.106 43.443-49.076 84.88-100.21 118.086-156.925 15.71-29.034 35.318-57.093 39.868-90.57-40.95 6.934-75.998 31.69-114.078 47.127-85.044 35.21-173.555 61.48-261.1 89.756-82.878-56.714-164.888-116.353-257.732-156.004-52.706-22.75-110.883-27.897-167.542-31.31-98.26-3.142-199.99 5.417-289.692 48.75l-.108-.217z" fill="#f0f0f0" fill-rule="nonzero"/></svg>